<svg xmlns="http://www.w3.org/2000/svg" xmlns:xlink="http://www.w3.org/1999/xlink">
  
  <symbol id="arrow-2" viewBox="0 0 16 16" xmlns="http://www.w3.org/2000/svg">
    <path d="M3.828 7.00005L9.192 1.63605L7.778 0.222046L0 8.00005L7.778 15.778L9.192 14.364L3.828 9.00005H16V7.00005H3.828Z"/>
  </symbol>

  <symbol id="arrow" viewBox="0 0 10 9" fill="none" xmlns="http://www.w3.org/2000/svg">
    <path d="M7.66944 2.276L1.93144 8.014L0.98877 7.07133L6.7261 1.33333H1.66944V0H9.00277V7.33333H7.66944V2.276Z" fill="white"/>
  </symbol>

  <symbol id="developer" viewBox="0 0 40 23" fill="none" xmlns="http://www.w3.org/2000/svg">
    <path fill-rule="evenodd" clip-rule="evenodd" d="M0.349314 22.6237C0.156393 22.6237 0 22.4684 0 22.2767V9.89185C0 9.79981 0.0368022 9.71154 0.102311 9.64646L8.6868 1.11824C8.75231 1.05316 8.84116 1.0166 8.93381 1.0166H9.04396C9.15658 1.0166 9.26229 1.07054 9.32789 1.16148L19.6821 15.5143C19.7762 15.6447 19.768 15.8221 19.6624 15.9434L15.8612 20.3113C15.7119 20.4828 15.44 20.4684 15.3099 20.2822L5.8712 6.76718C5.67609 6.4878 5.23489 6.62496 5.23489 6.965V17.9748C5.23489 18.0668 5.19809 18.1551 5.13258 18.2201L0.802224 22.5221C0.736715 22.5872 0.647865 22.6237 0.555222 22.6237H0.349314Z" fill="#7C889F"/>
    <path fill-rule="evenodd" clip-rule="evenodd" d="M29.8893 5.46554C30.0745 5.23871 29.9121 4.89989 29.618 4.89989H23.9742C23.663 4.89989 23.5071 4.52609 23.7272 4.30748L27.3326 0.725664C27.3981 0.660585 27.487 0.624023 27.5796 0.624023H39.6509C39.8438 0.624023 40.0002 0.779392 40.0002 0.971048V17.505C40.0002 17.597 39.9634 17.6853 39.8979 17.7503L35.6301 21.9901C35.4101 22.2087 35.0338 22.0539 35.0338 21.7447V7.11871C35.0338 6.79199 34.6208 6.64631 34.4134 6.89988L21.6585 22.4958C21.5922 22.5769 21.4926 22.624 21.3874 22.624H16.611C16.3169 22.624 16.1545 22.2852 16.3397 22.0584L29.8893 5.46554Z" fill="#7C889F"/>
  </symbol>

  <symbol id="gabariti" viewBox="0 0 14 14" fill="none" xmlns="http://www.w3.org/2000/svg">
    <path d="M6.3335 6.33331V2.88531L5.11483 4.10465L4.1715 3.16198L7.00016 0.333313L9.82883 3.16198L8.8855 4.10465L7.66683 2.88531V6.33331H11.1148L9.8955 5.11465L10.8382 4.17131L13.6668 6.99998L10.8382 9.82865L9.8955 8.88531L11.1148 7.66665H7.66683V11.1146L8.8855 9.89531L9.82883 10.838L7.00016 13.6666L4.1715 10.838L5.11483 9.89531L6.3335 11.1146V7.66665H2.8855L4.10483 8.88531L3.16216 9.82865L0.333496 6.99998L3.16216 4.17131L4.10483 5.11465L2.8855 6.33331H6.3335Z" fill="#0847C2"/>
  </symbol>

  <symbol id="gorod-d" viewBox="0 0 16 14" fill="none" xmlns="http://www.w3.org/2000/svg">
    <path d="M14.0002 12.6666V3.79997C14.0002 3.66312 13.9581 3.52957 13.8797 3.41746C13.8012 3.30535 13.6901 3.22011 13.5615 3.1733L7.11416 0.829304C7.0638 0.810975 7.00976 0.805059 6.95662 0.81206C6.90349 0.81906 6.85282 0.83877 6.80893 0.869518C6.76503 0.900265 6.72919 0.941145 6.70446 0.988689C6.67972 1.03623 6.66681 1.08904 6.66683 1.14264V4.44464L2.45616 5.84797C2.32336 5.8922 2.20785 5.97712 2.126 6.09067C2.04416 6.20422 2.00013 6.34066 2.00016 6.48064V12.6666H0.666829V14H15.3335V12.6666H14.0002ZM12.6668 12.6666H8.00016V2.56997L12.6668 4.2673V12.6666ZM3.3335 12.6666V6.9613L6.66683 5.84997V12.6666H3.3335Z" fill="#0847C2"/>
  </symbol>

  <symbol id="gorod-o" viewBox="0 0 16 14" fill="none" xmlns="http://www.w3.org/2000/svg">
    <path d="M1.99984 12.6666V3.79997C1.9998 3.66312 2.04187 3.52957 2.12035 3.41746C2.19883 3.30535 2.30991 3.22011 2.4385 3.1733L8.88584 0.829304C8.9362 0.810975 8.99024 0.805059 9.04338 0.81206C9.09651 0.81906 9.14718 0.83877 9.19107 0.869518C9.23497 0.900265 9.27081 0.941145 9.29554 0.988689C9.32028 1.03623 9.33319 1.08904 9.33317 1.14264V4.44464L13.5438 5.84797C13.6766 5.8922 13.7922 5.97712 13.874 6.09067C13.9558 6.20422 13.9999 6.34066 13.9998 6.48064V12.6666H15.3332V14H0.666504V12.6666H1.99984ZM3.33317 12.6666H7.99984V2.56997L3.33317 4.2673V12.6666ZM12.6665 12.6666V6.9613L9.33317 5.84997V12.6666H12.6665Z" fill="#0847C2"/>
  </symbol>

  <symbol id="phone" viewBox="0 0 14 20" fill="none" xmlns="http://www.w3.org/2000/svg">
    <path d="M2 2V18H12V2H2ZM1 0H13C13.2652 0 13.5196 0.105357 13.7071 0.292893C13.8946 0.48043 14 0.734784 14 1V19C14 19.2652 13.8946 19.5196 13.7071 19.7071C13.5196 19.8946 13.2652 20 13 20H1C0.734784 20 0.48043 19.8946 0.292893 19.7071C0.105357 19.5196 0 19.2652 0 19V1C0 0.734784 0.105357 0.48043 0.292893 0.292893C0.48043 0.105357 0.734784 0 1 0ZM7 15C7.26522 15 7.51957 15.1054 7.70711 15.2929C7.89464 15.4804 8 15.7348 8 16C8 16.2652 7.89464 16.5196 7.70711 16.7071C7.51957 16.8946 7.26522 17 7 17C6.73478 17 6.48043 16.8946 6.29289 16.7071C6.10536 16.5196 6 16.2652 6 16C6 15.7348 6.10536 15.4804 6.29289 15.2929C6.48043 15.1054 6.73478 15 7 15Z" fill="#0847C2"/>
  </symbol>

  <symbol id="ves" viewBox="0 0 14 12" fill="none" xmlns="http://www.w3.org/2000/svg">
    <path d="M13.6668 11.3333C13.6668 11.5101 13.5966 11.6797 13.4716 11.8047C13.3465 11.9298 13.177 12 13.0002 12H1.00016C0.823352 12 0.653782 11.9298 0.528758 11.8047C0.403734 11.6797 0.333496 11.5101 0.333496 11.3333V0.666667C0.333496 0.489856 0.403734 0.320286 0.528758 0.195262C0.653782 0.0702379 0.823352 0 1.00016 0H13.0002C13.177 0 13.3465 0.0702379 13.4716 0.195262C13.5966 0.320286 13.6668 0.489856 13.6668 0.666667V11.3333ZM6.3335 8H1.66683V10.6667H6.3335V8ZM12.3335 5.33333H7.66683V10.6667H12.3335V5.33333ZM6.3335 1.33333H1.66683V6.66667H6.3335V1.33333ZM12.3335 1.33333H7.66683V4H12.3335V1.33333Z" fill="#0847C2"/>
  </symbol>

  <symbol id="exit-icon" viewBox="0 0 40 40" xmlns="http://www.w3.org/2000/svg">
    <g clip-path="url(#clip0_203_1157)">
    <path fill-rule="evenodd" clip-rule="evenodd" d="M19 39C19 39.5523 19.4477 40 20 40C20.5523 40 21 39.5523 21 39V21H39C39.5523 21 40 20.5523 40 20C40 19.4477 39.5523 19 39 19H21V1C21 0.447715 20.5523 0 20 0C19.4477 0 19 0.447714 19 0.999999V19H1C0.447715 19 0 19.4477 0 20C0 20.5523 0.447714 21 0.999999 21H19V39Z"/>
    </g>
    <defs>
    <clipPath id="clip0_203_1157">
    <rect width="40" height="40" fill="white"/>
    </clipPath>
    </defs>
  </symbol>

  <symbol id="upper" viewBox="0 0 24 14" xmlns="http://www.w3.org/2000/svg">
    <path d="M10.9393 12.8974C11.5251 13.4832 12.4749 13.4832 13.0607 12.8974L22.6066 3.35146C23.1924 2.76567 23.1924 1.81592 22.6066 1.23014C22.0208 0.64435 21.0711 0.64435 20.4853 1.23014L12 9.71542L3.51472 1.23014C2.92893 0.64435 1.97919 0.64435 1.3934 1.23014C0.807612 1.81592 0.807612 2.76567 1.3934 3.35146L10.9393 12.8974ZM10.5 9.81633L10.5 11.8367L13.5 11.8367L13.5 9.81633L10.5 9.81633Z"/>
  </symbol>

</svg>
