<svg width="174" height="53" viewBox="0 0 174 53" fill="none" xmlns="http://www.w3.org/2000/svg">
<g clip-path="url(#clip0_113_807)">
<path d="M25.0792 4.61646H10.3694C4.40419 4.61646 -0.443848 9.48974 -0.443848 15.4806V30.2724C-0.443848 36.2633 4.40419 41.1366 10.3694 41.1366H25.0792C31.039 41.1366 35.8871 36.2633 35.8871 30.2724V15.4806C35.8871 9.48974 31.039 4.61646 25.0792 4.61646Z" fill="white"/>
<path d="M29.1895 27.3655L29.1788 27.5267C29.1254 28.1607 28.7299 28.8001 28.0777 28.8001C27.5753 28.8001 27.1744 28.6121 26.843 28.2306C26.4475 27.7739 26.0947 27.2258 25.7312 26.2265C26.7521 22.7501 29.8951 11.6173 29.8951 11.6173H23.9299C23.9299 11.6173 23.3794 14.2286 22.8823 16.6035C22.8555 16.5444 22.8342 16.4906 22.8074 16.4315C22.3103 15.3623 21.5193 14.1749 20.632 13.3421C19.0926 11.8914 17.2859 11.1821 15.1051 11.1821C12.0958 11.1821 9.54615 12.2997 7.53103 14.5134C5.5266 16.7109 4.46826 19.5264 4.46826 22.6588C4.46826 26.1459 5.47315 29.015 7.4562 31.175C9.52476 33.4316 11.9942 34.4793 15.2334 34.4793C17.1202 34.4793 18.9215 33.9152 20.5892 32.8083C21.6689 32.0937 22.6524 31.0997 23.5825 29.8156C23.9727 31.0836 24.3682 31.954 24.8386 32.6042C25.5976 33.6519 26.7415 34.2537 27.9655 34.2537C29.1895 34.2537 30.4082 33.5982 31.0015 32.5397C31.5307 31.5994 31.7445 30.4389 31.7445 28.5261V27.3655H29.1788H29.1895ZM19.1941 29.5899C18.2908 30.9224 17.1095 31.6209 15.7786 31.6209C14.2285 31.6209 13.0579 30.9224 12.1973 29.4825C11.294 27.9727 10.8343 25.7107 10.8343 22.7555C10.8343 20.0475 11.3207 17.893 12.2775 16.3563C13.1755 14.911 14.3033 14.2394 15.8267 14.2394C17.179 14.2394 18.2373 14.8035 19.1567 16.0232C20.1402 17.3288 20.9741 19.4887 21.5674 22.2612C20.819 26.0115 20.0868 28.2789 19.1995 29.5846" fill="#030E24"/>
<path d="M54.0766 12.1493C53.665 10.2849 52.4944 8.97925 49.9234 8.97925C47.5074 8.97925 46.1818 10.2795 45.7702 12.1493L43.9048 20.5956H45.8985C46.3529 20.5956 46.8072 20.2303 46.9034 19.7843L47.2829 18.0649H52.5693L52.9488 19.7843C53.045 20.2303 53.4993 20.5956 53.9536 20.5956H55.9474L54.0819 12.1493M47.8067 15.6847L48.4642 12.692C48.5711 12.2084 48.9453 11.4669 49.9288 11.4669C50.9123 11.4669 51.2864 12.2084 51.3933 12.692L52.0508 15.6847H47.8121H47.8067Z" fill="white"/>
<path d="M60.8596 11.8002H65.3067V20.5958H68.0595V9.25342H59.7531C58.8444 9.25342 58.1015 10.0003 58.1015 10.9137V16.6466C58.1015 17.415 57.7487 17.9039 57.1393 18.0221L56.5728 18.1564L57.0859 20.5904H57.6097C59.4912 20.5904 60.8542 19.1827 60.8542 16.781V11.7948" fill="white"/>
<path d="M92.0003 9.25339H90.9954V7.93701H89.0658C88.6115 7.93701 88.2373 8.30775 88.2373 8.76445V9.25339H87.2324C83.8276 9.25339 81.7002 11.5853 81.7002 14.9219C81.7002 18.2585 83.8276 20.5957 87.2324 20.5957H88.2373V21.9712H90.1669C90.6212 21.9712 90.9954 21.5951 90.9954 21.1438V20.5957H92.0003C95.4051 20.5957 97.5325 18.2639 97.5325 14.9219C97.5325 11.5799 95.4051 9.25339 92.0003 9.25339ZM87.2378 18.0919C85.3509 18.0919 84.4583 16.8938 84.4583 14.9219C84.4583 12.95 85.3509 11.7572 87.2378 11.7572H88.2426V18.0866H87.2378V18.0919ZM92.0003 18.0919H90.9954V11.7626H92.0003C93.8871 11.7626 94.7744 12.9607 94.7744 14.9273C94.7744 16.8938 93.8818 18.0973 92.0003 18.0973" fill="white"/>
<path d="M76.6066 12.1333H72.6512V9.25879H69.8984V19.7683C69.8984 20.225 70.2726 20.6011 70.7269 20.6011H76.6066C79.0066 20.6011 80.8132 18.7851 80.8132 16.3672C80.8132 13.9494 79.2952 12.1333 76.6066 12.1333ZM76.6066 18.0543H72.6512V14.6801H76.6066C77.2801 14.6801 78.0605 15.2819 78.0605 16.3672C78.0605 17.4526 77.2747 18.0543 76.6066 18.0543Z" fill="white"/>
<path d="M107.806 12.1493C107.395 10.2849 106.224 8.97925 103.653 8.97925C101.237 8.97925 99.9113 10.2795 99.4997 12.1493L97.6343 20.5956H99.628C100.082 20.5956 100.537 20.2303 100.633 19.7843L101.012 18.0649H106.299L106.673 19.7843C106.769 20.2303 107.223 20.5956 107.678 20.5956H109.672L107.806 12.1493ZM101.531 15.6847L102.183 12.692C102.29 12.2084 102.664 11.4669 103.648 11.4669C104.631 11.4669 105.005 12.2084 105.112 12.692L105.77 15.6847H101.531Z" fill="white"/>
<path d="M123.772 30.6323C124.258 30.1541 124.568 29.4986 124.568 28.5905C124.568 26.5811 123.018 25.1733 121.019 25.1733H114.284C113.83 25.1733 113.456 25.5441 113.456 26.0008V35.6829C113.456 36.1396 113.83 36.5157 114.284 36.5157H121.441C123.553 36.5157 124.953 35.0005 124.953 32.991C124.953 31.9809 124.477 31.1857 123.772 30.6323ZM121.019 27.5267C121.382 27.5267 121.885 27.9404 121.885 28.6443C121.885 29.3481 121.382 29.7189 121.019 29.7619H116.16V27.5267H121.019ZM121.238 34.1623H116.16V31.9272H121.238C121.607 31.9701 122.104 32.3355 122.104 33.0447C122.104 33.754 121.607 34.1623 121.238 34.1623Z" fill="white"/>
<path d="M105.577 24.9102C102.172 24.9102 99.7935 27.3495 99.7935 30.8419C99.7935 34.3344 102.172 36.7737 105.577 36.7737H106.518C109.922 36.7737 112.301 34.3344 112.301 30.8419C112.301 27.3495 109.922 24.9102 106.518 24.9102H105.577ZM102.765 30.8419C102.765 28.8109 103.845 27.2528 105.743 27.2528H106.352C108.249 27.2528 109.329 28.8056 109.329 30.8419C109.329 32.8783 108.249 34.4311 106.352 34.4311H105.743C103.845 34.4311 102.765 32.8729 102.765 30.8419Z" fill="white"/>
<path d="M54.1674 25.168L54.5309 26.8819C54.6271 27.3387 55.0761 27.7148 55.5304 27.7148H58.0961V36.5103H60.8489V27.7148H63.3343C63.7887 27.7148 64.2377 27.344 64.3339 26.8819L64.6974 25.168H54.1567" fill="white"/>
<path d="M146.959 25.168V29.6759H141.598V25.168H138.845V36.5157H141.598V32.1045H146.959V36.5157H149.712V25.168H146.959Z" fill="white"/>
<path d="M86.2275 28.0695C85.8159 26.1997 84.6453 24.8994 82.0743 24.8994C79.6583 24.8994 78.3327 26.1997 77.9211 28.0695L76.0557 36.5158H78.0494C78.5037 36.5158 78.9581 36.1504 79.0543 35.7045L79.4284 33.9851H84.7148L85.0889 35.7045C85.1852 36.1504 85.6395 36.5158 86.0938 36.5158H88.0876L86.2221 28.0695M79.9523 31.6049L80.6097 28.6121C80.7166 28.1286 81.0908 27.3871 82.0743 27.3871C83.0578 27.3871 83.432 28.1286 83.5389 28.6121L84.1963 31.5995H79.9576L79.9523 31.6049Z" fill="white"/>
<path d="M135.761 28.0695C135.35 26.1997 134.179 24.8994 131.608 24.8994C129.192 24.8994 127.866 26.1997 127.455 28.0695L125.589 36.5158H127.583C128.037 36.5158 128.492 36.1504 128.588 35.7045L128.967 33.9851H134.254L134.633 35.7045C134.73 36.1504 135.184 36.5158 135.638 36.5158H137.637L135.772 28.0695M129.497 31.6049L130.154 28.6121C130.261 28.1286 130.635 27.3871 131.619 27.3871C132.602 27.3871 132.976 28.1286 133.083 28.6121L133.741 31.5995H129.502L129.497 31.6049Z" fill="white"/>
<path d="M55.0281 36.4834V36.5157H49.6455C46.385 36.5157 44.1133 34.1838 44.1133 30.8418C44.1133 27.4998 46.3903 25.1733 49.6455 25.1733H53.7292L53.3283 26.9088C53.2267 27.3548 52.7724 27.7148 52.3181 27.7148H49.6455C47.903 27.7148 46.866 29.0204 46.866 30.8418C46.866 32.6633 47.903 33.9689 49.6455 33.9689H53.6223C54.0766 33.9689 54.531 34.3343 54.6325 34.7802L55.0227 36.4834" fill="white"/>
<path d="M72.0895 25.168H66.2098C65.7555 25.168 65.3813 25.5441 65.3813 26.0008V36.5157H68.1341V33.6358H72.0841C74.7781 33.6358 76.2961 31.8143 76.2961 29.4019C76.2961 26.9894 74.4841 25.168 72.0841 25.168M72.0841 31.089H68.1341V27.7201H72.0841C72.7576 27.7201 73.5434 28.3219 73.5434 29.4072C73.5434 30.4926 72.7576 31.0944 72.0841 31.0944" fill="white"/>
<path d="M173.065 34.1193H167.132V31.9433H173.583V29.7565H167.132V27.5697H173.065C173.551 27.5697 173.941 27.3548 174.075 26.7584L174.444 25.1733H165.207C164.753 25.1733 164.379 25.5441 164.379 26.0062V35.6882C164.379 36.1449 164.753 36.5211 165.207 36.5211H174.444L174.075 34.936C173.941 34.3396 173.557 34.1247 173.065 34.1247" fill="white"/>
<path d="M151.604 36.5157V25.1733H154.357V32.6579L159.13 25.845C159.397 25.4796 159.991 25.1787 160.445 25.1787H162.487V36.5211H159.734V29.0365L154.961 35.8494C154.693 36.2148 154.1 36.5211 153.646 36.5211H151.604" fill="white"/>
<path d="M96.4045 30.7827L100.248 25.1733H97.7195C97.1742 25.1733 96.7894 25.3399 96.4526 25.8718L94.4055 29.1064H94.042L91.9895 25.8718C91.6527 25.3399 91.2679 25.1733 90.7173 25.1733H88.1089L92.0376 30.9063L88.1944 36.5157H90.7227C91.2732 36.5157 91.6581 36.3491 91.9948 35.8172L94.0473 32.5827H94.4108L96.458 35.8172C96.7947 36.3491 97.1796 36.5157 97.7248 36.5157H100.339L96.4099 30.7827" fill="white"/>
<path d="M44.3379 45.1716C44.3379 43.7048 45.3161 42.3777 47.0105 42.3777C47.7 42.3777 48.1436 42.5335 48.5445 42.7914L48.1864 43.3394C47.8764 43.1299 47.4969 42.9902 46.9944 42.9902C45.7437 42.9902 45.1076 44.0164 45.1076 45.1555C45.1076 46.2946 45.7223 47.3799 47.0105 47.3799C47.5931 47.3799 48.01 47.1865 48.3147 46.9232L48.6407 47.4444C48.3628 47.7077 47.7588 47.9978 46.9944 47.9978C45.284 47.9978 44.3379 46.6385 44.3379 45.1716Z" fill="white"/>
<path d="M49.667 42.4744H52.5159V43.0923H50.3993V44.731H52.254V45.3435H50.3993V47.2832H52.5694V47.9011H49.667V42.4744Z" fill="white"/>
<path d="M53.7881 42.4744H55.2206C56.3323 42.4744 57.1555 43.0063 57.1555 44.0701C57.1555 45.134 56.4018 45.7573 55.1297 45.7573H54.5203V47.9011H53.7827V42.4744H53.7881ZM55.135 45.1555C56.033 45.1555 56.4072 44.7901 56.4072 44.0863C56.4072 43.4845 56.0651 43.0761 55.1564 43.0761H54.5257V45.1555H55.135Z" fill="white"/>
<path d="M58.2617 42.4744H59.7637C60.7686 42.4744 61.5543 42.8397 61.5543 43.8284C61.5543 44.4785 61.1802 44.8815 60.5922 45.0373V45.0534C61.2497 45.1662 61.7895 45.6337 61.7895 46.3805C61.7895 47.4873 60.9557 47.9064 59.737 47.9064H58.2617V42.4797V42.4744ZM59.6889 44.7901C60.4693 44.7901 60.806 44.5053 60.806 43.8928C60.806 43.3233 60.4265 43.0708 59.7049 43.0708H58.994V44.7901H59.6889ZM59.7209 47.31C60.6136 47.31 61.0252 47.0306 61.0252 46.3805C61.0252 45.7304 60.6938 45.3704 59.7691 45.3704H58.9887V47.31H59.7156H59.7209Z" fill="white"/>
<path d="M62.9497 42.4744H63.6285V46.1011C63.6285 46.5095 63.6072 46.762 63.5965 46.8587H63.6125C63.7034 46.7136 63.8637 46.4289 64.131 46.0366L66.547 42.4744H67.2739V47.9011H66.6004V44.0379C66.6004 43.7585 66.6272 43.5167 66.6272 43.42H66.6111C66.5203 43.5758 66.3546 43.8767 66.1728 44.1454L63.6285 47.9011H62.9497V42.4744Z" fill="white"/>
<path d="M68.4497 45.1716C68.4497 43.7048 69.4279 42.3777 71.1223 42.3777C71.8118 42.3777 72.2555 42.5335 72.6563 42.7914L72.2982 43.3394C71.9882 43.1299 71.6087 42.9902 71.1062 42.9902C69.8555 42.9902 69.2194 44.0164 69.2194 45.1555C69.2194 46.2946 69.8341 47.3799 71.1223 47.3799C71.7049 47.3799 72.1218 47.1865 72.4265 46.9232L72.7525 47.4444C72.4746 47.7077 71.8706 47.9978 71.1062 47.9978C69.3958 47.9978 68.4497 46.6385 68.4497 45.1716Z" fill="white"/>
<path d="M75.5586 42.4744H78.616V43.0923H76.2962V44.6397H77.1568C78.2579 44.6397 79.0864 45.1609 79.0864 46.2193C79.0864 47.2778 78.3327 47.8957 77.0606 47.8957H75.5586V42.469V42.4744ZM77.0606 47.2993C77.9693 47.2993 78.3434 46.9232 78.3434 46.2462C78.3434 45.6498 77.996 45.2468 77.098 45.2468H76.3016V47.2993H77.0606Z" fill="white"/>
<path d="M80.0328 47.8688L80.129 47.3047C80.1932 47.3208 80.284 47.3315 80.3856 47.3315C80.8292 47.3315 81.0912 47.0629 81.3424 46.4826L81.4813 46.171L79.8511 42.469H80.5566L81.8395 45.3811L83.1116 42.469H83.8172L81.9464 46.7459C81.5722 47.5948 81.1286 47.9118 80.3909 47.9118C80.2359 47.9118 80.1076 47.8957 80.0328 47.8635" fill="white"/>
<path d="M83.7583 47.2832H84.1859C84.6082 46.9232 84.7685 46.4289 84.8754 45.2683L85.1427 42.4744H88.2803V47.2832H88.8308L88.6598 49.0778H88.1574L88.0986 47.9064H84.4692L84.357 49.0778H83.8545L83.7583 47.2832ZM87.5427 47.2832V43.0923H85.8162L85.597 45.3919C85.5008 46.4342 85.287 46.9715 84.9984 47.2832H87.5427Z" fill="white"/>
<path d="M89.7286 47.8688L89.8248 47.3047C89.889 47.3208 89.9798 47.3315 90.0814 47.3315C90.525 47.3315 90.787 47.0629 91.0382 46.4826L91.1771 46.171L89.5469 42.469H90.2524L91.5353 45.3811L92.8074 42.469H93.513L91.6422 46.7459C91.268 47.5948 90.8244 47.9118 90.0867 47.9118C89.9317 47.9118 89.8034 47.8957 89.7286 47.8635" fill="white"/>
<path d="M100.846 47.9011H94.4375V42.4744H95.1751V47.2832H97.3666V42.4744H98.0936V47.2832H100.285V42.4744H101.023V47.2832H101.584L101.402 49.0724H100.9L100.846 47.9011Z" fill="white"/>
<path d="M102.707 42.4744H105.555V43.0923H103.439V44.731H105.294V45.3435H103.439V47.2832H105.609V47.9011H102.707V42.4744Z" fill="white"/>
<path d="M106.828 42.4744H109.73V43.0869H107.565V47.9011H106.828V42.4744Z" fill="white"/>
<path d="M110.174 45.1985C110.174 43.7048 111.152 42.3777 112.846 42.3777C114.541 42.3777 115.53 43.6887 115.53 45.1824C115.53 46.6761 114.551 48.0032 112.862 48.0032C111.173 48.0032 110.174 46.6814 110.174 45.1985ZM114.755 45.1985C114.755 44.0164 114.113 42.9902 112.868 42.9902C111.622 42.9902 110.949 44.0003 110.949 45.1824C110.949 46.3644 111.606 47.3907 112.852 47.3907C114.097 47.3907 114.755 46.3806 114.755 45.1985Z" fill="white"/>
<path d="M118.475 42.4744H119.972C120.977 42.4744 121.762 42.8397 121.762 43.8284C121.762 44.4785 121.388 44.8815 120.795 45.0373V45.0534C121.452 45.1662 121.992 45.6337 121.992 46.3805C121.992 47.4873 121.158 47.9064 119.94 47.9064H118.464V42.4797L118.475 42.4744ZM119.902 44.7901C120.683 44.7901 121.019 44.5053 121.019 43.8928C121.019 43.3233 120.64 43.0708 119.918 43.0708H119.207V44.7901H119.902ZM119.934 47.31C120.827 47.31 121.238 47.0306 121.238 46.3805C121.238 45.7304 120.907 45.3704 119.982 45.3704H119.202V47.31H119.929H119.934Z" fill="white"/>
<path d="M124.937 42.4744H125.675V44.7418H128.598V42.4744H129.336V47.9011H128.598V45.3596H125.675V47.9011H124.937V42.4744Z" fill="white"/>
<path d="M132.319 42.4744H133.024L135.109 47.9011H134.312L133.842 46.6223H131.442L130.977 47.9011H130.25L132.319 42.4744ZM133.617 46.0098L132.976 44.2582C132.805 43.8015 132.735 43.549 132.65 43.3233H132.634C132.559 43.5651 132.474 43.8445 132.319 44.2582L131.672 46.0098H133.617Z" fill="white"/>
<path d="M135.472 45.1716C135.472 43.7048 136.45 42.3777 138.15 42.3777C138.84 42.3777 139.283 42.5335 139.684 42.7914L139.326 43.3394C139.016 43.1299 138.636 42.9902 138.134 42.9902C136.889 42.9902 136.247 44.0164 136.247 45.1555C136.247 46.2946 136.862 47.3799 138.155 47.3799C138.738 47.3799 139.15 47.1865 139.46 46.9232L139.786 47.4444C139.508 47.7077 138.904 47.9978 138.139 47.9978C136.429 47.9978 135.483 46.6385 135.483 45.1716" fill="white"/>
<path d="M141.79 43.0923H140.262V42.4744H144.051V43.0923H142.528V47.9011H141.79V43.0923Z" fill="white"/>
<path d="M144.495 45.1985C144.495 43.7048 145.479 42.3777 147.173 42.3777C148.867 42.3777 149.856 43.6887 149.856 45.1824C149.856 46.6761 148.878 48.0032 147.189 48.0032C145.5 48.0032 144.5 46.6814 144.5 45.1985M149.081 45.1985C149.081 44.0164 148.44 42.9902 147.194 42.9902C145.949 42.9902 145.276 44.0003 145.276 45.1824C145.276 46.3644 145.933 47.3907 147.184 47.3907C148.434 47.3907 149.087 46.3806 149.087 45.1985" fill="white"/>
<path d="M150.519 47.2885H150.599C150.963 47.2885 151.182 46.8641 151.652 46.1817C151.887 45.8325 152.139 45.4886 152.315 45.3758V45.3596C151.487 45.3059 150.845 44.8492 150.845 43.9573C150.845 43.0224 151.524 42.4744 152.678 42.4744H154.213V47.9011H153.486V45.4456H153.266C152.919 45.4564 152.7 45.9023 152.229 46.5954C151.588 47.5465 151.332 47.9011 150.818 47.9011H150.535L150.519 47.2885ZM153.486 44.8707V43.0761H152.759C151.973 43.0761 151.599 43.3717 151.599 43.9466C151.599 44.5215 151.946 44.8653 152.711 44.8653H153.491L153.486 44.8707Z" fill="white"/>
<path d="M162.134 47.9011H155.73V42.4744H156.468V47.2832H158.654V42.4744H159.387V47.2832H161.573V42.4744H162.316V47.2832H162.872L162.695 49.0724H162.193L162.134 47.9011Z" fill="white"/>
<path d="M164 42.4744H166.843V43.0923H164.726V44.731H166.587V45.3435H164.726V47.2832H166.902V47.9011H164V42.4744Z" fill="white"/>
<path d="M168.521 42.4744H169.211L170.499 46.1011C170.654 46.5417 170.74 46.8104 170.83 47.0897H170.846C170.921 46.8265 171.018 46.5363 171.173 46.1011L172.471 42.4744H173.166L173.899 47.9011H173.161L172.717 44.4946C172.669 44.1024 172.642 43.8821 172.626 43.7263H172.61C172.562 43.9036 172.498 44.1346 172.375 44.4839L171.167 47.9011H170.456L169.227 44.4839C169.104 44.1346 169.034 43.9036 168.976 43.7263H168.96C168.944 43.9143 168.917 44.14 168.879 44.5107L168.468 47.9011H167.789L168.537 42.4744H168.521Z" fill="white"/>
</g>
<defs>
<clipPath id="clip0_113_807">
<rect width="174" height="53" fill="white"/>
</clipPath>
</defs>
</svg>
