<svg width="150" height="71" viewBox="0 0 150 71" fill="none" xmlns="http://www.w3.org/2000/svg">
<g clip-path="url(#clip0_85_333)">
<path fill-rule="evenodd" clip-rule="evenodd" d="M122.876 43.1756C122.287 43.1756 121.811 42.7343 121.811 42.1916C121.811 42.1779 121.811 42.1642 121.811 42.1533V25.4728L121.817 25.4071C121.872 24.911 122.326 24.5273 122.873 24.5273C123.421 24.5273 123.875 24.911 123.93 25.4071L123.936 25.4728V42.1533C123.936 42.1533 123.936 42.1779 123.936 42.1916C123.936 42.7343 123.46 43.1756 122.876 43.1756ZM124.863 21.4658H120.884C117.52 21.4658 117.321 24.1573 117.321 25.8922V41.8107C117.321 43.5456 117.52 46.237 120.884 46.237H124.863C128.224 46.237 128.432 43.5456 128.432 41.8107V25.8922C128.432 24.1573 128.224 21.4658 124.863 21.4658Z" fill="white"/>
<path fill-rule="evenodd" clip-rule="evenodd" d="M50.001 21.4658H59.1612V24.541H54.801V46.2398H50.001V21.4658Z" fill="white"/>
<path fill-rule="evenodd" clip-rule="evenodd" d="M59.8721 46.2398H64.5698L65.0152 39.6537H67.2838L67.7292 46.2398H72.4297L69.9232 21.4658H62.3786L59.8721 46.2398ZM65.1867 36.9321L66.0139 24.541H66.2851L67.1095 36.9321H65.1867Z" fill="white"/>
<path fill-rule="evenodd" clip-rule="evenodd" d="M79.3019 37.5652V42.2246C79.3019 42.8632 79.7805 43.0468 80.0571 43.0468C80.5053 43.0468 80.8152 42.6549 80.8152 42.2246V36.4662C80.8152 35.6878 80.6769 34.8382 78.8896 34.8382H76.9364V32.1138H78.956C80.3283 32.1138 80.8152 31.7932 80.8152 30.2775V25.3496C80.8152 24.9247 80.5053 24.541 80.0571 24.541C79.7805 24.541 79.3019 24.7137 79.3019 25.3496V29.3922H74.499V25.8895C74.499 24.1546 74.7065 21.4631 78.0652 21.4631H82.0519C85.4133 21.4631 85.618 24.1546 85.618 25.8895V29.8527C85.618 32.5414 83.7976 33.2814 82.359 33.2101V33.4595C85.5848 33.3855 85.618 35.9345 85.618 36.8252V41.808C85.618 43.5429 85.4161 46.2343 82.0519 46.2343H78.0652C74.7065 46.2343 74.499 43.5429 74.499 41.808V37.5625H79.3019V37.5652Z" fill="white"/>
<path fill-rule="evenodd" clip-rule="evenodd" d="M88.7778 21.4658H99.8885V46.2398H95.4094V24.541H93.2542V46.2398H88.7778V21.4658Z" fill="white"/>
<path fill-rule="evenodd" clip-rule="evenodd" d="M103.366 46.2397H108.169V37.8173H110.914C114.278 37.8173 114.812 35.1231 114.812 33.3909V25.8949C114.812 24.16 114.278 21.4685 110.914 21.4685H103.366V46.2424V46.2397ZM108.169 35.0875V24.5409H109.431C109.951 24.5409 110.327 24.9986 110.327 25.7743V33.8541C110.327 34.6297 109.951 35.0875 109.431 35.0875H108.169Z" fill="white"/>
<path fill-rule="evenodd" clip-rule="evenodd" d="M143.758 21.4658H150V46.2398H145.197V30.7023H145.028L142.552 46.2398H138.718L136.244 30.7023H136.073V46.2398H131.267V21.4658H137.509L140.629 38.8753L143.758 21.4658Z" fill="white"/>
<path fill-rule="evenodd" clip-rule="evenodd" d="M39.7563 23.9846C39.6982 26.4952 39.3939 29.1455 39.0121 30.7297C39.1504 27.9998 38.8184 24.149 38.1821 21.1424C37.5486 18.133 35.7558 13.1174 34.3227 10.7905C33.0003 13.005 31.3707 17.3492 30.5186 21.1177C29.661 24.8918 29.6361 29.4525 29.6361 30.8201C29.4092 29.6608 28.8421 25.5551 29.0025 21.4192C29.1353 18.007 29.9432 14.507 30.3831 12.8954C32.0652 7.51523 33.9686 4.07555 34.3255 3.53013C34.6851 4.07555 37.0838 8.31006 38.326 12.7611C39.5627 17.2176 39.8117 21.4768 39.7591 23.9901L39.7563 23.9846ZM34.3531 43.2057C35.1223 41.786 36.4419 38.6725 36.334 34.7175C36.1708 30.6776 34.7903 27.723 34.3753 27.0132C33.9077 27.7203 32.3086 31.1134 32.3363 35.0738C32.4442 39.1631 33.6062 41.8134 34.3531 43.203V43.2057ZM40.1962 12.8104C38.6801 6.22706 34.8733 0.877051 34.3531 0C33.5232 1.23061 30.4854 5.95298 28.9472 11.1988C27.2651 17.0449 27.0161 22.2332 27.5971 27.3421C28.1725 32.4481 30.3554 37.694 30.3554 37.694C31.5146 40.4485 33.2493 43.3948 34.3753 44.842C36.0325 42.7124 39.8366 36.3565 41.0234 28.0519C41.6819 23.4364 41.7096 19.3938 40.1935 12.8104H40.1962Z" fill="white"/>
<path fill-rule="evenodd" clip-rule="evenodd" d="M25.0406 46.2343V54.0236C25.0406 54.0236 25.0599 53.999 25.071 53.988C27.8183 51.2801 32.2753 51.2801 35.0253 53.988C37.7725 56.6986 37.7725 61.1031 35.0253 63.811C35.0114 63.8247 35.0004 63.8329 34.9865 63.8439C34.9755 63.8603 34.9589 63.8713 34.945 63.885C32.2033 66.5682 28.6206 67.9167 25.0378 67.9167C21.4551 67.9167 17.8419 66.5545 15.0919 63.8521C10.2586 59.0749 9.68313 51.6885 13.3683 46.2974C13.869 45.5656 14.4389 44.8776 15.0919 44.2308C17.8419 41.5229 21.4385 40.1717 25.0378 40.1717V21.5974C11.2103 21.5974 0 32.662 0 46.2946C0 59.9273 11.2103 71 25.0406 71C32.2531 71 38.7464 67.9907 43.314 63.1806V46.2316H25.0406V46.2343Z" fill="white"/>
<path fill-rule="evenodd" clip-rule="evenodd" d="M145.521 65.1538C145.521 67.5082 144.436 67.9248 141.684 67.9248H139.147V57.1727H141.684V61.3222H142.101C144.594 61.3222 145.521 61.8978 145.521 64.0493V65.1566V65.1538ZM124.362 59.2036H122.439V67.933H120.029V59.2036H117.971V57.1617H124.362V59.2036ZM104.86 64.0904C104.86 66.2748 103.731 66.8613 101.239 66.8613V67.922H98.7708V66.8613C96.2697 66.8613 95.1354 66.2721 95.1354 64.0904V60.7329C95.1354 58.5376 96.2227 57.9812 98.7708 57.9812V57.1754H101.239V57.9812C103.773 57.9812 104.86 58.5403 104.86 60.7329V64.0904ZM81.8806 59.2036H78.414V61.3167H81.5182V63.3586H78.414V65.8911H81.8806V67.933H75.7941V57.1617H81.8806V59.2036ZM60.8572 67.9248H58.3229V63.2188H57.0171V67.9248H54.4801V57.1727H57.0171V61.3222H58.3229V57.1727H60.8572V67.9248ZM150 54.4922H50.001V71.0027H150.003V54.4922H150ZM97.6005 60.6617V64.1069C97.6005 64.7345 97.8052 64.8798 98.3668 64.8798H98.7735V59.8696H98.3668C97.8052 59.8696 97.6005 60.0286 97.6005 60.659V60.6617ZM101.629 59.8723H101.239V64.8825H101.629C102.193 64.8825 102.398 64.7263 102.398 64.0932V60.6343C102.398 60.0012 102.193 59.8723 101.629 59.8723ZM142.242 63.2216H141.681V66.0336H142.242C142.812 66.0336 142.984 65.8884 142.984 65.2744V63.9808C142.984 63.3641 142.812 63.2243 142.242 63.2243V63.2216Z" fill="white"/>
</g>
<defs>
<clipPath id="clip0_85_333">
<rect width="150" height="71" fill="white"/>
</clipPath>
</defs>
</svg>
