<svg width="40" height="66" viewBox="0 0 40 66" fill="none" xmlns="http://www.w3.org/2000/svg">
<rect width="40" height="66" fill="#0847C2"/>
<path d="M5 24C5 22.3431 6.34315 21 8 21H32C33.6569 21 35 22.3431 35 24V41C35 42.6569 33.6569 44 32 44H8C6.34315 44 5 42.6569 5 41V24Z" fill="#FFCD01"/>
<path fill-rule="evenodd" clip-rule="evenodd" d="M32 22H8C6.89543 22 6 22.8954 6 24V41C6 42.1046 6.89543 43 8 43H32C33.1046 43 34 42.1046 34 41V24C34 22.8954 33.1046 22 32 22ZM8 21C6.34315 21 5 22.3431 5 24V41C5 42.6569 6.34315 44 8 44H32C33.6569 44 35 42.6569 35 41V24C35 22.3431 33.6569 21 32 21H8Z" fill="black"/>
<path d="M7 34.1695H8.51582V35.7134H12.8045V28H14.3203V35.7134C14.3203 35.8891 14.2784 36.0565 14.1946 36.2155C14.1157 36.3703 14.0073 36.5063 13.8693 36.6234C13.7362 36.7406 13.576 36.8326 13.3886 36.8996C13.2063 36.9665 13.0115 37 12.8045 37H8.51582C8.30878 37 8.1116 36.9665 7.92428 36.8996C7.74189 36.8326 7.58168 36.7406 7.44366 36.6234C7.31056 36.5063 7.20211 36.3703 7.11831 36.2155C7.03944 36.0565 7 35.8891 7 35.7134V34.1695Z" fill="black"/>
<path d="M15.2307 28H23.7119V29.2866H20.2292V37H18.7134V29.2866H15.2307V28Z" fill="black"/>
<path d="M31.5285 32.3054C31.7504 32.364 31.9525 32.4477 32.1349 32.5565C32.3173 32.6653 32.4725 32.8054 32.6007 32.977C32.7289 33.1444 32.8275 33.3431 32.8965 33.5732C32.9655 33.8033 33 34.0669 33 34.364V34.8159C33 36.272 32.1423 37 30.4268 37H24.6223V28H30.1236C31.8391 28 32.6968 28.7301 32.6968 30.1904V30.3536C32.6968 30.8598 32.6007 31.2741 32.4085 31.5962C32.2211 31.9142 31.9278 32.1506 31.5285 32.3054ZM26.1085 33.0774V35.7385H30.3824C30.7817 35.7385 31.0701 35.659 31.2476 35.5C31.425 35.341 31.5138 35.0921 31.5138 34.7531V34.0565C31.5138 33.7134 31.425 33.4644 31.2476 33.3096C31.0701 33.1548 30.7817 33.0774 30.3824 33.0774H26.1085ZM26.1085 29.2615V31.8222H30.1828C30.5476 31.8096 30.8088 31.7259 30.9666 31.5711C31.1293 31.4121 31.2106 31.1695 31.2106 30.8431V30.2531C31.2106 29.91 31.1219 29.659 30.9444 29.5C30.7669 29.341 30.4786 29.2615 30.0793 29.2615H26.1085Z" fill="black"/>
<path fill-rule="evenodd" clip-rule="evenodd" d="M7 33.633H9.26918V35.0427H12.6259V28H14.8951V35.434C14.8951 35.6613 14.837 35.8776 14.7255 36.0778C14.6234 36.2658 14.4845 36.4286 14.3138 36.5656C14.1431 36.7065 13.9442 36.8121 13.7238 36.8865C13.5017 36.9631 13.2682 37 13.0259 37H8.86918C8.62624 37 8.39098 36.9629 8.16568 36.887L8.16254 36.886C7.94593 36.8111 7.74933 36.7057 7.57686 36.5678L7.57409 36.5656L7.57137 36.5634C7.40685 36.427 7.27097 36.2669 7.16598 36.0841L7.16241 36.0779L7.15908 36.0716C7.05399 35.872 7 35.6579 7 35.434V33.633ZM14.0579 36.2649C14.1917 36.1579 14.2968 36.0337 14.3732 35.8924C14.4545 35.7472 14.4951 35.5944 14.4951 35.434V28.3913H13.0259V35.434H8.86918V34.0243H7.4V35.434C7.4 35.5944 7.43822 35.7472 7.51467 35.8924C7.59589 36.0337 7.701 36.1579 7.83 36.2649C7.96378 36.3718 8.11906 36.4559 8.29584 36.517C8.4774 36.5781 8.66851 36.6087 8.86918 36.6087H13.0259C13.2266 36.6087 13.4153 36.5781 13.5921 36.517C13.7736 36.4559 13.9289 36.3718 14.0579 36.2649ZM14.9774 28H23.9977V29.9573H20.6222V37H18.353V29.9573H14.9774V28ZM18.753 29.566V36.6087H20.2222V29.566H23.5977V28.3913H15.3774V29.566H18.753ZM30.6291 31.6519C30.4763 31.7933 30.223 31.8697 29.8695 31.8811H25.9206V29.5431H29.7691C30.1561 29.5431 30.4356 29.6157 30.6076 29.7609C30.7796 29.906 30.8656 30.1353 30.8656 30.4485V30.9872C30.8656 31.2852 30.7868 31.5067 30.6291 31.6519ZM26.3206 29.9344V31.4898H29.8626C30.1756 31.4788 30.3074 31.4109 30.3544 31.3675L30.355 31.367C30.4041 31.3217 30.4656 31.2222 30.4656 30.9872V30.4485C30.4656 30.2007 30.3987 30.1014 30.3463 30.0571C30.2831 30.0037 30.1221 29.9344 29.7691 29.9344H26.3206ZM24.0801 37V28H29.8121C30.688 28 31.4191 28.174 31.9362 28.5887C32.4686 29.0155 32.7062 29.6415 32.7062 30.3912V30.5402C32.7062 31.0512 32.6034 31.5067 32.3672 31.8802C32.2774 32.0235 32.1693 32.1507 32.0451 32.2624C32.2303 32.3788 32.3917 32.5229 32.5275 32.6938C32.6855 32.8885 32.8021 33.1138 32.8816 33.3635C32.9629 33.6189 33 33.9 33 34.2019V34.6145C33 35.3627 32.7621 35.9873 32.2296 36.4131C31.7126 36.8266 30.9816 37 30.106 37H24.0801ZM32.213 32.9355C32.0888 32.7789 31.9383 32.6509 31.7615 32.5516C31.7389 32.5389 31.7161 32.5266 31.6929 32.5147C31.5344 32.4331 31.3614 32.369 31.1738 32.3224C31.3592 32.2546 31.5211 32.1698 31.6593 32.0679C31.8097 31.9571 31.9321 31.8261 32.0267 31.6748C32.213 31.3807 32.3062 31.0025 32.3062 30.5402V30.3912C32.3062 29.0579 31.4748 28.3913 29.8121 28.3913H24.4801V36.6087H30.106C31.7687 36.6087 32.6 35.944 32.6 34.6145V34.2019C32.6 33.9307 32.5666 33.69 32.4997 33.4799C32.4328 33.2698 32.3372 33.0883 32.213 32.9355ZM25.9206 35.4569V33.0272H30.063C30.45 33.0272 30.7295 33.0979 30.9015 33.2392C31.0735 33.3806 31.1595 33.6079 31.1595 33.9211V34.5572C31.1595 34.8667 31.0735 35.094 30.9015 35.2391C30.7295 35.3843 30.45 35.4569 30.063 35.4569H25.9206ZM26.3206 33.4185V35.0656H30.063C30.416 35.0656 30.5769 34.9963 30.6402 34.9429C30.6936 34.8978 30.7595 34.7994 30.7595 34.5572V33.9211C30.7595 33.6725 30.6922 33.5783 30.6442 33.5388C30.5806 33.4865 30.4177 33.4185 30.063 33.4185H26.3206Z" fill="black"/>
</svg>
