<svg width="40" height="66" viewBox="0 0 40 66" fill="none" xmlns="http://www.w3.org/2000/svg">
<g clip-path="url(#clip0_117_1358)">
<path fill-rule="evenodd" clip-rule="evenodd" d="M0.0302734 0.0305634H39.9697V65.9683H0.0302734V0.0305634Z" fill="#0847C2"/>
<path fill-rule="evenodd" clip-rule="evenodd" d="M13.7127 14.4495C13.7614 14.4343 13.8166 14.4441 13.8674 14.4419C13.8187 14.9037 13.8101 15.3698 13.7841 15.8338C14.2287 15.7541 14.6711 15.6679 15.1124 15.574C15.2574 15.5456 15.4012 15.5085 15.5494 15.5128C15.4791 15.6264 15.4034 15.7366 15.3471 15.8589C15.2931 15.9768 15.2703 16.1056 15.2498 16.2334C15.65 16.2727 16.0502 16.3185 16.4483 16.3698C16.5294 16.3818 16.6127 16.3829 16.6906 16.4135C17.1535 16.5751 17.6468 16.6176 18.1346 16.6187C18.9437 16.6187 19.7506 16.503 20.5597 16.562C20.8258 16.5838 21.0929 16.622 21.3504 16.6962C21.465 16.8229 21.5537 16.9768 21.584 17.1471C21.6067 17.2847 21.6165 17.4244 21.6132 17.563C21.8804 17.6056 22.1508 17.7148 22.3325 17.9244C22.4645 18.075 22.537 18.2912 22.4731 18.4888C22.4093 18.6995 22.2233 18.8425 22.0297 18.9265C21.9583 18.9648 21.8761 18.9484 21.7993 18.9538C21.398 18.9669 20.9923 18.9833 20.6019 19.0837C20.511 19.1056 20.4234 19.1383 20.3336 19.1613C20.3314 19.265 20.3509 19.3687 20.3747 19.4691C20.8409 19.4658 21.3082 19.4855 21.7733 19.5073C21.8696 19.9691 21.663 20.5106 21.2281 20.7202C20.9458 20.8621 20.6019 20.7988 20.3488 20.623C19.9799 20.6492 19.61 20.6667 19.2422 20.7038C18.9707 20.7289 18.7046 20.7868 18.4385 20.8414C18.3141 21.1394 18.0167 21.3097 17.7268 21.4123C17.1914 21.5946 16.6192 21.6197 16.0589 21.6405C15.9442 22.5367 15.9518 23.4439 15.9864 24.3446C15.9994 24.8326 16.0329 25.3195 16.0351 25.8074C16.6516 25.7354 17.2703 25.6448 17.8923 25.6874C18.4007 25.7146 18.8972 25.838 19.3882 25.9657C19.9853 25.5629 20.6322 25.2409 21.2898 24.9516C21.4802 24.8751 21.6641 24.7758 21.8674 24.7354C22.9631 24.469 24.0913 24.3642 25.2163 24.3358C27.292 24.2878 29.3623 24.4963 31.4369 24.4941C31.5689 24.4909 31.6998 24.5007 31.8306 24.5127C31.7441 24.8216 31.5332 25.0705 31.3298 25.3096C31.3125 25.3304 31.2887 25.3402 31.2649 25.35C30.9718 25.4526 30.6754 25.5476 30.378 25.6382C30.1919 25.7005 29.9972 25.743 29.8252 25.8413C29.9453 25.9777 30.1227 26.0269 30.2849 26.0891C30.22 26.3151 30.0362 26.4799 29.8317 26.5782C29.1849 26.8882 28.4429 26.8729 27.7809 27.136C27.6024 27.2124 27.4164 27.3292 27.3558 27.5268C27.4174 27.5716 27.4769 27.6218 27.5451 27.6567C27.6554 27.7135 27.7776 27.7419 27.8923 27.7878C27.5224 27.946 27.1362 28.0716 26.7392 28.1349C26.1119 28.2419 25.4715 28.2113 24.8431 28.136C24.0026 28.0345 23.1708 27.8631 22.325 27.8129C22.1075 27.7856 21.9096 27.9013 21.7052 27.9581C21.7582 28.0912 21.8371 28.2135 21.889 28.3489C22.0859 28.8139 22.2092 29.3063 22.3055 29.8008C22.5262 30.9908 22.5878 32.2025 22.6278 33.4088C22.6343 33.5311 22.6105 33.6632 22.6722 33.7746C23.0984 34.5857 23.4369 35.4448 23.6814 36.3302C23.8728 37.0212 24.0091 37.7275 24.1011 38.4393C24.1162 38.5736 24.1724 38.6981 24.2179 38.8236C24.4028 39.293 24.6981 39.7068 24.9902 40.1118C25.0605 40.2199 25.1578 40.3137 25.1903 40.4415C25.4694 41.222 25.6175 42.0419 25.809 42.8465C25.8415 42.9218 25.8945 42.9862 25.9366 43.0572C26.2925 43.6194 26.6473 44.1827 26.9923 44.7514C27.094 45.0942 27.2638 45.4108 27.4488 45.7143C27.7073 46.1423 27.9972 46.5494 28.2449 46.9839C28.4115 47.2907 28.59 47.6204 28.5662 47.9817C28.3682 48.0298 28.2103 48.1695 28.0556 48.2961C27.8836 48.4534 27.7084 48.6127 27.5851 48.8125C26.935 48.8136 26.286 48.7983 25.6359 48.8049C25.5883 48.5429 25.5537 48.2787 25.5083 48.0167C25.4737 47.818 25.438 47.6171 25.3525 47.4326C25.0832 47.497 24.8085 47.5494 24.5316 47.544C24.3044 47.544 24.0675 47.4959 23.8804 47.3606C23.7225 47.2503 23.6154 47.08 23.5581 46.8977C23.3147 47.0265 23.0746 47.1695 22.8085 47.247C22.4731 47.3464 22.1205 47.3136 21.7776 47.2951C21.4964 46.6586 21.2249 46.0167 20.9599 45.3715C20.7793 45.2471 20.5986 45.1226 20.418 45.0003C20.2968 44.9305 20.2287 44.8028 20.1465 44.6958C19.8479 44.2798 19.6446 43.794 19.2812 43.4283C19.0746 43.21 18.8193 43.0441 18.5467 42.9207C18.5262 42.913 18.5099 42.9 18.4969 42.8836C18.2482 42.5179 18.0199 42.127 17.6889 41.829C17.4001 41.5746 17.0194 41.4786 16.6549 41.3923C16.3985 41.3312 16.1378 41.2843 15.8826 41.2209C15.4791 41.067 15.0908 40.8661 14.6689 40.769C14.5618 40.7471 14.4515 40.7253 14.3423 40.7319C14.5316 41.0244 14.7176 41.3192 14.9177 41.603C15.2217 41.7417 15.544 41.8399 15.8501 41.9742C16.1411 42.2635 16.3293 42.6358 16.5013 43.0047C16.7684 43.5921 17.0118 44.2122 17.4672 44.6816C17.4845 44.6969 17.504 44.7121 17.5234 44.7263C17.5548 44.5364 17.5267 44.3432 17.4769 44.1598C17.4585 44.0921 17.438 44.0255 17.4326 43.9567C17.849 43.9698 18.2882 43.9938 18.6559 44.2154C18.9437 44.3846 19.1319 44.6838 19.2227 45.0014C19.2909 45.234 19.3298 45.4763 19.3417 45.7187C19.1989 46.0538 18.9934 46.3693 18.7133 46.6019C18.4396 46.8311 18.0729 46.9577 17.7181 46.9042C17.3428 46.8551 17.0075 46.6379 16.7544 46.3617C16.5651 46.1663 16.418 45.9337 16.2947 45.6925C16.2709 45.639 16.2135 45.6172 16.167 45.5888C15.8155 45.3977 15.4553 45.2252 15.0973 45.0473C14.5716 44.7864 14.047 44.5233 13.5267 44.2536C13.4986 44.2373 13.4672 44.2242 13.4488 44.1958C13.0389 43.627 12.7749 42.9654 12.3542 42.4043C12.2536 42.2777 12.1573 42.1423 12.0275 42.0452C11.3774 41.6412 10.7122 41.2329 10.1908 40.6609C10.1573 40.626 10.1595 40.5757 10.1519 40.5321C10.0913 40.102 10.0188 39.6675 9.84362 39.2679C9.78304 39.1194 9.703 38.9808 9.62188 38.8432C9.60241 38.8083 9.57645 38.7777 9.54508 38.7548C9.15568 38.4317 8.75438 38.1206 8.39743 37.7614C8.29035 37.6424 8.16271 37.5256 8.12269 37.3629C7.8977 37.2832 7.71598 37.114 7.58943 36.9131C7.3666 36.5627 7.25519 36.1555 7.1719 35.7516C7.04643 35.113 7.00425 34.4612 6.98586 33.8106C6.96206 32.6807 7.0302 31.5508 7.13513 30.4264C7.14811 30.3205 7.14594 30.2102 7.18813 30.1098C7.33091 29.708 7.47369 29.3074 7.60565 28.9024C7.73004 28.5192 7.8209 28.1262 7.90635 27.7321C7.96801 27.207 8.00911 26.6797 8.03724 26.1513C8.08591 25.1939 8.12269 24.2376 8.16271 23.2802C8.16704 23.2463 8.16271 23.2103 8.17677 23.1808C8.33361 22.9308 8.51425 22.6961 8.65595 22.4374C8.74248 22.2747 8.81604 22.0771 8.74573 21.8959C8.64405 21.6656 8.40068 21.5564 8.18434 21.4625C8.34551 21.0728 8.61376 20.742 8.88851 20.4287C9.17839 20.0946 9.48883 19.7682 9.69543 19.372C9.72788 19.3032 9.76898 19.2366 9.78521 19.1624C9.80143 18.92 9.70516 18.6918 9.68678 18.4528C10.0502 18.2115 10.4212 17.9811 10.7814 17.7344C11.1232 17.4975 11.4596 17.2486 11.7484 16.9473C12.1822 16.5237 12.5002 15.9888 12.7068 15.419C12.7371 15.3098 12.8344 15.2443 12.9047 15.1646C13.1438 14.895 13.4207 14.6635 13.7117 14.4539L13.7127 14.4495ZM16.0199 17.4255C16.1 17.6122 16.2925 17.717 16.4818 17.7541C16.6992 17.7967 16.9491 17.753 17.1038 17.5805C17.0756 17.4593 17.0356 17.3327 16.9437 17.2443C16.8431 17.1406 16.6873 17.1034 16.5489 17.1296C16.3444 17.1624 16.1681 17.2847 16.021 17.4255H16.0199ZM20.6841 17.5423C20.7468 17.6809 20.9058 17.7432 21.0486 17.7443C21.2433 17.741 21.4055 17.6132 21.5894 17.5652C21.2909 17.4593 20.9837 17.3851 20.6797 17.2956C20.6538 17.3753 20.6451 17.4648 20.6841 17.5423ZM14.3823 21.5226C14.2709 22.9832 14.1551 24.457 14.3369 25.9177C14.4266 26.6164 14.5824 27.3129 14.8701 27.957C14.8755 25.9024 14.9037 23.8424 15.1492 21.7999C14.9458 21.6012 14.6505 21.5619 14.3834 21.5215L14.3823 21.5226ZM15.9658 26.6502C16.0188 27.6284 16.0481 28.6218 16.3206 29.5683C16.3866 29.6676 16.4721 29.7539 16.5456 29.8467C16.868 30.2255 17.1968 30.5999 17.5148 30.9831C18.0275 31.6032 18.5218 32.2462 18.8885 32.9678C19.08 33.3521 19.2325 33.7615 19.2909 34.1894C19.2281 34.2833 19.1405 34.3586 19.0378 34.4045C18.8874 34.4787 18.7057 34.494 18.5781 34.6119C18.4753 34.7199 18.4764 34.8826 18.4959 35.0213C18.5543 35.0213 18.6138 35.0245 18.6722 35.0365C18.8528 34.9121 19.0583 34.8007 19.2833 34.804C19.4629 34.7975 19.637 34.8739 19.7787 34.9809C20.0535 35.1916 20.2503 35.483 20.4548 35.7592C20.6668 35.7254 20.8831 35.6643 21.0583 35.5333C21.1578 35.4579 21.2379 35.3444 21.2411 35.2145C21.1687 35.0769 21.0832 34.9448 21.0021 34.8117C20.8842 34.6261 20.7501 34.4416 20.5608 34.3259C20.3693 34.2058 20.1378 34.1676 19.9161 34.1708C19.9269 33.9689 19.9604 33.7451 20.1086 33.5955C20.2363 33.4623 20.4266 33.4318 20.5943 33.3761C20.7598 33.3248 20.9199 33.2374 21.028 33.0977C21.1167 32.994 21.1503 32.8586 21.2 32.7353C21.5018 31.9198 21.7181 31.0573 21.6998 30.1818C21.6868 29.7189 21.6013 29.2561 21.4174 28.8303C21.2584 28.4548 21.0205 28.1164 20.7349 27.8281C20.1768 27.2758 19.4553 26.9231 18.7154 26.6917C18.7338 26.9177 18.7587 27.16 18.6559 27.3707C18.3109 27.1797 17.9496 27.0159 17.5754 26.8937C17.0572 26.7255 16.5121 26.6459 15.9669 26.6513L15.9658 26.6502ZM15.2736 32.4121C15.2076 32.542 15.1524 32.6763 15.0951 32.8095C15.1784 33.0169 15.2801 33.2178 15.3688 33.423C15.6597 33.5813 15.9442 33.7669 16.1627 34.0202C16.2828 34.161 16.3812 34.3302 16.405 34.5169C16.4288 34.6894 16.3758 34.8651 16.2806 35.0082C16.1465 35.2112 15.9475 35.3586 15.7452 35.4874C15.73 35.5715 15.7127 35.6588 15.7344 35.744C15.7592 35.8389 15.8101 35.9252 15.8469 36.0169C16.0989 35.9874 16.3736 35.9656 16.5824 35.8029C16.7565 35.6599 16.8398 35.4405 16.9285 35.2385C16.9772 35.1337 17.0032 35.0136 17.0865 34.9296C17.3655 34.6042 17.677 34.2887 17.8393 33.8837C17.8642 33.8018 17.9161 33.7134 17.8782 33.6272C17.7982 33.3946 17.7008 33.1643 17.5591 32.9623C17.3785 32.6927 17.0919 32.5038 16.7771 32.4383C16.2828 32.3324 15.7733 32.3925 15.2736 32.4121ZM10.0718 34.5868C10.1065 34.9514 10.167 35.3226 10.3293 35.6544C10.4656 35.9383 10.6971 36.1664 10.9631 36.3302C11.2974 36.5376 11.663 36.6861 12.0264 36.8324C12.7533 36.84 13.4791 36.935 14.1843 37.1151C14.5175 36.9754 14.8323 36.7942 15.1254 36.5813C15.1146 36.5212 15.1092 36.4612 15.1081 36.4011C14.9199 36.3062 14.7014 36.3367 14.4991 36.3007C14.4137 36.2527 14.3369 36.1905 14.246 36.1533C13.8479 35.9601 13.3774 36.0322 12.9826 35.828C12.9329 35.7811 12.9004 35.7167 12.8571 35.6643C12.3455 34.9765 11.6641 34.4448 10.974 33.9525C10.6343 34.101 10.326 34.3171 10.0718 34.5879V34.5868ZM21.3926 37.9852C21.5245 38.4044 21.7993 38.7526 22.0351 39.1162C22.0502 39.1467 22.0816 39.1598 22.1108 39.174C22.3314 39.269 22.538 39.4 22.7208 39.5583C23.0053 39.8039 23.2249 40.1151 23.4142 40.4393C23.5894 40.7428 23.7506 41.055 23.9139 41.365C23.9247 41.5921 23.8945 41.8192 23.9096 42.0473C23.9193 42.2733 23.9626 42.508 24.0967 42.6958C24.1898 42.8312 24.3239 42.9283 24.4677 43.0015C24.6051 42.9622 24.7425 42.9207 24.8809 42.8836C24.882 42.7307 24.8788 42.5768 24.895 42.4251C24.9101 42.3596 24.8647 42.3061 24.8388 42.2526C24.3131 41.281 23.7495 40.329 23.2876 39.3247C23.2173 39.1882 23.1946 39.0343 23.1492 38.8891C23.0637 38.5889 22.9729 38.2854 22.8225 38.0103C22.6938 37.7723 22.5067 37.5605 22.2666 37.435C22.0275 37.3062 21.7528 37.2669 21.4845 37.2614C21.3244 37.4655 21.3158 37.7494 21.3926 37.9885V37.9852ZM18.8723 38.2614C18.71 38.4393 18.5608 38.6315 18.4494 38.8476C18.3736 39.0015 18.3239 39.1893 18.4028 39.352C18.4948 39.5408 18.6787 39.6566 18.8452 39.7712C19.1935 39.9972 19.5527 40.2242 19.8198 40.5495C20.1108 41.1183 20.3758 41.7013 20.6776 42.2635C20.9285 42.5233 21.2227 42.7384 21.4802 42.9916C21.7636 43.2624 22.0253 43.5943 22.0773 43.9971C22.6116 44.3268 23.1373 44.6696 23.6716 44.9971C23.7571 44.9163 23.7398 44.7897 23.7214 44.6849C23.6662 44.4174 23.5591 44.1652 23.4575 43.9141C23.4369 43.8574 23.3904 43.8159 23.3515 43.7722C23.2076 43.615 23.0832 43.4414 22.9783 43.2569C22.5867 42.5757 22.4569 41.7875 22.1519 41.0692C21.9918 40.6915 21.783 40.329 21.4975 40.0354C21.1784 39.8279 20.8561 39.6205 20.5792 39.3563C20.2525 39.0529 20.0199 38.6631 19.8371 38.2581C19.7906 38.1686 19.7647 38.0638 19.7084 37.9808C19.4153 38.0223 19.1405 38.1435 18.8712 38.2603L18.8723 38.2614ZM11.9658 38.7974C11.8306 38.9852 11.7052 39.2013 11.7117 39.4426C11.7225 39.6784 11.8761 39.8738 12.0383 40.031C12.3282 40.305 12.6614 40.5277 12.9426 40.8105C12.974 40.8454 12.9988 40.8869 13.0248 40.9262C13.412 41.5091 13.7755 42.1096 14.0837 42.7395C14.3055 42.6783 14.5272 42.6172 14.7501 42.5615V42.3061C14.3369 42.0746 14.008 41.7089 13.7885 41.2897C13.5332 40.8137 13.3882 40.2886 13.1741 39.7941C13.028 39.4546 12.8409 39.1249 12.5737 38.8662C12.5413 38.84 12.5153 38.7919 12.4688 38.7952C12.3012 38.7941 12.1335 38.7941 11.9658 38.7952V38.7974ZM25.0432 44.579C24.9621 44.7165 24.9512 44.8781 24.9469 45.0342C25.1265 45.0538 25.3071 45.0746 25.4878 45.0931C25.5148 45.0604 25.5429 45.0287 25.5743 45.0003C25.5505 45.032 25.5245 45.0637 25.4986 45.0942C25.5386 45.592 25.5386 46.0964 25.6403 46.5888C25.6738 46.7361 25.7138 46.889 25.8112 47.008C25.9539 46.8835 26.1086 46.7732 26.2676 46.6695C26.2882 46.651 26.3206 46.6401 26.3304 46.6117C26.3466 46.4785 26.3012 46.3497 26.2568 46.2274C26.1692 46.0003 26.0545 45.7842 25.9345 45.5724C25.7495 45.2394 25.5278 44.9272 25.3731 44.5779C25.2628 44.5779 25.1535 44.5779 25.0432 44.5779V44.579ZM2.3877 50.5658C11.6889 50.5679 20.9902 50.5658 30.2914 50.5658C32.3347 50.5658 34.378 50.5669 36.4212 50.5658C36.4212 51.0254 36.4212 51.4839 36.4212 51.9435C25.0767 51.9424 13.7322 51.9424 2.3877 51.9435C2.3877 51.4839 2.3877 51.0243 2.3877 50.5658ZM3.02696 55.0089C3.83605 55.0122 4.64513 55.0089 5.4553 55.01C5.45422 55.6989 5.4553 56.3877 5.4553 57.0777C5.45854 57.3091 5.44881 57.5416 5.46071 57.7731V57.7785C5.46071 57.7785 5.46503 57.7752 5.4672 57.7742C5.61106 57.6486 5.7387 57.5056 5.87066 57.367C6.52507 56.7065 7.16649 56.0329 7.81982 55.3714C7.93989 55.2545 8.05022 55.129 8.1692 55.0111C8.92853 55.0089 9.68894 55.0144 10.4483 55.0078C9.66514 55.7949 8.87985 56.5809 8.09348 57.3659C8.60944 58.653 9.11349 59.9444 9.6262 61.2337C9.65757 61.2959 9.66514 61.3734 9.71598 61.4247C10.4191 59.2872 11.1167 57.1486 11.8155 55.01C12.4201 55.0122 13.0248 55.0111 13.6294 55.01C14.3001 57.0482 14.974 59.0864 15.6457 61.1245C15.6597 61.1573 15.6597 61.1999 15.6922 61.2228C15.6954 59.1519 15.6943 57.0809 15.6922 55.01C16.6722 55.0133 17.6522 55.01 18.6322 55.0111C18.9794 56.189 19.3352 57.3659 19.6857 58.5427C19.7798 58.8713 19.888 59.1955 19.9734 59.5263C20.0048 59.4914 20.0156 59.4466 20.0297 59.403C20.511 57.9379 20.9988 56.4751 21.4791 55.0089C22.4147 55.01 23.3515 55.01 24.2871 55.0089C24.2828 57.0689 24.2882 59.13 24.2839 61.19C24.2914 61.19 24.3066 61.1911 24.3141 61.1911C24.4796 60.6518 24.6657 60.1191 24.8377 59.582C25.2325 58.3855 25.6219 57.1879 26.0167 55.9925C26.1194 55.665 26.2363 55.3408 26.3358 55.0122C26.9426 55.0078 27.5494 55.0122 28.1562 55.0111C28.8236 57.0777 29.4986 59.142 30.1681 61.2075C30.2233 61.3702 30.2698 61.5361 30.3314 61.6966C31.0702 59.9335 31.8036 58.1672 32.537 56.4019C31.7917 56.4019 31.0464 56.4019 30.3001 56.4019C30.3001 55.9379 30.3022 55.474 30.3001 55.0089C32.1292 55.01 33.9594 55.0089 35.7895 55.0089C34.8831 57.2425 33.9842 59.4805 33.081 61.7162C33.9821 61.714 34.8831 61.7173 35.7852 61.7151C35.7809 62.0765 35.7636 62.4378 35.7571 62.8003C35.7474 62.8974 35.7668 63.0001 35.7344 63.095C35.1416 63.0841 34.5489 63.1027 33.955 63.0983C33.345 63.0961 32.7349 63.0994 32.1249 63.1038C30.869 63.1016 29.6132 63.1114 28.3574 63.1081C28.2611 62.8079 28.1616 62.5088 28.0675 62.2086C27.2671 62.2086 26.4667 62.2086 25.6662 62.2086C25.5689 62.5088 25.4694 62.8079 25.3742 63.1081C24.206 63.1081 23.0378 63.1059 21.8696 63.1081C21.8707 61.6595 21.8728 60.2108 21.8696 58.761C21.8642 58.7676 21.8523 58.7807 21.8458 58.7872C21.4099 60.2283 20.9696 61.6671 20.5348 63.107C19.8836 63.1049 19.2325 63.107 18.5813 63.107C18.1962 61.8931 17.8133 60.6791 17.4283 59.4652C17.359 59.2272 17.2682 58.9958 17.2119 58.7545H17.186C17.1881 60.2053 17.1849 61.6573 17.1881 63.1081C16.0654 63.1049 14.9415 63.1081 13.8187 63.107C13.73 62.8046 13.624 62.5077 13.5321 62.2075C12.7306 62.2075 11.9291 62.2075 11.1286 62.2075C11.028 62.5066 10.9339 62.8079 10.8333 63.1081C9.76249 63.107 8.69056 63.1081 7.61971 63.1081C7.12431 61.8232 6.62783 60.5394 6.1335 59.2545C5.92582 59.4455 5.73545 59.6551 5.52669 59.8451C5.50073 59.8756 5.45422 59.9008 5.45746 59.9466C5.45638 61.0001 5.45746 62.0536 5.45746 63.107C4.64838 63.107 3.83929 63.1049 3.02912 63.1081C3.03129 60.4084 3.03129 57.7087 3.02912 55.0078L3.02696 55.0089ZM12.3163 58.5263C12.0794 59.2916 11.8177 60.0492 11.5797 60.8145C12.0783 60.8145 12.5759 60.8156 13.0746 60.8134C12.855 60.1409 12.6365 59.4695 12.4158 58.7982C12.3823 58.7086 12.3693 58.6071 12.3152 58.5274L12.3163 58.5263ZM26.8496 58.5351C26.7944 58.7403 26.7208 58.9401 26.6581 59.1442C26.4786 59.6999 26.2979 60.2566 26.1205 60.8123C26.617 60.8134 27.1135 60.8156 27.61 60.8123C27.3612 60.0536 27.1135 59.2949 26.8712 58.5351H26.8496Z" fill="white"/>
</g>
<defs>
<clipPath id="clip0_117_1358">
<rect width="40" height="66" fill="white"/>
</clipPath>
</defs>
</svg>
