<svg width="377" height="67" viewBox="0 0 377 67" fill="none" xmlns="http://www.w3.org/2000/svg">
<g opacity="0.4">
<path d="M246.304 27.6255L245.706 39.1157C245.604 41.2041 245.387 42.7205 245.056 43.665C244.725 44.6095 244.147 45.0818 243.324 45.0818C243.103 45.0818 242.907 45.0688 242.738 45.0428C242.576 45.0168 242.398 44.9692 242.203 44.8998V46.6546C242.44 46.7412 242.665 46.8019 242.878 46.8365C243.09 46.8712 243.302 46.8885 243.515 46.8885C244.992 46.8972 245.994 46.269 246.521 45.0038C247.056 43.7387 247.387 41.88 247.515 39.4277L248.037 29.3022H255.884V46.5506H257.833V27.6255H246.304Z" fill="white"/>
<path d="M261.66 37.6079C261.66 40.6062 262.369 42.9111 263.788 44.5229C265.214 46.126 267.049 46.9275 269.29 46.9275C271.532 46.9275 273.363 46.126 274.781 44.5229C276.207 42.9111 276.921 40.6062 276.921 37.6079V36.5681C276.921 33.5699 276.207 31.2693 274.781 29.6662C273.363 28.0544 271.532 27.2485 269.29 27.2485C267.049 27.2485 265.214 28.0544 263.788 29.6662C262.369 31.2693 261.66 33.5699 261.66 36.5681V37.6079ZM263.622 37.6079V36.5551C263.622 34.1201 264.14 32.2484 265.176 30.94C266.212 29.6315 267.584 28.9773 269.29 28.9773C270.989 28.9773 272.356 29.6315 273.392 30.94C274.428 32.2484 274.946 34.1201 274.946 36.5551V37.6079C274.946 40.0516 274.428 41.9276 273.392 43.2361C272.356 44.5446 270.989 45.1988 269.29 45.1988C267.584 45.1988 266.212 44.5446 265.176 43.2361C264.14 41.9276 263.622 40.0516 263.622 37.6079Z" fill="white"/>
<path d="M280.748 46.5506H282.697V29.3022H291.5V27.6255H280.748V46.5506Z" fill="white"/>
<path d="M308.308 46.5506V27.6255H306.155L297.149 42.4822C296.987 42.7508 296.835 43.0108 296.69 43.2621C296.546 43.5047 296.423 43.743 296.321 43.977H296.219C296.227 43.717 296.236 43.4441 296.244 43.1581C296.253 42.8721 296.257 42.6035 296.257 42.3522V27.6255H294.308V46.5506H296.448L305.467 31.6939C305.628 31.4252 305.781 31.1653 305.925 30.914C306.078 30.654 306.206 30.4157 306.308 30.1991H306.41C306.393 30.459 306.38 30.7537 306.371 31.0829C306.363 31.4036 306.359 31.6895 306.359 31.9408V46.5506H308.308Z" fill="white"/>
<path d="M312.148 37.6079C312.148 40.6235 312.853 42.9328 314.262 44.5359C315.681 46.1303 317.477 46.9275 319.651 46.9275C321.799 46.9275 323.438 46.3253 324.568 45.1208C325.697 43.9077 326.338 42.4172 326.491 40.6495L326.504 40.4805H324.555L324.542 40.6365C324.44 41.893 323.999 42.9675 323.218 43.86C322.436 44.7525 321.247 45.1988 319.651 45.1988C318.02 45.1988 316.687 44.5446 315.651 43.2361C314.623 41.9276 314.11 40.0516 314.11 37.6079V36.5551C314.11 34.0595 314.623 32.1748 315.651 30.901C316.687 29.6185 318.02 28.9773 319.651 28.9773C321.281 28.9773 322.487 29.4235 323.268 30.3161C324.058 31.1999 324.487 32.2744 324.555 33.5396V33.6955H326.504V33.5396C326.411 31.7545 325.782 30.2597 324.619 29.0553C323.455 27.8508 321.799 27.2485 319.651 27.2485C317.494 27.2485 315.702 28.0544 314.275 29.6662C312.857 31.2693 312.148 33.5699 312.148 36.5681V37.6079Z" fill="white"/>
<path d="M327.873 29.3022H333.924V46.5506H335.873V29.3022H341.924V27.6255H327.873V29.3022Z" fill="white"/>
<path d="M358.617 46.5506V27.6255H356.464L347.458 42.4822C347.297 42.7508 347.144 43.0108 347 43.2621C346.855 43.5047 346.732 43.743 346.63 43.977H346.528C346.537 43.717 346.545 43.4441 346.554 43.1581C346.562 42.8721 346.566 42.6035 346.566 42.3522V27.6255H344.617V46.5506H346.757L355.776 31.6939C355.938 31.4252 356.09 31.1653 356.235 30.914C356.388 30.654 356.515 30.4157 356.617 30.1991H356.719C356.702 30.459 356.689 30.7537 356.681 31.0829C356.672 31.4036 356.668 31.6895 356.668 31.9408V46.5506H358.617Z" fill="white"/>
<path d="M374.52 46.5506H376.928L368.177 36.1002L366.444 36.8541L374.52 46.5506ZM364.113 35.9442V37.6209H367.833L376.278 27.6255H374.075L367.069 35.9442H364.113ZM363.145 46.5506H365.094V27.6255H363.145V46.5506Z" fill="white"/>
<path d="M92.6689 55.8663H95.6127V63.5793H96.9448V55.8663H99.8886V54.7809H92.6689V55.8663Z" fill="white"/>
<path d="M101.611 67.0001H102.943V62.5021C103.234 62.8749 103.618 63.1764 104.094 63.4067C104.571 63.6314 105.142 63.7438 105.805 63.7438C106.962 63.7438 107.88 63.3272 108.559 62.4939C109.239 61.6552 109.579 60.5944 109.579 59.3117V59.0485C109.579 57.7658 109.239 56.7078 108.559 55.8745C107.88 55.0358 106.962 54.6164 105.805 54.6164C105.142 54.6164 104.555 54.7507 104.045 55.0193C103.541 55.2825 103.16 55.6004 102.902 55.9732H102.877L102.82 54.7809H101.611V67.0001ZM102.943 61.0714V57.2888C103.135 56.8887 103.45 56.5323 103.889 56.2199C104.333 55.9019 104.867 55.7429 105.492 55.7429C106.435 55.7429 107.126 56.0609 107.565 56.6968C108.003 57.3272 108.222 58.1111 108.222 59.0485V59.3117C108.222 60.2491 108.003 61.0357 107.565 61.6716C107.126 62.3021 106.435 62.6173 105.492 62.6173C104.867 62.6173 104.333 62.461 103.889 62.1486C103.45 61.8306 103.135 61.4715 102.943 61.0714Z" fill="white"/>
<path d="M111.219 61.0467C111.219 61.9293 111.51 62.6008 112.091 63.0613C112.678 63.5163 113.401 63.7438 114.262 63.7438C115.051 63.7438 115.698 63.5958 116.202 63.2998C116.707 63.0037 117.071 62.6721 117.296 62.3048C117.318 62.5405 117.362 62.7762 117.428 63.012C117.493 63.2422 117.57 63.4313 117.658 63.5793H118.932V63.4478C118.828 63.2066 118.746 62.9297 118.686 62.6173C118.625 62.2993 118.595 61.9622 118.595 61.6058V57.5109C118.595 56.5241 118.302 55.7813 117.715 55.2825C117.134 54.7836 116.309 54.5342 115.24 54.5342C114.171 54.5342 113.324 54.7946 112.7 55.3154C112.075 55.8307 111.762 56.4474 111.762 57.1655V57.2066H113.07V57.1655C113.07 56.7489 113.231 56.3871 113.555 56.0801C113.884 55.7731 114.432 55.6196 115.199 55.6196C115.961 55.6196 116.496 55.795 116.803 56.1459C117.115 56.4967 117.271 56.9517 117.271 57.5109V58.2509H115.035C113.922 58.2509 113.007 58.4976 112.288 58.991C111.576 59.4789 111.219 60.1641 111.219 61.0467ZM112.543 60.9809C112.543 60.4437 112.768 60.0188 113.218 59.7064C113.667 59.3884 114.33 59.2294 115.208 59.2294H117.271V60.5862C117.271 61.0851 116.995 61.5565 116.441 62.0005C115.893 62.4391 115.271 62.6584 114.574 62.6584C113.878 62.6584 113.366 62.5131 113.037 62.2226C112.708 61.932 112.543 61.5181 112.543 60.9809Z" fill="white"/>
<path d="M121.222 54.7809V63.5793H122.554V59.6488H127.036V63.5793H128.36V54.7809H127.036V58.5716H122.554V54.7809H121.222Z" fill="white"/>
<path d="M130.485 59.3117C130.485 60.6383 130.85 61.7237 131.579 62.5679C132.313 63.4067 133.325 63.826 134.613 63.826C135.803 63.826 136.705 63.5136 137.318 62.8886C137.932 62.2582 138.239 61.5483 138.239 60.7589V60.7178H136.957V60.7589C136.957 61.2797 136.77 61.7347 136.398 62.1239C136.025 62.5131 135.43 62.7077 134.613 62.7077C133.659 62.7077 132.958 62.3815 132.508 61.7292C132.064 61.0768 131.842 60.271 131.842 59.3117V59.0485C131.842 58.0947 132.064 57.2916 132.508 56.6392C132.958 55.9814 133.659 55.6525 134.613 55.6525C135.43 55.6525 136.025 55.8471 136.398 56.2363C136.77 56.6255 136.957 57.0805 136.957 57.6013V57.6424H138.239V57.6013C138.239 56.8174 137.932 56.1102 137.318 55.4798C136.705 54.8494 135.803 54.5342 134.613 54.5342C133.325 54.5342 132.313 54.9563 131.579 55.8005C130.85 56.6392 130.485 57.7219 130.485 59.0485V59.3117Z" fill="white"/>
<path d="M140.11 54.7809V63.5793H141.442V55.8663H145.841V63.5793H147.165V54.7809H140.11Z" fill="white"/>
<path d="M149.291 59.3117C149.291 60.6383 149.672 61.7237 150.434 62.5679C151.196 63.4067 152.221 63.826 153.509 63.826C154.792 63.826 155.814 63.4067 156.576 62.5679C157.338 61.7237 157.719 60.6383 157.719 59.3117V59.0485C157.719 57.7219 157.338 56.6392 156.576 55.8005C155.814 54.9563 154.789 54.5342 153.501 54.5342C152.218 54.5342 151.196 54.9563 150.434 55.8005C149.672 56.6392 149.291 57.7219 149.291 59.0485V59.3117ZM150.647 59.0485C150.647 58.0947 150.886 57.2916 151.363 56.6392C151.84 55.9869 152.552 55.6607 153.501 55.6607C154.449 55.6607 155.162 55.9869 155.639 56.6392C156.121 57.2916 156.362 58.0947 156.362 59.0485V59.3117C156.362 60.2655 156.121 61.0686 155.639 61.721C155.162 62.3733 154.449 62.6995 153.501 62.6995C152.552 62.6995 151.84 62.3733 151.363 61.721C150.886 61.0686 150.647 60.2655 150.647 59.3117V59.0485Z" fill="white"/>
<path d="M159.836 67.0001H161.168V62.5021C161.459 62.8749 161.843 63.1764 162.32 63.4067C162.797 63.6314 163.367 63.7438 164.03 63.7438C165.187 63.7438 166.105 63.3272 166.785 62.4939C167.464 61.6552 167.804 60.5944 167.804 59.3117V59.0485C167.804 57.7658 167.464 56.7078 166.785 55.8745C166.105 55.0358 165.187 54.6164 164.03 54.6164C163.367 54.6164 162.78 54.7507 162.27 55.0193C161.766 55.2825 161.385 55.6004 161.127 55.9732H161.103L161.045 54.7809H159.836V67.0001ZM161.168 61.0714V57.2888C161.36 56.8887 161.676 56.5323 162.114 56.2199C162.558 55.9019 163.093 55.7429 163.718 55.7429C164.66 55.7429 165.351 56.0609 165.79 56.6968C166.228 57.3272 166.448 58.1111 166.448 59.0485V59.3117C166.448 60.2491 166.228 61.0357 165.79 61.6716C165.351 62.3021 164.66 62.6173 163.718 62.6173C163.093 62.6173 162.558 62.461 162.114 62.1486C161.676 61.8306 161.36 61.4715 161.168 61.0714Z" fill="white"/>
<path d="M169.009 55.8663H171.953V63.5793H173.285V55.8663H176.228V54.7809H169.009V55.8663Z" fill="white"/>
<path d="M177.951 54.7809V63.5793H179.283V59.6488H183.765V63.5793H185.088V54.7809H183.765V58.5716H179.283V54.7809H177.951Z" fill="white"/>
<path d="M187.263 61.0467C187.263 61.9293 187.554 62.6008 188.135 63.0613C188.721 63.5163 189.445 63.7438 190.306 63.7438C191.095 63.7438 191.742 63.5958 192.246 63.2998C192.751 63.0037 193.115 62.6721 193.34 62.3048C193.362 62.5405 193.406 62.7762 193.471 63.012C193.537 63.2422 193.614 63.4313 193.702 63.5793H194.976V63.4478C194.872 63.2066 194.79 62.9297 194.73 62.6173C194.669 62.2993 194.639 61.9622 194.639 61.6058V57.5109C194.639 56.5241 194.346 55.7813 193.759 55.2825C193.178 54.7836 192.353 54.5342 191.284 54.5342C190.215 54.5342 189.368 54.7946 188.743 55.3154C188.118 55.8307 187.806 56.4474 187.806 57.1655V57.2066H189.113V57.1655C189.113 56.7489 189.275 56.3871 189.599 56.0801C189.927 55.7731 190.476 55.6196 191.243 55.6196C192.005 55.6196 192.54 55.795 192.847 56.1459C193.159 56.4967 193.315 56.9517 193.315 57.5109V58.2509H191.079C189.966 58.2509 189.05 58.4976 188.332 58.991C187.62 59.4789 187.263 60.1641 187.263 61.0467ZM188.587 60.9809C188.587 60.4437 188.812 60.0188 189.261 59.7064C189.711 59.3884 190.374 59.2294 191.251 59.2294H193.315V60.5862C193.315 61.0851 193.038 61.5565 192.485 62.0005C191.937 62.4391 191.314 62.6584 190.618 62.6584C189.922 62.6584 189.409 62.5131 189.08 62.2226C188.752 61.932 188.587 61.5181 188.587 60.9809Z" fill="white"/>
<path d="M198.179 63.5793L200.621 59.9859L199.281 59.8462L196.691 63.5793H198.179ZM202.553 63.5793H203.877V54.7809H200.284C199.215 54.7809 198.395 55.0358 197.825 55.5456C197.255 56.0554 196.97 56.7352 196.97 57.5849C196.97 58.3907 197.239 59.0348 197.776 59.5172C198.319 59.9996 199.097 60.2518 200.111 60.2737L200.268 60.3477H202.553V63.5793ZM200.284 59.2623C199.56 59.2623 199.051 59.1061 198.755 58.7936C198.458 58.4812 198.31 58.0782 198.31 57.5849C198.31 57.086 198.458 56.6749 198.755 56.3514C199.051 56.028 199.56 55.8663 200.284 55.8663H202.553V59.2623H200.284Z" fill="white"/>
<path d="M216.532 63.5793H218.193L213.917 58.6292L213.062 59.4926L216.532 63.5793ZM211.45 58.5716V59.6488H213.744L217.848 54.7809H216.31L213.144 58.5716H211.45ZM212.108 54.7809H210.784V63.5793H212.108V54.7809Z" fill="white"/>
<path d="M219.019 59.3117C219.019 60.6383 219.4 61.7237 220.162 62.5679C220.924 63.4067 221.949 63.826 223.238 63.826C224.52 63.826 225.543 63.4067 226.305 62.5679C227.067 61.7237 227.448 60.6383 227.448 59.3117V59.0485C227.448 57.7219 227.067 56.6392 226.305 55.8005C225.543 54.9563 224.518 54.5342 223.229 54.5342C221.947 54.5342 220.924 54.9563 220.162 55.8005C219.4 56.6392 219.019 57.7219 219.019 59.0485V59.3117ZM220.376 59.0485C220.376 58.0947 220.615 57.2916 221.091 56.6392C221.568 55.9869 222.281 55.6607 223.229 55.6607C224.178 55.6607 224.89 55.9869 225.367 56.6392C225.85 57.2916 226.091 58.0947 226.091 59.0485V59.3117C226.091 60.2655 225.85 61.0686 225.367 61.721C224.89 62.3733 224.178 62.6995 223.229 62.6995C222.281 62.6995 221.568 62.3733 221.091 61.721C220.615 61.0686 220.376 60.2655 220.376 59.3117V59.0485Z" fill="white"/>
<path d="M229.565 63.5793H230.807V57.3464C230.812 57.0942 230.809 56.8887 230.798 56.7297C230.787 56.5652 230.774 56.4172 230.757 56.2857H230.84C230.872 56.4172 230.916 56.568 230.971 56.7379C231.026 56.9024 231.103 57.1079 231.201 57.3546L233.882 63.5793H235.099L237.771 57.3628C237.881 57.1052 237.961 56.8941 238.01 56.7297C238.065 56.5652 238.109 56.4172 238.141 56.2857H238.215C238.204 56.4172 238.193 56.5652 238.183 56.7297C238.172 56.8887 238.166 57.1052 238.166 57.3793V63.5793H239.457V54.7809H237.664L234.934 61.1371C234.819 61.4003 234.737 61.6058 234.688 61.7539C234.638 61.9019 234.597 62.0417 234.564 62.1732H234.49C234.458 62.0417 234.414 61.9019 234.359 61.7539C234.304 61.6004 234.219 61.3921 234.104 61.1289L231.39 54.7809H229.565V63.5793Z" fill="white"/>
<path d="M242.084 54.7809V63.5793H243.416V55.8663H247.815V63.5793H249.139V54.7809H242.084Z" fill="white"/>
<path d="M251.314 61.0467C251.314 61.9293 251.605 62.6008 252.186 63.0613C252.772 63.5163 253.496 63.7438 254.357 63.7438C255.146 63.7438 255.793 63.5958 256.297 63.2998C256.802 63.0037 257.166 62.6721 257.391 62.3048C257.413 62.5405 257.457 62.7762 257.522 63.012C257.588 63.2422 257.665 63.4313 257.753 63.5793H259.027V63.4478C258.923 63.2066 258.841 62.9297 258.78 62.6173C258.72 62.2993 258.69 61.9622 258.69 61.6058V57.5109C258.69 56.5241 258.397 55.7813 257.81 55.2825C257.229 54.7836 256.404 54.5342 255.335 54.5342C254.266 54.5342 253.419 54.7946 252.794 55.3154C252.169 55.8307 251.857 56.4474 251.857 57.1655V57.2066H253.164V57.1655C253.164 56.7489 253.326 56.3871 253.649 56.0801C253.978 55.7731 254.527 55.6196 255.294 55.6196C256.056 55.6196 256.59 55.795 256.897 56.1459C257.21 56.4967 257.366 56.9517 257.366 57.5109V58.2509H255.13C254.017 58.2509 253.101 58.4976 252.383 58.991C251.67 59.4789 251.314 60.1641 251.314 61.0467ZM252.638 60.9809C252.638 60.4437 252.863 60.0188 253.312 59.7064C253.762 59.3884 254.425 59.2294 255.302 59.2294H257.366V60.5862C257.366 61.0851 257.089 61.5565 256.536 62.0005C255.987 62.4391 255.365 62.6584 254.669 62.6584C253.973 62.6584 253.46 62.5131 253.131 62.2226C252.802 61.932 252.638 61.5181 252.638 60.9809Z" fill="white"/>
<path d="M261.317 54.7809V63.5793H262.649V59.6488H267.131V63.5793H268.455V54.7809H267.131V58.5716H262.649V54.7809H261.317Z" fill="white"/>
<path d="M271.09 63.5793H272.463L276.402 57.552C276.517 57.382 276.621 57.2121 276.714 57.0422C276.807 56.8722 276.89 56.7187 276.961 56.5817H277.051C277.04 56.7461 277.032 56.9353 277.027 57.1491C277.021 57.3574 277.018 57.5465 277.018 57.7164V63.5793H278.342V54.7809H276.969L273.03 60.8165C272.921 60.9864 272.817 61.1536 272.718 61.318C272.625 61.4825 272.54 61.636 272.463 61.7785H272.397C272.403 61.6086 272.405 61.4195 272.405 61.2112C272.411 61.0028 272.414 60.8165 272.414 60.652V54.7809H271.09V63.5793Z" fill="white"/>
<path d="M281.874 63.5793L284.316 59.9859L282.976 59.8462L280.386 63.5793H281.874ZM286.249 63.5793H287.572V54.7809H283.979C282.91 54.7809 282.09 55.0358 281.52 55.5456C280.95 56.0554 280.665 56.7352 280.665 57.5849C280.665 58.3907 280.934 59.0348 281.471 59.5172C282.014 59.9996 282.792 60.2518 283.806 60.2737L283.963 60.3477H286.249V63.5793ZM283.979 59.2623C283.255 59.2623 282.746 59.1061 282.45 58.7936C282.154 58.4812 282.005 58.0782 282.005 57.5849C282.005 57.086 282.154 56.6749 282.45 56.3514C282.746 56.028 283.255 55.8663 283.979 55.8663H286.249V59.2623H283.979Z" fill="white"/>
<path fill-rule="evenodd" clip-rule="evenodd" d="M86.5103 16.3867L78.0124 7.88873L74.7681 11.133L83.2685 19.6334V53.0914L77.3695 63.5785H66.8823V16.3864L77.3695 5.89923H77.37L83.2687 0.000488281L130.461 0.000488844V10.4876L119.974 16.3867H86.5103Z" fill="white"/>
<path fill-rule="evenodd" clip-rule="evenodd" d="M43.9512 16.3862L52.4486 7.88877L55.6929 11.1331L47.1924 19.6335V53.0914L53.0915 63.5786H63.5786V16.3864L57.6793 10.4872L53.0915 5.89927L47.1922 0L1.90735e-05 5.62759e-07V10.4872L10.4872 16.3862H43.9512Z" fill="white"/>
<path fill-rule="evenodd" clip-rule="evenodd" d="M166.48 30.4063V46.9275H173.023V41.1714H192.801V46.9275H199.393V27.2485H169.638L166.48 30.4063ZM129.386 27.2485H159.125L162.299 30.4224V41.1714H135.929V46.9275H129.386V27.2485ZM125.204 27.2485H92.3398V32.3634H105.476V46.9275H112.068V32.3634H125.204V27.2485ZM155.707 36.0127L155.707 32.4126H135.929L135.929 36.0127H155.707ZM192.801 32.4126V36.4042H173.023V32.4126H192.801ZM227.435 36.2517L236.487 30.6432V27.2485H229.944L226.057 29.7084L223.45 31.3319L223.352 31.4303L220.842 33.0046L219.563 33.7918L218.284 34.6282L216.759 35.6121L215.677 36.2517L213.118 37.9244L210.511 39.5479L210.167 39.7447V27.2485H203.574V46.9275H210.167L214.152 44.4676L216.759 42.8441H216.808L219.465 41.1714L220.154 40.7286L220.842 41.1714L223.352 42.7457L223.45 42.8441L226.057 44.4676L229.944 46.9275H236.487V43.5329L226.107 37.088L227.435 36.2517Z" fill="white"/>
</g>
</svg>
