<svg width="205" height="22" viewBox="0 0 205 22" fill="none" xmlns="http://www.w3.org/2000/svg">
<g clip-path="url(#clip0_85_428)">
<path d="M104.558 0C105.156 0.111645 105.765 0.19391 106.357 0.340812C109.444 1.09882 111.373 3.39049 111.609 6.85737C111.876 10.6768 111.172 14.3024 108.942 17.5283C106.232 21.4477 101.447 22.5406 97.4542 21.3713C94.5379 20.5192 92.7397 18.0689 92.5268 14.696C92.3315 11.5347 92.8994 8.50267 94.4492 5.69979C96.2297 2.47383 98.8975 0.49359 102.671 0.111645C102.784 0.0998932 102.89 0.0411325 102.997 0.00587607C103.517 0.00587607 104.038 0.00587607 104.558 0.00587607V0ZM100.773 17.9749C100.796 18.0337 100.82 18.0924 100.844 18.1571C101.69 17.8339 102.577 17.5988 103.358 17.164C103.931 16.8408 104.452 16.3296 104.836 15.789C106.806 13.0449 107.345 9.93056 106.883 6.67521C106.581 4.57158 104.854 3.52564 102.719 3.90759C100.897 4.23077 99.702 5.40598 98.8265 6.90438C97.3773 9.38408 96.8745 12.0871 97.1998 14.9193C97.4246 16.8761 98.7792 17.9866 100.767 17.9808L100.773 17.9749Z" fill="white"/>
<path d="M64.2634 0C64.8372 0.111645 65.4228 0.19391 65.9907 0.334936C68.9365 1.06944 70.8826 3.2906 71.1902 6.45192C71.5274 9.86592 71.0128 13.1624 69.3742 16.2297C67.0969 20.4957 62.6781 22.5641 57.9518 21.6004C54.8641 20.9717 52.9002 19.0972 52.3737 16.0652C51.5988 11.5876 52.5275 7.40972 55.3728 3.77831C57.0705 1.61004 59.3833 0.417201 62.1576 0.129274C62.341 0.111645 62.5184 0.0470085 62.7018 0.00587607C63.2223 0.00587607 63.7429 0.00587607 64.2634 0.00587607V0ZM56.7569 13.4151C56.7569 13.7853 56.7333 14.1613 56.7569 14.5315C56.9462 16.8819 58.4724 18.1512 60.8444 17.9514C61.9801 17.8574 62.968 17.4049 63.7192 16.5881C66.4935 13.5913 67.1087 10.0069 66.3515 6.164C66.0144 4.45994 64.3581 3.59615 62.5835 3.84882C60.5486 4.14263 59.2709 5.42949 58.3186 7.09829C57.2065 9.04915 56.7688 11.188 56.751 13.4092L56.7569 13.4151Z" fill="white"/>
<path d="M24.9684 0C23.5724 6.40491 22.1823 12.8098 20.7863 19.2206C20.6266 19.9493 20.4846 20.6838 20.2835 21.4006C20.2303 21.5769 19.9581 21.8237 19.7866 21.8237C16.7402 21.8472 13.6939 21.8355 10.6475 21.8237C10.5824 21.8237 10.5174 21.7767 10.334 21.7062C11.8956 14.4786 13.4632 7.23932 15.0366 0C18.3492 0 21.6558 0 24.9684 0Z" fill="white"/>
<path d="M205 1.82156C204.438 2.92039 203.87 4.01334 203.267 5.18855C203.036 5.08278 202.805 4.98877 202.586 4.87712C201.468 4.28364 200.291 3.87819 199.014 3.83118C197.032 3.76067 195.382 4.50105 194.199 6.05233C192.122 8.77295 191.495 11.8696 192.099 15.1955C192.406 16.8996 193.572 17.8045 195.305 17.9514C196.967 18.0924 198.546 17.7222 200.096 17.2051C200.356 17.117 200.617 17.0347 200.995 16.9113C200.995 18.157 201.007 19.2911 200.978 20.4252C200.978 20.5545 200.782 20.7484 200.64 20.8013C197.896 21.7649 195.092 22.2292 192.235 21.4006C189.869 20.719 188.266 19.1148 187.721 16.7762C186.515 11.5641 187.627 6.85148 191.377 2.89688C192.95 1.23983 195.003 0.405432 197.286 0.135133C197.493 0.111629 197.695 0.0469919 197.896 0.00585938C198.464 0.00585938 199.031 0.00585938 199.599 0.00585938C199.712 0.0411158 199.818 0.0998765 199.931 0.105753C201.741 0.164513 203.403 0.72274 204.988 1.55127V1.83332L205 1.82156Z" fill="white"/>
<path d="M11.2093 0C10.677 2.46207 10.1564 4.92415 9.61222 7.38034C8.59479 11.9578 7.5537 16.5294 6.55402 21.1068C6.4298 21.6827 6.19318 21.859 5.61349 21.8472C3.86848 21.812 2.12347 21.8355 0.21875 21.8355C1.80996 14.5021 3.38934 7.25107 4.96281 0C7.04499 0 9.12716 0 11.2093 0Z" fill="white"/>
<path d="M86.097 10.5005C86.7122 10.9177 87.4043 11.2586 87.9367 11.7639C89.2144 12.9685 89.1612 14.5433 88.8831 16.0887C88.3803 18.9092 86.3041 20.766 83.1276 21.289C82.2699 21.43 81.3885 21.5123 80.5189 21.524C78.2711 21.5593 76.0292 21.5358 73.7814 21.5358C73.533 21.5358 73.2786 21.5064 72.9355 21.4829C73.2668 19.9199 73.5803 18.4391 73.8938 16.9642C75.0296 11.6699 76.1653 6.37554 77.2892 1.07532C77.3838 0.63462 77.4903 0.370196 78.0345 0.376072C80.306 0.411329 82.5715 0.381949 84.843 0.423081C85.4523 0.434833 86.0675 0.540602 86.659 0.681628C90.3915 1.56891 91.7521 5.40011 89.4333 8.44979C88.7116 9.40171 87.7178 9.96582 86.5998 10.336C86.4046 10.4006 86.2153 10.4594 86.0911 10.5005H86.097ZM78.2416 17.8515C79.6257 17.7751 80.8324 17.7927 82.0096 17.6223C83.1335 17.4637 83.9853 16.7997 84.2811 15.6715C84.843 13.5443 83.9143 12.2692 81.8262 12.3162C81.5896 12.3162 81.353 12.3162 81.1164 12.3162C79.9846 12.3162 79.3024 12.851 79.0697 13.9204C78.7976 15.1661 78.5373 16.4177 78.2356 17.8515H78.2416ZM80.1877 8.69659C81.0158 8.69659 81.6961 8.70246 82.3763 8.69659C82.7076 8.69659 83.0507 8.70834 83.3583 8.62607C83.8552 8.49092 84.3698 8.3499 84.8016 8.09135C85.612 7.60951 85.9906 6.51656 85.7776 5.57052C85.5883 4.73024 85.0441 4.27191 83.9143 4.15438C83.1453 4.07212 82.3645 4.09562 81.5837 4.11325C81.424 4.11325 81.1696 4.28953 81.1341 4.41881C80.8029 5.79381 80.513 7.18056 80.1818 8.69071L80.1877 8.69659Z" fill="white"/>
<path d="M39.1946 0.387802C38.5972 3.20831 38.0293 5.87017 37.4496 8.6143C37.7927 8.63193 38.0412 8.64955 38.2896 8.64955C39.9932 8.64955 41.6909 8.62605 43.3945 8.66718C44.0274 8.68481 44.2995 8.52028 44.4237 7.86804C44.8556 5.62338 45.3761 3.39635 45.8257 1.15169C45.944 0.558208 46.1865 0.346669 46.8076 0.370174C48.0084 0.417182 49.2092 0.381926 50.5224 0.381926C50.268 1.5924 50.0373 2.6971 49.8007 3.8018C48.5822 9.48396 47.3577 15.1661 46.1569 20.8483C46.0445 21.3654 45.8493 21.5475 45.3229 21.5358C44.0984 21.5064 42.8739 21.524 41.4838 21.524C42.1345 18.4626 42.7615 15.5128 43.4004 12.4925C43.146 12.4631 42.9449 12.422 42.7438 12.422C40.9219 12.422 39.1059 12.4396 37.284 12.4044C36.7339 12.3926 36.5564 12.6277 36.4559 13.1095C35.9117 15.7126 35.332 18.3098 34.7937 20.9129C34.699 21.3771 34.4979 21.5299 34.0424 21.524C32.7943 21.5064 31.5462 21.5181 30.1738 21.5181C30.304 20.8365 30.4045 20.2489 30.5287 19.6672C31.8419 13.5267 33.167 7.39208 34.4565 1.25158C34.5925 0.593464 34.8232 0.311413 35.5508 0.352546C36.722 0.417182 37.8992 0.370174 39.1887 0.370174L39.1946 0.387802Z" fill="white"/>
<path d="M165.309 21.5358C165.616 20.0727 165.882 18.7506 166.166 17.4343C167.332 11.9813 168.509 6.52835 169.662 1.06948C169.769 0.575889 169.946 0.358474 170.49 0.376102C171.739 0.417235 172.981 0.387854 174.347 0.387854C173.762 3.17311 173.194 5.84672 172.602 8.65548C173.117 8.65548 173.513 8.65548 173.904 8.65548C175.465 8.65548 177.027 8.62023 178.583 8.67311C179.251 8.69662 179.47 8.43219 179.588 7.83871C180.038 5.59405 180.552 3.36702 180.996 1.12236C181.108 0.552384 181.333 0.352598 181.925 0.376102C183.125 0.423111 184.326 0.387854 185.645 0.387854C185.545 0.922577 185.48 1.36916 185.385 1.81574C184.031 8.13839 182.67 14.461 181.333 20.7837C181.215 21.3302 181.031 21.577 180.416 21.5535C179.198 21.5064 177.973 21.5417 176.63 21.5417C177.287 18.4626 177.914 15.5129 178.565 12.4338C178.015 12.4338 177.571 12.4338 177.133 12.4338C175.666 12.4338 174.199 12.4867 172.738 12.4162C171.946 12.375 171.685 12.6688 171.543 13.3916C171.052 15.8889 170.485 18.3686 169.97 20.8601C169.869 21.3537 169.68 21.5711 169.136 21.5535C167.911 21.5182 166.687 21.5417 165.303 21.5417L165.309 21.5358Z" fill="white"/>
<path d="M162.7 21.5182C161.351 21.5182 160.032 21.5359 158.719 21.4889C158.583 21.4889 158.376 21.0952 158.352 20.866C158.234 19.6379 158.145 18.4039 158.092 17.1641C158.068 16.6411 157.861 16.5001 157.352 16.5059C155.483 16.5295 153.62 16.5236 151.751 16.5059C151.343 16.5059 151.112 16.6352 150.934 17.0054C150.295 18.3334 149.609 19.6379 148.97 20.9659C148.769 21.3831 148.509 21.5417 148.042 21.5359C146.729 21.5124 145.415 21.5241 143.984 21.5241C144.126 21.1892 144.203 20.9776 144.309 20.7779C147.805 14.1614 151.307 7.54495 154.791 0.922616C155.04 0.446654 155.329 0.246868 155.885 0.264496C157.228 0.305628 158.577 0.299752 159.926 0.264496C160.452 0.252744 160.677 0.405522 160.73 0.951996C161.375 7.45093 162.037 13.9499 162.694 20.4488C162.724 20.7661 162.694 21.0893 162.694 21.5065L162.7 21.5182ZM153.076 12.71C154.596 12.71 155.968 12.71 157.335 12.71C157.743 12.71 157.79 12.475 157.766 12.1577C157.707 11.3879 157.654 10.624 157.607 9.85424C157.483 7.90926 157.358 5.97016 157.24 4.06631C155.885 6.87507 154.513 9.72497 153.076 12.7041V12.71Z" fill="white"/>
<path d="M129.178 21.5359C129.468 20.155 129.716 18.9269 129.976 17.6988C131.148 12.2223 132.331 6.74585 133.484 1.26935C133.62 0.611233 133.851 0.340934 134.578 0.370314C136.584 0.458455 138.607 0.305677 140.594 0.54072C144.729 1.02843 146.22 3.84307 145.77 7.56262C145.338 11.1176 142.682 13.4328 138.713 13.8735C137.826 13.9734 136.921 14.0322 136.028 14.0087C135.418 13.991 135.217 14.2143 135.111 14.7667C134.703 16.8292 134.235 18.8741 133.827 20.9366C133.733 21.4008 133.537 21.5594 133.076 21.5535C131.828 21.5359 130.58 21.5477 129.184 21.5477L129.178 21.5359ZM136.164 10.1187C137.749 10.5829 139.831 9.90717 140.683 8.6732C141.393 7.63313 141.541 6.4873 141.014 5.34734C140.505 4.24852 139.435 4.12512 138.364 4.10162C138.222 4.10162 138.051 4.04873 137.944 4.11337C137.719 4.24852 137.4 4.40717 137.353 4.61284C137.01 5.99371 136.726 7.38634 136.424 8.77897C136.329 9.22555 136.252 9.67801 136.164 10.1187Z" fill="white"/>
<path d="M116.407 21.5358C117.649 15.7067 118.856 10.0128 120.098 4.18965H114.963C115.253 2.90279 115.496 1.75108 115.78 0.611123C115.803 0.505353 116.075 0.399584 116.235 0.399584C120.89 0.393708 125.546 0.399584 130.201 0.399584C130.29 0.399584 130.379 0.440717 130.574 0.493601C130.319 1.63943 130.095 2.77352 129.799 3.88997C129.763 4.02512 129.385 4.14264 129.16 4.14852C127.93 4.17202 126.699 4.19552 125.475 4.14852C124.83 4.11914 124.576 4.33067 124.446 4.95941C123.363 10.1421 122.251 15.3248 121.151 20.5016C121.005 21.1911 120.565 21.5378 119.832 21.5417C118.731 21.5417 117.631 21.5417 116.407 21.5417V21.5358Z" fill="white"/>
</g>
<defs>
<clipPath id="clip0_85_428">
<rect width="205" height="22" fill="white"/>
</clipPath>
</defs>
</svg>
