<svg width="143" height="90" viewBox="0 0 143 90" fill="none" xmlns="http://www.w3.org/2000/svg">
<g clip-path="url(#clip0_85_346)">
<path fill-rule="evenodd" clip-rule="evenodd" d="M28.7722 81.7133C28.7722 80.9719 28.6206 80.4264 28.3141 80.0873C28.0104 79.7455 27.3307 79.5758 26.2762 79.5758H24.0297C23.0535 79.5758 22.4001 79.7652 22.074 80.1345C21.744 80.5029 21.5832 81.0314 21.5832 81.7133V84.7871C21.5832 85.4712 21.744 85.9966 22.074 86.3718C22.4004 86.7448 23.0538 86.9305 24.0297 86.9305H26.2762C27.3307 86.9305 28.0009 86.758 28.2945 86.419C28.5778 86.0762 28.7394 85.5449 28.7722 84.8137V81.7136V81.7133ZM31.7964 88.997C31.1372 89.6687 29.9164 89.9976 28.1289 89.9976H22.2682C20.4938 89.9976 19.2645 89.6792 18.5847 89.031C17.8882 88.3895 17.5425 87.4192 17.5425 86.1126V80.3869C17.5425 79.0812 17.8885 78.1167 18.5847 77.4657C19.2645 76.8243 20.4938 76.5022 22.2682 76.5022H28.1289C29.9164 76.5022 31.1372 76.8348 31.7964 77.5028C32.4565 78.1707 32.779 79.1306 32.779 80.3872V86.1129C32.779 87.376 32.4565 88.3294 31.7964 88.9973V88.997Z" fill="white"/>
<path fill-rule="evenodd" clip-rule="evenodd" d="M49.3587 88.9968C48.7063 89.6685 47.4824 89.9974 45.698 89.9974H39.8382C38.0638 89.9974 36.8336 89.678 36.1474 89.0298C35.4548 88.3884 35.1152 87.418 35.1152 86.1123V80.3866C35.1152 79.08 35.4545 78.1165 36.1474 77.4655C36.8336 76.8241 38.0638 76.502 39.8382 76.502H45.698C47.4827 76.502 48.7063 76.8336 49.3587 77.5013C50.0189 78.1702 50.3486 79.13 50.3486 80.3866V81.7121H46.3342C46.3342 80.9707 46.1827 80.4261 45.8762 80.0908C45.5724 79.7449 44.8936 79.5755 43.8409 79.5755H41.5954C40.6193 79.5755 39.9658 79.765 39.6358 80.1333C39.3134 80.5027 39.145 81.0339 39.145 81.7121V84.786C39.145 85.4709 39.3134 85.9954 39.6358 86.3715C39.9658 86.7408 40.6193 86.9303 41.5954 86.9303H43.8409C44.8936 86.9303 45.5724 86.7569 45.8762 86.415C46.1827 86.0759 46.3342 85.5314 46.3342 84.7863H50.3486V86.1127C50.3486 87.3749 50.0186 88.3291 49.3587 88.9971V88.9968Z" fill="white"/>
<path fill-rule="evenodd" clip-rule="evenodd" d="M63.8847 76.5027V81.6669H56.6918V76.5027H52.7074L52.6841 80.3877V86.1134L52.7074 89.9981H56.6918V84.7407H63.8847V89.9981H67.9147V86.1134V80.3877V76.5027H63.8847Z" fill="white"/>
<path fill-rule="evenodd" clip-rule="evenodd" d="M75.4051 84.7409H74.2609C74.2741 85.4521 74.4449 85.9976 74.775 86.3724C75.1051 86.7417 75.7548 86.9312 76.7346 86.9312H85.4866V89.9983H74.9731C73.1988 89.9983 71.9648 89.6789 71.2823 89.0307C70.5962 88.3902 70.2529 87.4162 70.2529 86.1096V80.3879C70.2529 79.0849 70.5962 78.1177 71.2823 77.4667C71.9648 76.8253 73.1988 76.5032 74.9731 76.5032H85.4866V79.5734H76.7346C75.7548 79.5734 75.1051 79.7665 74.775 80.1358C74.4449 80.5042 74.2738 81.013 74.2609 81.6636H85.4866V84.7412H75.4051V84.7409Z" fill="white"/>
<path fill-rule="evenodd" clip-rule="evenodd" d="M121.281 76.5027H115.418H110.791V79.5793H116.292V89.9981H120.276V79.5793H126.002V76.5027H121.281Z" fill="white"/>
<path fill-rule="evenodd" clip-rule="evenodd" d="M91.6703 83.2749C91.6703 81.5935 93.0622 81.7696 93.0622 81.7696H97.1054V84.6248H93.0322C93.0322 84.6248 91.67 84.6775 91.67 83.2749H91.6703ZM105.143 84.6248H101.069V81.7696H105.113C105.113 81.7696 106.502 81.5935 106.502 83.2749C106.502 84.6775 105.143 84.6248 105.143 84.6248ZM107.264 78.9219H101.069V76.4558H97.1186V78.9219H90.7802C90.7802 78.9219 87.1782 79.0311 87.1782 83.1552C87.1782 87.2793 90.8794 87.3133 90.8794 87.3133H97.1186V89.9848H101.069V87.3133H107.165C107.165 87.3133 110.865 87.283 110.865 83.1552C110.865 79.0274 107.264 78.9219 107.264 78.9219Z" fill="white"/>
<path fill-rule="evenodd" clip-rule="evenodd" d="M9.89443 82.2739H3.98808V79.5761H9.89443C10.633 79.5761 11.2303 80.1808 11.2303 80.925C11.2303 81.6691 10.633 82.2739 9.89443 82.2739ZM14.2276 77.5015C13.5684 76.8336 12.3476 76.5022 10.5638 76.5022H0V90.0004H3.98808V85.345H10.5638C12.3476 85.345 13.5684 85.0124 14.2276 84.3484C14.8837 83.6804 15.2111 82.7132 15.2111 81.4603V80.3872C15.2111 79.1343 14.8837 78.1707 14.2276 77.5018V77.5015Z" fill="white"/>
<path fill-rule="evenodd" clip-rule="evenodd" d="M139.019 85.5801C139.019 86.3206 138.419 86.9262 137.684 86.9262H131.777V84.2272H137.684C138.419 84.2272 139.019 84.8291 139.019 85.5798V85.5801ZM143 86.1151V85.0411C143 83.7854 142.67 82.8218 142.018 82.1502C141.357 81.489 140.138 81.1564 138.346 81.1564H131.777L131.774 76.501H127.79V89.9964H138.346C140.138 89.9964 141.357 89.6675 142.018 88.9998C142.67 88.3282 143 87.3683 143 86.1154V86.1151Z" fill="white"/>
<path d="M67.8716 39.5693H62.6318V65.956H67.8716V39.5693Z" fill="white"/>
<path d="M74.0821 34.1255H68.8384V65.9562H74.0821V34.1255Z" fill="white"/>
<path d="M80.2888 39.5693H75.0518V65.956H80.2888V39.5693Z" fill="white"/>
<path fill-rule="evenodd" clip-rule="evenodd" d="M55.4445 40.6084L50.2075 35.903V22.3777H55.4445V40.6084Z" fill="white"/>
<path fill-rule="evenodd" clip-rule="evenodd" d="M61.6585 46.4922L56.415 41.2953V16.4006H61.6585V46.4922Z" fill="white"/>
<path d="M67.8716 10.5215H62.6318V38.7489H67.8716V10.5215Z" fill="white"/>
<path d="M74.0821 4.6394H68.8384V32.9658H74.0821V4.6394Z" fill="white"/>
<path fill-rule="evenodd" clip-rule="evenodd" d="M87.4731 40.6084L92.7102 35.903V22.3777H87.4731V40.6084Z" fill="white"/>
<path fill-rule="evenodd" clip-rule="evenodd" d="M81.2578 46.4922L86.4988 41.2953V16.4006H81.2578V46.4922Z" fill="white"/>
<path d="M80.2888 10.5215H75.0518V38.7489H80.2888V10.5215Z" fill="white"/>
</g>
<defs>
<clipPath id="clip0_85_346">
<rect width="143" height="90" fill="white"/>
</clipPath>
</defs>
</svg>
