<svg width="40" height="66" viewBox="0 0 40 66" fill="none" xmlns="http://www.w3.org/2000/svg">
<g clip-path="url(#clip0_211_774)">
<rect width="40" height="66" fill="#0847C2"/>
<g clip-path="url(#clip1_211_774)">
<path d="M-7 48.9863C-2.2114 47.5104 2.7017 46.8112 7.57478 46.3132C7.93492 44.2021 7.06346 42.3012 6.78779 40.3089C6.09418 35.3647 7.31245 31.074 10.8161 27.5372C12.0255 26.3171 13.4927 25.5403 15.1378 25.1885C16.1694 24.9692 16.9119 24.4117 17.5299 23.5983C17.6055 23.4978 17.6989 23.4064 17.7611 23.2967C18.4281 22.1041 19.2995 21.277 20.6956 20.9435C21.905 20.651 22.7631 19.6366 23.639 18.7501C23.7591 18.6313 23.8036 18.3891 23.808 18.2018C23.8302 17.233 24.3327 16.767 25.2175 17.1051C25.9333 17.3793 26.6002 17.265 27.2983 17.2285C28.3076 17.1782 29.3213 17.1645 30.3351 17.1417C30.4551 17.1417 30.6285 17.1508 30.6819 17.2239C31.2732 18.051 31.9935 17.5712 32.6738 17.4341C32.865 17.3975 33.0384 17.2787 33.2251 17.2422C33.3496 17.2193 33.5675 17.2239 33.6164 17.3016C33.8743 17.7311 34.1411 18.1698 34.3056 18.6404C34.3901 18.878 34.2745 19.1933 34.2167 19.4675C34.1055 18.2246 32.7894 17.4661 31.7045 18.0784C31.1354 18.3983 30.6241 18.8369 30.0994 19.2116C30.1217 18.9603 30.2462 18.645 30.1439 18.4668C30.0283 18.2703 29.7082 18.1972 29.477 17.9642H30.8242C30.6419 17.5666 30.3929 17.329 29.9572 17.361C28.9834 17.425 28.0008 17.4615 27.036 17.5986C26.7292 17.6397 26.4313 17.9276 26.1867 18.1606C25.9867 18.348 25.8666 18.6267 25.6354 18.8278C25.7154 18.5582 25.9022 18.2657 25.8488 18.0327C25.8044 17.8316 25.5109 17.6352 25.2842 17.5346C24.8973 17.361 24.5016 17.4112 24.2526 17.8134C24.017 18.1972 24.2571 18.7821 24.8129 19.2619C24.6024 19.3441 24.2749 19.204 23.8302 18.8415C23.4256 19.2984 23.0433 19.8102 22.5853 20.2352C22.1629 20.6327 21.7094 21.0897 21.1892 21.2633C19.5574 21.8025 18.5081 22.9906 17.6011 24.366C17.023 25.2388 16.8096 26.2258 16.8363 27.2722C16.8452 27.5829 16.8363 27.889 16.7251 28.2135C16.6407 27.2676 16.5606 26.3217 16.4717 25.2982C16.0449 25.3941 15.5825 25.4764 15.1289 25.5952C12.7724 26.2212 10.905 27.56 9.60226 29.6711C8.47737 31.4898 7.40582 33.3541 7.22353 35.5658C7.08569 37.2884 7.35691 38.9792 7.87712 40.6242C7.92603 40.7795 8.00162 40.9303 8.09499 41.0583C8.37955 41.4604 8.75303 41.4558 8.98868 41.0308C9.8557 39.4498 10.6916 37.8551 11.5853 36.2877C11.7542 35.9953 12.0922 35.7577 12.4034 35.6069C12.6791 35.4698 13.0259 35.4744 13.3416 35.4287C14.1997 35.3099 15 35.0585 15.6803 34.4691C15.9293 34.2543 16.2316 34.099 16.6095 33.8522C16.6095 34.1492 16.6362 34.3274 16.6095 34.4874C16.1471 37.1057 16.1605 39.7423 16.365 42.3834C16.4006 42.8175 16.4139 43.2562 16.4628 43.6903C16.5473 44.4077 16.8141 44.6956 17.521 44.7413C18.2991 44.7915 19.0816 44.7961 19.8642 44.7915C20.1132 44.7915 20.3622 44.7001 20.6112 44.6499C20.6201 44.5859 20.6289 44.5173 20.6378 44.4534C20.4111 44.3528 20.1932 44.2066 19.9531 44.1609C19.3751 44.0604 19.1483 43.6948 19.2462 43.1511C19.3529 42.5479 19.4907 41.9356 19.7086 41.369C19.9931 40.6242 20.3577 39.9113 20.709 39.1985C21.3804 37.8551 22.0562 36.5116 22.7587 35.1865C22.8698 34.9763 23.1099 34.8118 23.3189 34.6838C23.9192 34.3183 24.515 33.9619 24.7417 33.217C25.2264 31.5995 25.7644 30.0001 26.1779 28.3643C26.3735 27.5829 26.369 26.7375 26.3779 25.9242C26.3779 25.6089 26.1912 25.2753 26.0534 24.9737C25.9822 24.8138 25.8266 24.695 25.711 24.5579C24.0081 22.5976 24.5239 19.9336 26.8403 18.7364C26.867 18.7227 26.9026 18.7364 26.9826 18.7455C26.4002 19.5223 26.1734 20.3951 26.1023 21.3319C25.9867 22.8443 26.8981 23.9593 28.361 23.8085C29.2947 23.7125 29.966 24.0096 30.6952 24.5122C31.2021 24.8641 31.8424 25.0514 32.4471 25.2205C32.8561 25.3347 33.1229 25.0834 33.1095 24.663C32.8606 24.6904 32.536 24.8229 32.3981 24.7133C32.2336 24.5807 32.2247 24.2426 32.1447 23.9821C32.0691 24.037 31.9446 24.1238 31.7757 24.2426C31.1399 23.5572 30.6419 22.8398 30.7441 21.8391C30.8464 20.8292 31.3977 20.1164 32.2381 19.6549C32.3893 19.5726 32.7183 19.8194 32.985 19.9245C32.9984 19.8194 33.0206 19.6137 33.0473 19.4127C33.6253 19.2893 33.7053 19.3533 33.8787 20.0021C33.6876 20.0981 33.4741 20.1392 33.3496 20.2717C32.696 20.9663 32.616 21.8711 32.5893 22.7667C32.576 23.2602 32.6783 23.7582 32.7316 24.3157C32.9717 24.2106 33.0918 24.1558 33.2918 24.069C33.2918 24.4254 33.3319 24.7315 33.2741 25.024C33.2429 25.1793 33.0517 25.4078 32.9228 25.417C32.2603 25.4489 31.5845 25.4718 30.9264 25.3895C30.1439 25.2982 30.0283 25.3073 29.6103 25.979C29.268 26.5319 28.8856 27.062 28.5877 27.6377C28.4321 27.9393 28.3343 28.3231 28.3476 28.6659C28.3965 29.7214 28.5077 30.7724 28.5966 31.8234C28.6544 32.5271 28.8945 33.1302 29.3258 33.7151C29.966 34.5833 30.4996 35.5338 31.0554 36.4659C31.5845 37.3524 32.0914 38.248 32.5849 39.1528C32.7227 39.3995 32.8294 39.6828 32.8739 39.9616C33.0829 41.2776 33.5853 42.4748 34.2522 43.6035C34.4879 44.0056 34.4078 44.3391 34.15 44.723C34.0299 44.4671 33.9365 44.2706 33.8432 44.0741C33.8076 44.0832 33.772 44.0924 33.7365 44.1015C33.7231 44.3072 33.7098 44.5128 33.692 44.7778C33.5586 44.7915 33.4163 44.8052 33.2563 44.8189C33.2074 44.5402 33.1629 44.3026 33.1184 44.0421C33.0295 44.097 32.9851 44.1107 32.9717 44.1381C32.6871 44.8692 32.6338 44.9012 31.9891 44.4305C30.8464 43.5989 30.1439 42.4428 29.6415 41.1222C29.5348 40.8389 29.2769 40.551 29.0146 40.4048C27.1871 39.3858 25.4042 38.2937 23.8125 36.9092C23.5812 36.7081 23.4568 36.3563 23.3189 36.0593C23.23 35.8765 23.2033 35.6617 23.15 35.4607C23.0566 35.4881 23.0032 35.4881 22.9943 35.5109C22.2918 36.8589 21.5982 38.2069 20.8868 39.5503C20.2377 40.7795 20.211 42.1367 20.0998 43.4755C20.0909 43.5852 20.2732 43.7634 20.4022 43.8182C20.6467 43.9187 20.9179 43.9507 21.1758 44.0147C21.8694 44.1838 22.3674 44.5768 22.5631 45.2987C22.6609 45.6597 22.8565 45.7648 23.2122 45.7785C25.4665 45.8516 27.7251 45.9019 29.9749 46.0481C35.8306 46.432 41.6419 47.1402 47.3108 48.7715C47.5643 48.8446 47.8177 48.9315 48.0178 48.9954C29.7215 46.0481 11.3808 45.9704 -6.98222 48.9863H-7ZM25.96 33.4318C25.9956 33.4775 26.0267 33.5278 26.0623 33.5735C25.9422 33.6557 25.8088 33.7151 25.711 33.8156C24.8262 34.725 24.7862 35.6663 25.6532 36.5939C26.0667 37.0371 26.5513 37.421 27.0449 37.7682C28.0275 38.4537 29.0234 39.1162 30.0372 39.7514C30.4596 40.0164 30.7086 40.35 30.8331 40.8389C31.0909 41.8396 31.5356 42.7398 32.3092 43.4435C32.7716 43.8639 33.2652 43.9325 33.7142 43.6994C33.2963 42.2874 32.8961 40.9257 32.4871 39.564C32.4471 39.427 32.3804 39.2944 32.3048 39.1711C31.7846 38.3486 31.2821 37.5124 30.7264 36.7173C29.846 35.4607 28.9479 34.2223 28.0141 33.0114C27.823 32.7647 27.7518 32.6139 27.8407 32.3077C28.1386 31.2613 28.0853 30.2378 27.534 29.2096C25.6043 30.1281 25.6888 32.1158 25.0085 33.7974C25.4087 33.6466 25.6843 33.5415 25.96 33.4364V33.4318ZM12.768 39.3584C12.479 40.0393 12.1722 40.615 11.9855 41.2319C11.6831 42.2143 11.4563 43.2196 11.2118 44.2203C11.1407 44.5036 11.2474 44.7001 11.5408 44.8007C12.0744 44.9926 12.559 45.253 12.5857 45.9567C13.3504 45.9156 14.0485 45.8745 14.7332 45.8379C14.5732 44.6407 14.502 43.5075 14.2575 42.4154C14.0174 41.3324 13.6172 40.2814 12.7724 39.3584H12.768ZM21.7049 45.71C21.4915 45.3627 21.3448 45.1205 21.1314 44.7732C20.9802 45.4358 21.1002 45.6369 21.7049 45.71Z" fill="white"/>
</g>
</g>
<defs>
<clipPath id="clip0_211_774">
<rect width="40" height="66" fill="white"/>
</clipPath>
<clipPath id="clip1_211_774">
<rect width="55" height="32" fill="white" transform="translate(-7 17)"/>
</clipPath>
</defs>
</svg>
