<svg width="54" height="55" viewBox="0 0 54 55" fill="none" xmlns="http://www.w3.org/2000/svg">
<path d="M2 23.9976V32.0099C2 37.4254 4.91905 42.4204 9.63727 45.0786L19.8113 50.8106C24.4217 53.408 30.0597 53.384 34.6478 50.7474L44.4737 45.1009C49.1295 42.4254 52 37.4652 52 32.0954V23.9103C52 18.7657 49.3635 13.9799 45.0148 11.2311L35.1835 5.01652C30.3291 1.94793 24.1487 1.9204 19.2672 4.94564L9.09843 11.2475C4.68508 13.9825 2 18.8054 2 23.9976Z" fill="#663B16" stroke="#864D30" stroke-width="3"/>
<path d="M25.0787 18.3564C25.8131 16.7769 28.0753 16.8259 28.7406 18.4357L30.3292 22.2795C30.6133 22.9669 31.2554 23.4398 31.9961 23.5073L35.8435 23.8578C37.7153 24.0283 38.3396 26.4526 36.7829 27.5059L33.9127 29.4482C33.1844 29.941 32.8635 30.8517 33.1218 31.6922L34.3612 35.7244C34.9024 37.4852 32.9772 38.9794 31.4058 38.0181L28.0436 35.9614C27.403 35.5695 26.5969 35.5695 25.9563 35.9614L22.0766 38.3347C20.5752 39.2532 18.7051 37.9243 19.0785 36.2043L20.0946 31.5239C20.2596 30.7637 19.9689 29.9768 19.3493 29.5065L16.6581 27.4638C15.207 26.3624 15.8639 24.0526 17.6774 23.8797L21.5941 23.5063C22.3007 23.4389 22.9186 23.0021 23.2178 22.3585L25.0787 18.3564Z" fill="url(#paint0_linear_6_113)"/>
<defs>
<linearGradient id="paint0_linear_6_113" x1="27" y1="14.2242" x2="27" y2="40.7759" gradientUnits="userSpaceOnUse">
<stop stop-color="#D7742F"/>
<stop offset="1" stop-color="#F3AE77"/>
</linearGradient>
</defs>
</svg>
