<svg width="54" height="55" viewBox="0 0 54 55" fill="none" xmlns="http://www.w3.org/2000/svg">
<path d="M2 23.9976V32.0099C2 37.4254 4.91905 42.4204 9.63727 45.0786L19.8113 50.8106C24.4217 53.408 30.0597 53.384 34.6478 50.7474L44.4737 45.1009C49.1295 42.4254 52 37.4652 52 32.0954V23.9103C52 18.7657 49.3635 13.9799 45.0148 11.2311L35.1835 5.01652C30.3291 1.94793 24.1487 1.9204 19.2672 4.94564L9.09843 11.2475C4.68508 13.9825 2 18.8054 2 23.9976Z" fill="#7E6F20" fill-opacity="0.25" stroke="#8A7C21" stroke-width="3"/>
<path d="M26.7529 41.4614C26.7989 41.5019 26.2169 39.088 26.2784 39.0928C28.827 38.735 29.0053 39.2084 26.2784 39.0928C26.2998 39.0358 25.7636 37.4036 25.7457 37.3454L20.0326 26.3623C19.9996 26.2504 19.9327 26.1511 19.8408 26.0778C19.7489 26.0045 19.6365 25.9607 19.5187 25.9523C18.9298 25.9096 18.3423 25.8626 17.7548 25.8099L12.8904 25.3728C12.839 25.3678 12.7872 25.3767 12.7405 25.3986C12.6938 25.4204 12.6539 25.4542 12.6252 25.4966C12.5965 25.539 12.5799 25.5882 12.5773 25.6391C12.5747 25.69 12.5861 25.7407 12.6104 25.7857C15.2418 30.641 22.5727 37.7794 26.7529 41.4614ZM26.7792 41.5504C26.8081 41.6501 26.8947 41.7241 27.0001 41.7241C27.051 41.7226 27.1 41.7049 27.1398 41.6736C27.1797 41.6423 27.2081 41.599 27.2209 41.5504L31.6725 26.4962C31.6857 26.4525 31.6881 26.4063 31.6795 26.3614C31.6708 26.3166 31.6514 26.2745 31.6228 26.2387C31.5943 26.2028 31.5574 26.1742 31.5153 26.1554C31.4732 26.1365 31.4271 26.1279 31.3809 26.1302C28.4617 26.2538 25.5384 26.2538 22.6192 26.1302C22.5732 26.128 22.5273 26.1366 22.4853 26.1554C22.4434 26.1742 22.4066 26.2026 22.378 26.2383C22.3495 26.2739 22.33 26.3158 22.3212 26.3605C22.3125 26.4051 22.3147 26.4511 22.3276 26.4948L26.7792 41.5504ZM28.4643 37.3454C28.3835 37.616 27.0073 41.7384 27.2209 41.5504C31.4011 37.8669 38.7583 30.641 41.3897 25.7857C41.4139 25.7408 41.4253 25.6903 41.4227 25.6395C41.4202 25.5888 41.4038 25.5396 41.3752 25.4973C41.3467 25.455 41.3071 25.4211 41.2606 25.3992C41.2141 25.3772 41.1625 25.3681 41.1111 25.3728L36.2467 25.8099C35.6578 25.8626 35.0703 25.9096 34.4814 25.9523C34.3636 25.9607 34.2512 26.0045 34.1593 26.0778C34.0675 26.1511 34.0005 26.2504 33.9676 26.3623L28.4643 37.3454ZM41.1472 23.2256C41.1976 23.2213 41.2459 23.2039 41.2873 23.1754C41.3287 23.1469 41.3618 23.1081 41.3833 23.063C41.4048 23.0179 41.4139 22.968 41.4097 22.9183C41.4055 22.8687 41.3882 22.821 41.3594 22.78L36.6856 16.095C36.4864 15.8103 36.2201 15.5776 35.9095 15.4169C35.599 15.2562 35.2536 15.1723 34.9029 15.1724H31.3087C31.2613 15.1724 31.2146 15.1839 31.1728 15.2059C31.131 15.2279 31.0953 15.2598 31.0689 15.2986C31.0425 15.3375 31.0262 15.3821 31.0215 15.4286C31.0167 15.4752 31.0237 15.5221 31.0417 15.5654L34.2995 23.4292C34.3458 23.5405 34.4266 23.6344 34.5303 23.6976C34.634 23.7607 34.7554 23.7899 34.8769 23.7809C35.2667 23.751 35.6593 23.7183 36.0504 23.6812L41.1472 23.2256ZM28.6817 15.5227C28.6377 15.4187 28.5635 15.33 28.4685 15.2677C28.3734 15.2053 28.2617 15.1722 28.1476 15.1724H25.8525C25.7384 15.1722 25.6267 15.2053 25.5316 15.2677C25.4366 15.33 25.3624 15.4187 25.3184 15.5227L21.9148 23.5787C21.8972 23.6209 21.8901 23.6666 21.8941 23.712C21.8981 23.7575 21.9131 23.8013 21.9379 23.8398C21.9626 23.8783 21.9964 23.9104 22.0363 23.9333C22.0763 23.9563 22.1212 23.9695 22.1674 23.9717C25.3863 24.1255 28.6138 24.1255 31.8341 23.9717C31.8802 23.9692 31.925 23.9559 31.9647 23.9329C32.0045 23.9098 32.0381 23.8777 32.0627 23.8392C32.0872 23.8008 32.1021 23.757 32.1061 23.7117C32.11 23.6664 32.1029 23.6208 32.0853 23.5787L28.6817 15.5227ZM22.9584 15.5654C22.9764 15.5221 22.9834 15.4752 22.9786 15.4286C22.9739 15.3821 22.9576 15.3375 22.9312 15.2986C22.9048 15.2598 22.8691 15.2279 22.8273 15.2059C22.7855 15.1839 22.7388 15.1724 22.6914 15.1724H19.0972C18.7465 15.1723 18.4011 15.2562 18.0906 15.4169C17.78 15.5776 17.5137 15.8103 17.3145 16.095L12.6407 22.78C12.6119 22.821 12.5946 22.8687 12.5904 22.9183C12.5862 22.968 12.5953 23.0179 12.6168 23.063C12.6383 23.1081 12.6714 23.1469 12.7128 23.1754C12.7542 23.2039 12.8025 23.2213 12.8529 23.2256L17.9497 23.6812C18.3408 23.7183 18.732 23.751 19.1232 23.7809C19.2448 23.7901 19.3662 23.7611 19.47 23.6979C19.5737 23.6347 19.6545 23.5406 19.7006 23.4292L22.9584 15.5654Z" fill="url(#paint0_linear_6_101)"/>
<defs>
<linearGradient id="paint0_linear_6_101" x1="27" y1="15.1724" x2="27" y2="41.7241" gradientUnits="userSpaceOnUse">
<stop stop-color="#CFA63C"/>
<stop offset="1" stop-color="#DFC12A"/>
</linearGradient>
</defs>
</svg>
