<svg width="54" height="55" viewBox="0 0 54 55" fill="none" xmlns="http://www.w3.org/2000/svg">
<path d="M2 23.9976V32.0099C2 37.4254 4.91905 42.4204 9.63727 45.0786L19.8113 50.8106C24.4217 53.408 30.0597 53.384 34.6478 50.7474L44.4737 45.1009C49.1295 42.4254 52 37.4652 52 32.0954V23.9103C52 18.7657 49.3635 13.9799 45.0148 11.2311L35.1835 5.01652C30.3291 1.94793 24.1487 1.9204 19.2672 4.94564L9.09843 11.2475C4.68508 13.9825 2 18.8054 2 23.9976Z" fill="#5C5A5F" fill-opacity="0.25" stroke="#5C5A5F" stroke-width="3"/>
<path d="M40.8582 29.9324L41.1899 26.5281C41.4495 23.8562 41.5793 22.5188 41.1062 21.9668C40.9873 21.8229 40.84 21.7034 40.6728 21.6154C40.5056 21.5273 40.322 21.4724 40.1327 21.454C39.4462 21.3953 38.5851 22.3456 36.8616 24.2461C35.9703 25.2299 35.5318 25.0035 35.0357 25.0804C34.7586 25.1222 34.4749 25.0782 34.2252 24.9546C33.7651 24.731 33.4535 24.84 32.8406 23.6256L29.8839 17.9673C28.9594 16.5699 27.8792 15.1724 26.9994 15.1724C26.1196 15.1724 25.0379 16.5699 24.1148 17.9673L21.1582 23.6256C20.5467 24.8414 20.2481 24.731 19.788 24.9546C19.5382 25.078 19.2546 25.122 18.9775 25.0804C18.4813 25.0035 18.0285 25.2299 17.1371 24.2461C15.4136 22.3456 14.5526 21.3953 13.8661 21.454C13.6768 21.4724 13.4931 21.5273 13.326 21.6154C13.1588 21.7034 13.0115 21.8229 12.8925 21.9668C12.4209 22.5188 12.5507 23.8562 12.8103 26.5281L13.1406 29.9324C13.6858 35.539 13.9569 38.3437 15.6646 40.0332C17.3679 41.7241 19.9236 41.7241 25.0379 41.7241H28.9594C34.0723 41.7241 36.628 41.7241 38.3342 40.0332C40.0404 38.3423 40.313 35.539 40.8582 29.9324Z" fill="url(#paint0_linear_6_107)"/>
<defs>
<linearGradient id="paint0_linear_6_107" x1="27" y1="15.1724" x2="27" y2="41.7241" gradientUnits="userSpaceOnUse">
<stop stop-color="#434650"/>
<stop offset="0.0001" stop-color="#757575"/>
<stop offset="1" stop-color="#BEBEBE"/>
</linearGradient>
</defs>
</svg>
