<svg width="193" height="65" viewBox="0 0 193 65" fill="none" xmlns="http://www.w3.org/2000/svg">
<g clip-path="url(#clip0_85_282)">
<path d="M98.4782 33.4417H95.8402L91.6924 28.0036V33.4417H89.4028V21.8359H91.6924V26.9591L95.6743 21.8359H98.3123L94.0152 27.473L98.4782 33.4417Z" fill="white"/>
<path d="M105.707 21.8359H107.997L104.512 30.2419C103.583 32.4968 102.057 33.5633 99.9332 33.4417V31.303C100.553 31.3582 101.05 31.2753 101.426 31.0543C101.814 30.8221 102.134 30.452 102.389 29.9435L98.5894 21.8359H100.879L103.417 27.4399L105.707 21.8359Z" fill="white"/>
<path d="M114.677 27.4398C115.783 28.0257 116.336 28.943 116.336 30.1921C116.336 31.231 115.943 32.0711 115.158 32.7122C114.372 33.3533 113.36 33.6738 112.121 33.6738C109.965 33.6738 108.521 32.7619 107.791 30.9382L109.766 29.8273C110.12 30.9547 110.905 31.5184 112.121 31.5184C112.753 31.5184 113.233 31.3858 113.565 31.1205C113.897 30.8553 114.063 30.496 114.063 30.0429C114.063 29.5897 113.897 29.2304 113.565 28.9652C113.244 28.6998 112.78 28.5673 112.171 28.5673H110.728V26.5279H111.823C112.398 26.5279 112.846 26.4063 113.167 26.1631C113.488 25.909 113.648 25.5663 113.648 25.1353C113.648 24.7042 113.51 24.367 113.233 24.1238C112.957 23.8697 112.548 23.7426 112.006 23.7426C111.01 23.7426 110.313 24.2289 109.915 25.2016L107.974 24.0742C108.759 22.4272 110.103 21.6038 112.006 21.6038C113.156 21.6038 114.096 21.9132 114.826 22.5322C115.556 23.1512 115.922 23.9691 115.922 24.986C115.922 26.025 115.507 26.843 114.677 27.4398Z" fill="white"/>
<path d="M122.268 26.2296C123.396 26.2296 124.32 26.5668 125.038 27.241C125.757 27.9042 126.118 28.7663 126.118 29.8274C126.118 30.8996 125.757 31.7727 125.038 32.447C124.32 33.1102 123.396 33.4417 122.268 33.4417H117.822V21.8359H125.122V24.0245H120.111V26.2296H122.268ZM122.268 31.303C122.721 31.303 123.098 31.1759 123.396 30.9217C123.695 30.6564 123.844 30.2916 123.844 29.8274C123.844 29.3632 123.695 29.0039 123.396 28.7497C123.098 28.4955 122.721 28.3683 122.268 28.3683H120.111V31.303H122.268Z" fill="white"/>
<path d="M134.749 33.4417L134.053 31.3528H129.424L128.727 33.4417H126.255L130.32 21.8359H133.157L137.238 33.4417H134.749ZM130.153 29.214H133.339L131.746 24.4722L130.153 29.214Z" fill="white"/>
<path d="M143.454 33.6738C141.706 33.6738 140.262 33.0935 139.123 31.9329C137.983 30.7724 137.414 29.341 137.414 27.6387C137.414 25.9255 137.983 24.4941 139.123 23.3446C140.262 22.1841 141.706 21.6038 143.454 21.6038C144.504 21.6038 145.472 21.8525 146.356 22.3499C147.253 22.8362 147.949 23.4994 148.447 24.3394L146.472 25.4834C146.185 24.9639 145.776 24.5605 145.245 24.2731C144.714 23.9747 144.117 23.8255 143.454 23.8255C142.324 23.8255 141.413 24.1791 140.715 24.8866C140.03 25.5939 139.687 26.5114 139.687 27.6387C139.687 28.7551 140.03 29.6671 140.715 30.3744C141.413 31.0818 142.324 31.4355 143.454 31.4355C144.117 31.4355 144.714 31.2919 145.245 31.0045C145.787 30.706 146.196 30.3026 146.472 29.7942L148.447 30.9382C147.949 31.7782 147.258 32.4469 146.373 32.9443C145.488 33.4307 144.515 33.6738 143.454 33.6738Z" fill="white"/>
<path d="M155.248 33.6738C153.5 33.6738 152.058 33.0935 150.918 31.9329C149.779 30.7724 149.209 29.341 149.209 27.6387C149.209 25.9255 149.779 24.4941 150.918 23.3446C152.058 22.1841 153.5 21.6038 155.248 21.6038C156.299 21.6038 157.266 21.8525 158.151 22.3499C159.047 22.8362 159.745 23.4994 160.242 24.3394L158.268 25.4834C157.98 24.9639 157.571 24.5605 157.04 24.2731C156.509 23.9747 155.912 23.8255 155.248 23.8255C154.12 23.8255 153.208 24.1791 152.511 24.8866C151.825 25.5939 151.482 26.5114 151.482 27.6387C151.482 28.7551 151.825 29.6671 152.511 30.3744C153.208 31.0818 154.12 31.4355 155.248 31.4355C155.912 31.4355 156.509 31.2919 157.04 31.0045C157.582 30.706 157.992 30.3026 158.268 29.7942L160.242 30.9382C159.745 31.7782 159.054 32.4469 158.169 32.9443C157.283 33.4307 156.31 33.6738 155.248 33.6738Z" fill="white"/>
<path d="M170.724 33.4417H168.086L163.938 28.0036V33.4417H161.649V21.8359H163.938V26.9591L167.92 21.8359H170.558L166.261 27.473L170.724 33.4417Z" fill="white"/>
<path d="M178.575 33.4417V26.3623L173.598 33.4417H171.855V21.8359H174.146V28.9321L179.122 21.8359H180.865V33.4417H178.575Z" fill="white"/>
<path d="M185.109 20.7748V18.918H189.921V20.7748H185.109ZM189.738 33.4417V26.3623L184.761 33.4417H183.02V21.8359H185.309V28.9321L190.286 21.8359H192.028V33.4417H189.738Z" fill="white"/>
<path d="M88.4897 49.1797V48.1866C89.034 48.2654 89.4401 48.1157 89.7083 47.7373C89.9844 47.3512 90.1224 46.6379 90.1224 45.5974V40.9038H95.5882V49.1797H94.488V41.9441H91.2227V45.5974C91.2227 46.3383 91.1516 46.961 91.0097 47.4654C90.8756 47.962 90.6784 48.3364 90.4181 48.5886C90.1658 48.8408 89.8818 49.0142 89.5664 49.1088C89.2588 49.1955 88.8998 49.2191 88.4897 49.1797Z" fill="white"/>
<path d="M102.515 49.1797V43.0082L98.2554 49.1797H97.3682V40.9038H98.4684V47.0871L102.727 40.9038H103.615V49.1797H102.515Z" fill="white"/>
<path d="M110.687 40.9038V41.9441H108.238V49.1797H107.149V41.9441H104.712V40.9038H110.687Z" fill="white"/>
<path d="M112.876 48.1394H116.721V49.1797H111.776V40.9038H116.662V41.9441H112.876V44.4861H116.366V45.5147H112.876V48.1394Z" fill="white"/>
<path d="M119.576 40.0169V39.1184H122.769V40.0169H119.576ZM123.196 49.1796V43.0081L118.936 49.1796H118.049V40.9037H119.149V47.087L123.408 40.9037H124.296V49.1796H123.196Z" fill="white"/>
<path d="M131.19 40.9038H132.279V49.1797H131.19V45.4555H127.168V49.1797H126.067V40.9038H127.168V44.4152H131.19V40.9038Z" fill="white"/>
<path d="M134.051 49.1797V40.9038H135.151V43.8595H137.056C137.821 43.8595 138.456 44.1157 138.961 44.628C139.473 45.1403 139.73 45.7708 139.73 46.5196C139.73 47.2763 139.473 47.9108 138.961 48.423C138.456 48.9275 137.821 49.1797 137.056 49.1797H134.051ZM140.57 49.1797V40.9038H141.669V49.1797H140.57ZM135.151 48.1512H137.056C137.513 48.1512 137.892 47.9974 138.191 47.69C138.491 47.3827 138.641 46.9925 138.641 46.5196C138.641 46.0467 138.491 45.6566 138.191 45.3492C137.892 45.0417 137.513 44.8881 137.056 44.8881H135.151V48.1512Z" fill="white"/>
<path d="M144.97 40.0169V39.1184H148.164V40.0169H144.97ZM148.59 49.1796V43.0081L144.331 49.1796H143.444V40.9037H144.544V47.087L148.803 40.9037H149.69V49.1796H148.59Z" fill="white"/>
<path d="M158.442 44.8999C158.868 45.0811 159.199 45.3452 159.436 45.6919C159.673 46.0388 159.791 46.4486 159.791 46.9215C159.791 47.6309 159.522 48.2102 158.986 48.6594C158.458 49.1088 157.756 49.3334 156.88 49.3334C156.084 49.3334 155.441 49.1561 154.952 48.8014C154.471 48.4466 154.132 47.9895 153.935 47.4299L154.869 46.8979C155.113 47.828 155.784 48.293 156.88 48.293C157.456 48.293 157.902 48.1668 158.217 47.9146C158.533 47.6546 158.691 47.3117 158.691 46.8861C158.691 46.4604 158.54 46.1176 158.241 45.8575C157.95 45.5974 157.539 45.4673 157.01 45.4673H156.041V44.4624H156.738C157.244 44.4624 157.646 44.3402 157.945 44.0959C158.245 43.8437 158.395 43.5166 158.395 43.1146C158.395 42.7205 158.253 42.4013 157.969 42.157C157.693 41.9048 157.307 41.7786 156.81 41.7786C155.895 41.7786 155.283 42.1846 154.976 42.9963L154.053 42.4643C154.55 41.3215 155.468 40.75 156.81 40.75C157.606 40.75 158.249 40.9707 158.738 41.4122C159.235 41.8535 159.483 42.4132 159.483 43.091C159.483 43.8792 159.136 44.4821 158.442 44.8999Z" fill="white"/>
<path d="M166.552 49.1797L165.878 47.3236H162.151L161.476 49.1797H160.305L163.393 40.9038H164.635L167.723 49.1797H166.552ZM162.529 46.295H165.499L164.008 42.2161L162.529 46.295Z" fill="white"/>
<path d="M173.432 44.8881C173.811 45.0694 174.111 45.3295 174.331 45.6684C174.561 46.0073 174.675 46.3975 174.675 46.8388C174.675 47.5009 174.442 48.0566 173.976 48.5058C173.511 48.9551 172.943 49.1797 172.273 49.1797H168.7V40.9038H172.013C172.659 40.9038 173.207 41.1205 173.657 41.554C174.106 41.9875 174.331 42.5235 174.331 43.162C174.331 43.895 174.032 44.4703 173.432 44.8881ZM172.013 41.9324H169.801V44.4624H172.013C172.36 44.4624 172.652 44.3403 172.889 44.0959C173.124 43.8516 173.243 43.5521 173.243 43.1974C173.243 42.8506 173.121 42.555 172.876 42.3107C172.64 42.0585 172.352 41.9324 172.013 41.9324ZM172.273 48.1512C172.643 48.1512 172.955 48.0211 173.207 47.761C173.46 47.5009 173.586 47.1816 173.586 46.8034C173.586 46.4329 173.456 46.1177 173.196 45.8576C172.943 45.5974 172.636 45.4673 172.273 45.4673H169.801V48.1512H172.273Z" fill="white"/>
<path d="M182.864 48.0802C182.036 48.9156 181.022 49.3334 179.824 49.3334C178.625 49.3334 177.611 48.9156 176.783 48.0802C175.955 47.2447 175.541 46.2318 175.541 45.0417C175.541 43.8437 175.955 42.8309 176.783 42.0032C177.611 41.1678 178.625 40.75 179.824 40.75C181.022 40.75 182.036 41.1678 182.864 42.0032C183.701 42.8309 184.119 43.8437 184.119 45.0417C184.119 46.2318 183.701 47.2447 182.864 48.0802ZM177.541 47.3354C178.156 47.9501 178.916 48.2575 179.824 48.2575C180.731 48.2575 181.488 47.9501 182.095 47.3354C182.71 46.7126 183.018 45.9481 183.018 45.0417C183.018 44.1274 182.71 43.3629 182.095 42.7481C181.488 42.1254 180.731 41.8141 179.824 41.8141C178.916 41.8141 178.156 42.1254 177.541 42.7481C176.933 43.3629 176.629 44.1274 176.629 45.0417C176.629 45.9481 176.933 46.7126 177.541 47.3354Z" fill="white"/>
<path d="M191.14 48.1394H192.027V50.764H190.927V49.1797H185.461V50.764H184.362V48.1394H185.083C185.596 47.5009 185.852 46.5314 185.852 45.2309V40.9038H191.14V48.1394ZM186.325 48.1394H190.04V41.9324H186.952V45.2545C186.952 46.5078 186.743 47.4693 186.325 48.1394Z" fill="white"/>
<path d="M26.9776 64.7363L38.3137 53.4079L49.6498 64.7363L76.6275 37.8018L58.6622 19.8484L53.5973 24.9099L66.4978 37.8016L49.6622 54.6257L38.3133 43.2854L26.9652 54.6257L10.1297 37.8016L23.0302 24.9099L17.9653 19.8484L0 37.8014L26.9776 64.7363Z" fill="white"/>
<path fill-rule="evenodd" clip-rule="evenodd" d="M27.3443 24.5367L20.7212 17.9181L38.1712 0.47998L55.621 17.9181L48.9979 24.5367L38.1712 13.7172L27.3443 24.5367ZM27.3443 44.6972L20.7212 38.0786L38.1712 20.6406L55.621 38.0786L48.9979 44.6972L38.1712 33.8778L27.3443 44.6972Z" fill="white"/>
</g>
<defs>
<clipPath id="clip0_85_282">
<rect width="193" height="65" fill="white"/>
</clipPath>
</defs>
</svg>
