<svg width="249" height="45" viewBox="0 0 249 45" fill="none" xmlns="http://www.w3.org/2000/svg">
<path d="M162.71 18.249L162.314 25.8395C162.247 27.2191 162.104 28.2208 161.885 28.8448C161.666 29.4687 161.285 29.7807 160.741 29.7807C160.595 29.7807 160.466 29.7721 160.353 29.755C160.247 29.7378 160.129 29.7063 160 29.6605V30.8197C160.157 30.8769 160.306 30.917 160.446 30.9399C160.586 30.9628 160.726 30.9742 160.867 30.9742C161.843 30.98 162.505 30.5649 162.853 29.7292C163.206 28.8934 163.425 27.6656 163.509 26.0456L163.854 19.3567H169.038V30.751H170.325V18.249H162.71Z" fill="black"/>
<path d="M172.854 24.8435C172.854 26.8241 173.322 28.3468 174.259 29.4115C175.202 30.4705 176.413 31 177.894 31C179.375 31 180.584 30.4705 181.521 29.4115C182.464 28.3468 182.935 26.8241 182.935 24.8435V24.1565C182.935 22.1759 182.464 20.6561 181.521 19.5971C180.584 18.5324 179.375 18 177.894 18C176.413 18 175.202 18.5324 174.259 19.5971C173.322 20.6561 172.854 22.1759 172.854 24.1565V24.8435ZM174.15 24.8435V24.148C174.15 22.5394 174.492 21.303 175.176 20.4386C175.861 19.5742 176.767 19.142 177.894 19.142C179.016 19.142 179.92 19.5742 180.604 20.4386C181.288 21.303 181.631 22.5394 181.631 24.148V24.8435C181.631 26.4577 181.288 27.6971 180.604 28.5614C179.92 29.4258 179.016 29.858 177.894 29.858C176.767 29.858 175.861 29.4258 175.176 28.5614C174.492 27.6971 174.15 26.4577 174.15 24.8435Z" fill="black"/>
<path d="M185.463 30.751H186.751V19.3567H192.566V18.249H185.463V30.751Z" fill="black"/>
<path d="M203.669 30.751V18.249H202.247L196.298 28.0634C196.191 28.2409 196.09 28.4126 195.995 28.5786C195.899 28.7389 195.818 28.8963 195.751 29.0509H195.683C195.689 28.8791 195.694 28.6988 195.7 28.5099C195.706 28.321 195.709 28.1435 195.709 27.9775V18.249H194.421V30.751H195.835L201.793 20.9366C201.899 20.7591 202 20.5874 202.096 20.4214C202.196 20.2497 202.281 20.0923 202.348 19.9491H202.415C202.404 20.1209 202.396 20.3155 202.39 20.533C202.384 20.7448 202.382 20.9337 202.382 21.0997V30.751H203.669Z" fill="black"/>
<path d="M206.206 24.8435C206.206 26.8355 206.672 28.3611 207.603 29.4201C208.54 30.4734 209.726 31 211.162 31C212.582 31 213.665 30.6022 214.411 29.8065C215.157 29.0051 215.58 28.0205 215.681 26.8527L215.69 26.7411H214.402L214.394 26.8441C214.327 27.6742 214.035 28.384 213.519 28.9736C213.003 29.5632 212.217 29.858 211.162 29.858C210.085 29.858 209.205 29.4258 208.52 28.5614C207.841 27.6971 207.502 26.4577 207.502 24.8435V24.148C207.502 22.4993 207.841 21.2543 208.52 20.4128C209.205 19.5656 210.085 19.142 211.162 19.142C212.24 19.142 213.036 19.4368 213.552 20.0264C214.074 20.6103 214.357 21.3201 214.402 22.1559V22.2589H215.69V22.1559C215.628 20.9767 215.213 19.9892 214.444 19.1935C213.676 18.3978 212.582 18 211.162 18C209.738 18 208.554 18.5324 207.611 19.5971C206.674 20.6561 206.206 22.1759 206.206 24.1565V24.8435Z" fill="black"/>
<path d="M216.594 19.3567H220.591V30.751H221.879V19.3567H225.876V18.249H216.594V19.3567Z" fill="black"/>
<path d="M236.904 30.751V18.249H235.481L229.532 28.0634C229.425 28.2409 229.325 28.4126 229.229 28.5786C229.134 28.7389 229.052 28.8963 228.985 29.0509H228.918C228.923 28.8791 228.929 28.6988 228.935 28.5099C228.94 28.321 228.943 28.1435 228.943 27.9775V18.249H227.656V30.751H229.069L235.027 20.9366C235.134 20.7591 235.235 20.5874 235.33 20.4214C235.431 20.2497 235.515 20.0923 235.582 19.9491H235.65C235.639 20.1209 235.63 20.3155 235.625 20.533C235.619 20.7448 235.616 20.9337 235.616 21.0997V30.751H236.904Z" fill="black"/>
<path d="M247.41 30.751H249L243.219 23.8474L242.074 24.3454L247.41 30.751ZM240.535 23.7444V24.852H242.992L248.571 18.249H247.115L242.487 23.7444H240.535ZM239.895 30.751H241.182V18.249H239.895V30.751Z" fill="black"/>
<path d="M61.2173 36.905H63.162V42.0003H64.042V36.905H65.9866V36.188H61.2173V36.905Z" fill="black"/>
<path d="M67.1245 44.26H68.0045V41.2887C68.1965 41.535 68.45 41.7341 68.765 41.8862C69.0801 42.0347 69.4567 42.109 69.8949 42.109C70.659 42.109 71.2656 41.8337 71.7146 41.2833C72.1637 40.7292 72.3882 40.0285 72.3882 39.1811V39.0073C72.3882 38.1599 72.1637 37.4609 71.7146 36.9105C71.2656 36.3564 70.659 36.0794 69.8949 36.0794C69.4567 36.0794 69.0692 36.1681 68.7324 36.3455C68.3993 36.5194 68.1476 36.7294 67.9774 36.9757H67.9611L67.923 36.188H67.1245V44.26ZM68.0045 40.3435V37.8448C68.1313 37.5804 68.3395 37.345 68.6292 37.1386C68.9225 36.9286 69.2756 36.8236 69.6885 36.8236C70.3113 36.8236 70.7676 37.0336 71.0573 37.4537C71.347 37.8701 71.4919 38.388 71.4919 39.0073V39.1811C71.4919 39.8003 71.347 40.32 71.0573 40.7401C70.7676 41.1565 70.3113 41.3648 69.6885 41.3648C69.2756 41.3648 68.9225 41.2616 68.6292 41.0551C68.3395 40.8451 68.1313 40.6079 68.0045 40.3435Z" fill="black"/>
<path d="M73.4718 40.3272C73.4718 40.9103 73.6637 41.3539 74.0476 41.6581C74.4351 41.9587 74.9131 42.109 75.4816 42.109C76.0031 42.109 76.4304 42.0112 76.7636 41.8156C77.0968 41.6201 77.3376 41.401 77.4861 41.1583C77.5006 41.3141 77.5295 41.4698 77.573 41.6255C77.6164 41.7776 77.6671 41.9025 77.7251 42.0003H78.567V41.9134C78.4982 41.7541 78.4439 41.5712 78.4041 41.3648C78.3643 41.1547 78.3443 40.932 78.3443 40.6966V37.9915C78.3443 37.3396 78.1506 36.8489 77.7631 36.5194C77.3792 36.1898 76.8342 36.0251 76.1281 36.0251C75.4219 36.0251 74.8624 36.1971 74.4495 36.5411C74.0367 36.8815 73.8303 37.2889 73.8303 37.7633V37.7905H74.694V37.7633C74.694 37.4881 74.8008 37.2491 75.0145 37.0463C75.2318 36.8435 75.5939 36.7421 76.1009 36.7421C76.6043 36.7421 76.9573 36.858 77.1601 37.0897C77.3666 37.3215 77.4698 37.6221 77.4698 37.9915V38.4803H75.9923C75.2571 38.4803 74.6523 38.6433 74.1779 38.9692C73.7072 39.2915 73.4718 39.7442 73.4718 40.3272ZM74.3463 40.2838C74.3463 39.9289 74.4948 39.6482 74.7918 39.4418C75.0887 39.2318 75.5269 39.1268 76.1063 39.1268H77.4698V40.023C77.4698 40.3526 77.2869 40.664 76.9211 40.9574C76.559 41.2471 76.148 41.3919 75.6881 41.3919C75.2281 41.3919 74.8895 41.296 74.6723 41.104C74.455 40.9121 74.3463 40.6387 74.3463 40.2838Z" fill="black"/>
<path d="M80.0798 36.188V42.0003H80.9598V39.4038H83.9202V42.0003H84.7948V36.188H83.9202V38.6922H80.9598V36.188H80.0798Z" fill="black"/>
<path d="M86.1989 39.1811C86.1989 40.0574 86.4397 40.7745 86.9213 41.3322C87.4066 41.8862 88.0747 42.1633 88.9258 42.1633C89.7116 42.1633 90.3073 41.9569 90.7129 41.544C91.1185 41.1276 91.3213 40.6586 91.3213 40.1371V40.11H90.4739V40.1371C90.4739 40.4811 90.3508 40.7817 90.1045 41.0388C89.8583 41.296 89.4653 41.4245 88.9258 41.4245C88.2956 41.4245 87.8321 41.209 87.5352 40.7781C87.2418 40.3472 87.0952 39.8148 87.0952 39.1811V39.0073C87.0952 38.3771 87.2418 37.8466 87.5352 37.4157C87.8321 36.9811 88.2956 36.7638 88.9258 36.7638C89.4653 36.7638 89.8583 36.8924 90.1045 37.1495C90.3508 37.4066 90.4739 37.7072 90.4739 38.0512V38.0784H91.3213V38.0512C91.3213 37.5334 91.1185 37.0662 90.7129 36.6497C90.3073 36.2333 89.7116 36.0251 88.9258 36.0251C88.0747 36.0251 87.4066 36.3039 86.9213 36.8616C86.4397 37.4157 86.1989 38.1309 86.1989 39.0073V39.1811Z" fill="black"/>
<path d="M92.557 36.188V42.0003H93.437V36.905H96.3431V42.0003H97.2177V36.188H92.557Z" fill="black"/>
<path d="M98.6218 39.1811C98.6218 40.0574 98.8734 40.7745 99.3768 41.3322C99.8802 41.8862 100.557 42.1633 101.408 42.1633C102.256 42.1633 102.931 41.8862 103.435 41.3322C103.938 40.7745 104.19 40.0574 104.19 39.1811V39.0073C104.19 38.1309 103.938 37.4157 103.435 36.8616C102.931 36.3039 102.254 36.0251 101.403 36.0251C100.556 36.0251 99.8802 36.3039 99.3768 36.8616C98.8734 37.4157 98.6218 38.1309 98.6218 39.0073V39.1811ZM99.518 39.0073C99.518 38.3771 99.6756 37.8466 99.9906 37.4157C100.306 36.9847 100.776 36.7692 101.403 36.7692C102.029 36.7692 102.5 36.9847 102.815 37.4157C103.134 37.8466 103.293 38.3771 103.293 39.0073V39.1811C103.293 39.8112 103.134 40.3417 102.815 40.7727C102.5 41.2036 102.029 41.4191 101.403 41.4191C100.776 41.4191 100.306 41.2036 99.9906 40.7727C99.6756 40.3417 99.518 39.8112 99.518 39.1811V39.0073Z" fill="black"/>
<path d="M105.588 44.26H106.468V41.2887C106.66 41.535 106.914 41.7341 107.229 41.8862C107.544 42.0347 107.92 42.109 108.359 42.109C109.123 42.109 109.729 41.8337 110.178 41.2833C110.627 40.7292 110.852 40.0285 110.852 39.1811V39.0073C110.852 38.1599 110.627 37.4609 110.178 36.9105C109.729 36.3564 109.123 36.0794 108.359 36.0794C107.92 36.0794 107.533 36.1681 107.196 36.3455C106.863 36.5194 106.611 36.7294 106.441 36.9757H106.425L106.387 36.188H105.588V44.26ZM106.468 40.3435V37.8448C106.595 37.5804 106.803 37.345 107.093 37.1386C107.386 36.9286 107.739 36.8236 108.152 36.8236C108.775 36.8236 109.231 37.0336 109.521 37.4537C109.811 37.8701 109.956 38.388 109.956 39.0073V39.1811C109.956 39.8003 109.811 40.32 109.521 40.7401C109.231 41.1565 108.775 41.3648 108.152 41.3648C107.739 41.3648 107.386 41.2616 107.093 41.0551C106.803 40.8451 106.595 40.6079 106.468 40.3435Z" fill="black"/>
<path d="M111.648 36.905H113.592V42.0003H114.472V36.905H116.417V36.188H111.648V36.905Z" fill="black"/>
<path d="M117.555 36.188V42.0003H118.435V39.4038H121.395V42.0003H122.27V36.188H121.395V38.6922H118.435V36.188H117.555Z" fill="black"/>
<path d="M123.707 40.3272C123.707 40.9103 123.898 41.3539 124.282 41.6581C124.67 41.9587 125.148 42.109 125.716 42.109C126.238 42.109 126.665 42.0112 126.998 41.8156C127.332 41.6201 127.572 41.401 127.721 41.1583C127.735 41.3141 127.764 41.4698 127.808 41.6255C127.851 41.7776 127.902 41.9025 127.96 42.0003H128.802V41.9134C128.733 41.7541 128.679 41.5712 128.639 41.3648C128.599 41.1547 128.579 40.932 128.579 40.6966V37.9915C128.579 37.3396 128.385 36.8489 127.998 36.5194C127.614 36.1898 127.069 36.0251 126.363 36.0251C125.657 36.0251 125.097 36.1971 124.684 36.5411C124.271 36.8815 124.065 37.2889 124.065 37.7633V37.7905H124.929V37.7633C124.929 37.4881 125.036 37.2491 125.249 37.0463C125.467 36.8435 125.829 36.7421 126.336 36.7421C126.839 36.7421 127.192 36.858 127.395 37.0897C127.601 37.3215 127.705 37.6221 127.705 37.9915V38.4803H126.227C125.492 38.4803 124.887 38.6433 124.413 38.9692C123.942 39.2915 123.707 39.7442 123.707 40.3272ZM124.581 40.2838C124.581 39.9289 124.73 39.6482 125.027 39.4418C125.323 39.2318 125.762 39.1268 126.341 39.1268H127.705V40.023C127.705 40.3526 127.522 40.664 127.156 40.9574C126.794 41.2471 126.383 41.3919 125.923 41.3919C125.463 41.3919 125.124 41.296 124.907 41.104C124.69 40.9121 124.581 40.6387 124.581 40.2838Z" fill="black"/>
<path d="M130.917 42.0003L132.531 39.6265L131.645 39.5342L129.934 42.0003H130.917ZM133.807 42.0003H134.682V36.188H132.308C131.602 36.188 131.061 36.3564 130.684 36.6932C130.307 37.03 130.119 37.479 130.119 38.0403C130.119 38.5727 130.296 38.9982 130.651 39.3169C131.01 39.6356 131.524 39.8021 132.194 39.8166L132.297 39.8655H133.807V42.0003ZM132.308 39.1485C131.83 39.1485 131.493 39.0453 131.298 38.8389C131.102 38.6324 131.004 38.3663 131.004 38.0403C131.004 37.7108 131.102 37.4392 131.298 37.2255C131.493 37.0119 131.83 36.905 132.308 36.905H133.807V39.1485H132.308Z" fill="black"/>
<path d="M143.042 42.0003H144.139L141.314 38.7302L140.749 39.3006L143.042 42.0003ZM139.685 38.6922V39.4038H141.2L143.911 36.188H142.895L140.804 38.6922H139.685ZM140.119 36.188H139.245V42.0003H140.119V36.188Z" fill="black"/>
<path d="M144.685 39.1811C144.685 40.0574 144.936 40.7745 145.44 41.3322C145.943 41.8862 146.62 42.1633 147.471 42.1633C148.319 42.1633 148.994 41.8862 149.497 41.3322C150.001 40.7745 150.253 40.0574 150.253 39.1811V39.0073C150.253 38.1309 150.001 37.4157 149.497 36.8616C148.994 36.3039 148.317 36.0251 147.466 36.0251C146.619 36.0251 145.943 36.3039 145.44 36.8616C144.936 37.4157 144.685 38.1309 144.685 39.0073V39.1811ZM145.581 39.0073C145.581 38.3771 145.739 37.8466 146.054 37.4157C146.369 36.9847 146.839 36.7692 147.466 36.7692C148.092 36.7692 148.563 36.9847 148.878 37.4157C149.197 37.8466 149.356 38.3771 149.356 39.0073V39.1811C149.356 39.8112 149.197 40.3417 148.878 40.7727C148.563 41.2036 148.092 41.4191 147.466 41.4191C146.839 41.4191 146.369 41.2036 146.054 40.7727C145.739 40.3417 145.581 39.8112 145.581 39.1811V39.0073Z" fill="black"/>
<path d="M151.651 42.0003H152.471V37.8828C152.475 37.7162 152.473 37.5804 152.466 37.4754C152.459 37.3668 152.45 37.269 152.439 37.1821H152.493C152.515 37.269 152.544 37.3686 152.58 37.4808C152.616 37.5895 152.667 37.7253 152.732 37.8882L154.503 42.0003H155.307L157.072 37.8937C157.145 37.7235 157.197 37.5841 157.23 37.4754C157.266 37.3668 157.295 37.269 157.317 37.1821H157.366C157.358 37.269 157.351 37.3668 157.344 37.4754C157.337 37.5804 157.333 37.7235 157.333 37.9045V42.0003H158.186V36.188H157.002L155.198 40.387C155.122 40.5608 155.068 40.6966 155.035 40.7944C155.003 40.8922 154.976 40.9845 154.954 41.0714H154.905C154.883 40.9845 154.854 40.8922 154.818 40.7944C154.782 40.693 154.726 40.5554 154.65 40.3816L152.857 36.188H151.651V42.0003Z" fill="black"/>
<path d="M159.921 36.188V42.0003H160.801V36.905H163.708V42.0003H164.582V36.188H159.921Z" fill="black"/>
<path d="M166.019 40.3272C166.019 40.9103 166.211 41.3539 166.595 41.6581C166.982 41.9587 167.46 42.109 168.029 42.109C168.55 42.109 168.977 42.0112 169.311 41.8156C169.644 41.6201 169.885 41.401 170.033 41.1583C170.048 41.3141 170.077 41.4698 170.12 41.6255C170.163 41.7776 170.214 41.9025 170.272 42.0003H171.114V41.9134C171.045 41.7541 170.991 41.5712 170.951 41.3648C170.911 41.1547 170.891 40.932 170.891 40.6966V37.9915C170.891 37.3396 170.698 36.8489 170.31 36.5194C169.926 36.1898 169.381 36.0251 168.675 36.0251C167.969 36.0251 167.409 36.1971 166.997 36.5411C166.584 36.8815 166.377 37.2889 166.377 37.7633V37.7905H167.241V37.7633C167.241 37.4881 167.348 37.2491 167.561 37.0463C167.779 36.8435 168.141 36.7421 168.648 36.7421C169.151 36.7421 169.504 36.858 169.707 37.0897C169.914 37.3215 170.017 37.6221 170.017 37.9915V38.4803H168.539C167.804 38.4803 167.199 38.6433 166.725 38.9692C166.254 39.2915 166.019 39.7442 166.019 40.3272ZM166.893 40.2838C166.893 39.9289 167.042 39.6482 167.339 39.4418C167.636 39.2318 168.074 39.1268 168.653 39.1268H170.017V40.023C170.017 40.3526 169.834 40.664 169.468 40.9574C169.106 41.2471 168.695 41.3919 168.235 41.3919C167.775 41.3919 167.437 41.296 167.219 41.104C167.002 40.9121 166.893 40.6387 166.893 40.2838Z" fill="black"/>
<path d="M172.627 36.188V42.0003H173.507V39.4038H176.467V42.0003H177.342V36.188H176.467V38.6922H173.507V36.188H172.627Z" fill="black"/>
<path d="M179.083 42.0003H179.99L182.592 38.0186C182.668 37.9064 182.737 37.7941 182.798 37.6818C182.86 37.5696 182.914 37.4682 182.961 37.3776H183.021C183.014 37.4863 183.008 37.6112 183.005 37.7524C183.001 37.8901 182.999 38.015 182.999 38.1273V42.0003H183.874V36.188H182.967L180.365 40.1751C180.292 40.2874 180.223 40.3979 180.158 40.5065C180.097 40.6151 180.04 40.7165 179.99 40.8107H179.946C179.95 40.6984 179.952 40.5735 179.952 40.4359C179.955 40.2983 179.957 40.1751 179.957 40.0665V36.188H179.083V42.0003Z" fill="black"/>
<path d="M186.207 42.0003L187.82 39.6265L186.935 39.5342L185.223 42.0003H186.207ZM189.097 42.0003H189.971V36.188H187.597C186.891 36.188 186.35 36.3564 185.973 36.6932C185.596 37.03 185.408 37.479 185.408 38.0403C185.408 38.5727 185.586 38.9982 185.94 39.3169C186.299 39.6356 186.813 39.8021 187.483 39.8166L187.586 39.8655H189.097V42.0003ZM187.597 39.1485C187.119 39.1485 186.782 39.0453 186.587 38.8389C186.391 38.6324 186.294 38.3663 186.294 38.0403C186.294 37.7108 186.391 37.4392 186.587 37.2255C186.782 37.0119 187.119 36.905 187.597 36.905H189.097V39.1485H187.597Z" fill="black"/>
<path fill-rule="evenodd" clip-rule="evenodd" d="M57.1486 10.8248L51.5351 5.2113L49.3919 7.35449L55.0071 12.9697V35.0722L51.1102 42H44.1824V10.8247L51.1102 3.89689H51.1103L55.0072 0H86.1825V6.92784L79.2547 10.8248H57.1486Z" fill="#0847C2"/>
<path fill-rule="evenodd" clip-rule="evenodd" d="M29.0342 10.8248L34.6477 5.2113L36.7908 7.35449L31.1755 12.9698V35.0722L35.0724 42H42.0002V10.8247L35.0724 3.89689H35.0723L31.1754 0H0.000114441V6.92784L6.92796 10.8248H29.0342Z" fill="#0847C2"/>
<path fill-rule="evenodd" clip-rule="evenodd" d="M109.977 20.0867V31H114.3V27.1975H127.365V31H131.72V18H112.064L109.977 20.0867ZM85.4728 18H105.119L107.215 20.0966V27.1975H89.7953V31H85.4728V18ZM82.71 18H61V21.3789H69.6775V31H74.0325V21.3789H82.71V18ZM102.86 23.7896L102.86 21.4114H89.7953L89.7953 23.7896H102.86ZM127.365 21.4114V24.0483H114.3V21.4114H127.365ZM150.244 23.9475L156.224 20.2425V18H151.902L149.334 19.625L147.612 20.6975L147.547 20.7625L145.889 21.8025L145.044 22.3225L144.199 22.875L143.192 23.525L142.477 23.9475L140.787 25.0525L139.064 26.125L138.837 26.255V18H134.482V31H138.837L141.469 29.375L143.192 28.3025H143.224L144.979 27.1975L145.434 26.905L145.889 27.1975L147.547 28.2375L147.612 28.3025L149.334 29.375L151.902 31H156.224V28.7575L149.367 24.5L150.244 23.9475Z" fill="black"/>
</svg>
