<svg width="40" height="66" viewBox="0 0 40 66" fill="none" xmlns="http://www.w3.org/2000/svg">
<rect width="40" height="66" fill="#0847C2"/>
<path fill-rule="evenodd" clip-rule="evenodd" d="M19.9994 22C9.50599 22 1 30.6046 1 41.2188C1 41.9335 1.03935 42.6392 1.11449 43.3333H3.24859C3.16392 42.641 3.11979 41.9347 3.11979 41.2188C3.11979 31.7885 10.6765 24.1447 19.9994 24.1447C29.3223 24.1447 36.8802 31.7891 36.8802 41.2188C36.8802 41.9347 36.8361 42.641 36.7514 43.3333H38.8855C38.9606 42.6392 39 41.9335 39 41.2188C39.0006 30.6046 30.4934 22 19.9994 22ZM4.54252 37.3511V43.3333H7.67003V41.135L9.37243 42.8569L11.076 41.135V43.3333H14.2023V37.3511H11.305L9.37243 39.3045L7.44106 37.3511H4.54252ZM18.3841 37.3511L14.5351 43.3333H17.786L18.2022 42.6802H21.8091L22.2271 43.3333H25.4793L21.629 37.3511H18.3841ZM25.7899 37.3511V43.3333H28.9174V40.7773L32.33 43.3333H35.4044V37.3511H32.2769V39.9294L28.8417 37.3511H25.7893H25.7899ZM20.0072 39.8461L20.731 40.9782H19.2821L20.0072 39.8461Z" fill="white"/>
<path d="M5 37.3346L5.26341 37.6227V43.0466H7.51058L7.77399 43.3334V40.7839L7.51058 40.0925L9.59328 42.3597L11.676 40.0925V43.0466H13.9243L14.1877 43.3334V37.334H11.5507L11.6602 37.622L9.59269 39.8714V39.4649L7.63468 37.3334H5V37.3346ZM18.5188 37.3346L18.6616 37.6227L15.4181 43.0466H17.6284L18.037 42.3584H22.0268L22.4354 43.0466H24.6457L25.1315 43.3334L21.545 37.334H18.5188V37.3346ZM25.8573 37.3346L26.1208 37.6227V43.0466H28.3679L28.6313 43.3334V40.4748L28.3679 39.9058L32.2658 43.0466H34.7366L35 43.3334V37.334H32.226L32.4894 37.622V40.7864L32.226 40.2174L28.6565 37.3334H25.8579L25.8573 37.3346ZM20.0319 38.9882L21.4982 41.4555L21.0141 41.1688H19.0497L20.0319 39.5152V38.9882Z" fill="white"/>
<path fill-rule="evenodd" clip-rule="evenodd" d="M20.333 39.3334V39.7605L18.993 41.1009L18.333 41.3334L20.333 39.3334Z" fill="white"/>
<mask id="mask0_118_1776" style="mask-type:luminance" maskUnits="userSpaceOnUse" x="2" y="23" width="36" height="21">
<path d="M37.2171 42.8331C37.2701 42.28 37.297 41.7203 37.297 41.154C37.297 31.5622 29.553 23.7874 19.9994 23.7874C10.4458 23.7874 2.70117 31.5622 2.70117 41.1546C2.70117 41.7209 2.7286 42.2806 2.78107 42.8337L3.07919 43.1031C3.00704 42.4637 2.97008 41.8136 2.97008 41.1546C2.97008 31.7119 10.5942 24.0567 19.9994 24.0567C29.4045 24.0567 37.0293 31.7119 37.0293 41.1546C37.0293 41.8136 36.9923 42.4631 36.9195 43.1031L37.2171 42.8337V42.8331Z" fill="white"/>
</mask>
<g mask="url(#mask0_118_1776)">
<mask id="mask1_118_1776" style="mask-type:luminance" maskUnits="userSpaceOnUse" x="2" y="23" width="36" height="21">
<path d="M37.297 23.7874H2.70117V43.1025H37.297V23.7874Z" fill="white"/>
</mask>
<g mask="url(#mask1_118_1776)">
<rect width="34.8015" height="19.4528" transform="matrix(1 0 0 -1 2.66602 43.1838)" fill="white"/>
</g>
</g>
<path fill-rule="evenodd" clip-rule="evenodd" d="M1.24652 42.6667L1 43.3334H2.85375L2.55224 42.6667H1.24652ZM37.449 42.6667L37.1475 43.3334H39L38.7535 42.6667H37.449Z" fill="white"/>
<mask id="mask2_118_1776" style="mask-type:luminance" maskUnits="userSpaceOnUse" x="1" y="22" width="38" height="22">
<path d="M38.7477 43.1025C38.8139 42.462 38.8467 41.8119 38.8467 41.154C38.8473 30.7026 30.4086 22.2303 19.9982 22.2303C9.58782 22.2303 1.15039 30.7026 1.15039 41.1546C1.15039 41.8125 1.18378 42.462 1.24877 43.1031L1.49204 42.8337C1.44315 42.2806 1.4181 41.7203 1.4181 41.1546C1.4187 30.8517 9.73689 22.5003 19.9982 22.5003C30.2596 22.5003 38.5789 30.8517 38.5789 41.154C38.5789 41.7197 38.5539 42.2794 38.5044 42.8331L38.7477 43.1025Z" fill="white"/>
</mask>
<g mask="url(#mask2_118_1776)">
<mask id="mask3_118_1776" style="mask-type:luminance" maskUnits="userSpaceOnUse" x="1" y="22" width="38" height="22">
<path d="M38.8467 22.2303H1.15039V43.1024H38.8467V22.2303Z" fill="white"/>
</mask>
<g mask="url(#mask3_118_1776)">
<rect width="37.8924" height="21.0044" transform="matrix(1 0 0 -1 1.12012 43.1815)" fill="white"/>
</g>
</g>
<mask id="mask4_118_1776" style="mask-type:luminance" maskUnits="userSpaceOnUse" x="1" y="22" width="38" height="21">
<path d="M19.9994 22.5003C9.73811 22.5003 1.41992 30.8517 1.41992 41.1545C1.41992 41.7202 1.44496 42.28 1.49386 42.8337H2.78174C2.72927 42.2806 2.70184 41.7208 2.70184 41.1545C2.70184 31.5622 10.4464 23.7873 19.9994 23.7873C29.5525 23.7873 37.2971 31.5622 37.2971 41.1539C37.2971 41.7202 37.2702 42.28 37.2172 42.8331H38.505C38.5545 42.28 38.5796 41.7196 38.5796 41.1539C38.5802 30.8517 30.2614 22.5003 19.9994 22.5003Z" fill="white"/>
</mask>
<g mask="url(#mask4_118_1776)">
<mask id="mask5_118_1776" style="mask-type:luminance" maskUnits="userSpaceOnUse" x="1" y="22" width="38" height="21">
<path d="M38.5811 22.5003H1.4209V42.8331H38.5811V22.5003Z" fill="white"/>
</mask>
<g mask="url(#mask5_118_1776)">
<rect width="37.32" height="20.4298" transform="matrix(1 0 0 -1 1.37988 42.8942)" fill="white"/>
</g>
</g>
<mask id="mask6_118_1776" style="mask-type:luminance" maskUnits="userSpaceOnUse" x="4" y="37" width="10" height="6">
<path d="M7.26661 37.7364H4.96094V42.8331H7.25051V40.0572L9.37194 42.1871L11.4934 40.0572V42.8331H13.7835V37.7364H11.4767L9.37194 39.8501L7.26661 37.7364Z" fill="white"/>
</mask>
<g mask="url(#mask6_118_1776)">
<mask id="mask7_118_1776" style="mask-type:luminance" maskUnits="userSpaceOnUse" x="4" y="37" width="10" height="6">
<path d="M13.7832 37.7363H4.95996V42.833H13.7832V37.7363Z" fill="white"/>
</mask>
<g mask="url(#mask7_118_1776)">
<rect width="8.92933" height="5.22956" transform="matrix(1 0 0 -1 4.92285 42.9193)" fill="white"/>
</g>
</g>
<mask id="mask8_118_1776" style="mask-type:luminance" maskUnits="userSpaceOnUse" x="15" y="37" width="10" height="6">
<path d="M21.4998 41.3371H18.5109L20.005 39.0192L21.4992 41.3371H21.4998ZM21.4014 37.7364H18.6098L15.3066 42.8331H17.5581L17.9748 42.1853H22.0376L22.4544 42.8331H24.7064L21.4026 37.7364H21.4014Z" fill="white"/>
</mask>
<g mask="url(#mask8_118_1776)">
<mask id="mask9_118_1776" style="mask-type:luminance" maskUnits="userSpaceOnUse" x="15" y="37" width="10" height="6">
<path d="M24.7029 37.7364H15.3037V42.8331H24.7029V37.7364Z" fill="white"/>
</mask>
<g mask="url(#mask9_118_1776)">
<rect width="9.61621" height="5.22956" transform="matrix(1 0 0 -1 15.2314 42.9193)" fill="white"/>
</g>
</g>
<mask id="mask10_118_1776" style="mask-type:luminance" maskUnits="userSpaceOnUse" x="26" y="37" width="9" height="6">
<path d="M28.6998 37.7364H26.2051V42.8331H28.4947V39.883L32.4644 42.8331H34.9824V37.7364H32.6928V40.7109L28.6998 37.7364Z" fill="white"/>
</mask>
<g mask="url(#mask10_118_1776)">
<mask id="mask11_118_1776" style="mask-type:luminance" maskUnits="userSpaceOnUse" x="26" y="37" width="9" height="6">
<path d="M34.9824 37.7363H26.2051V42.833H34.9824V37.7363Z" fill="white"/>
</mask>
<g mask="url(#mask11_118_1776)">
<rect width="8.92933" height="5.22956" transform="matrix(1 0 0 -1 26.1484 42.9193)" fill="white"/>
</g>
</g>
</svg>
