<svg width="40" height="66" viewBox="0 0 40 66" fill="none" xmlns="http://www.w3.org/2000/svg">
<g clip-path="url(#clip0_117_1733)">
<path fill-rule="evenodd" clip-rule="evenodd" d="M0 0.0305176H39.9394V65.9683H0V0.0305176Z" fill="#0847C2"/>
<path fill-rule="evenodd" clip-rule="evenodd" d="M20.0002 14.3651L22.2716 12.8109L24.5434 14.3651L26.8249 12.8109L29.1063 14.3651L31.3777 12.8109V18.601H33.6613L40 27.2787C34.5949 32.6975 32.5056 39.2024 32.4464 46.7743L20 52.9833L7.55341 46.7743C7.49415 39.1876 5.39671 32.6862 0 27.2787L6.33871 18.601H8.62275V12.8109L10.8943 14.3651L13.1758 12.8109L15.4568 14.3651L17.7288 12.8109L20.0002 14.3651Z" fill="#0847C2"/>
<path fill-rule="evenodd" clip-rule="evenodd" d="M9.63268 18.688H12.1856V14.7166L10.9092 15.5332L9.63268 14.7166V18.688ZM14.1756 18.688H16.7285V14.7166L15.4522 15.5332L14.1756 14.7166V18.688ZM18.7761 18.688L21.2859 18.6824V14.711L20.0093 15.5279L18.7761 14.6664V18.688ZM23.2721 18.688H25.8249V14.7166L24.5484 15.5332L23.2723 14.7166L23.2721 18.688ZM27.8148 18.688H30.3677V14.7166L29.0916 15.5332L27.815 14.7166V18.688H27.8148ZM9.23844 39.8582C8.25994 35.2592 6.14167 30.6922 3.09363 27.0874L7.55048 20.9862H32.4499L36.9039 27.0831C33.8282 30.6252 31.7387 35.3005 30.78 39.8582H9.23844ZM1.95215 27.1276L7.09419 20.088H32.9062L38.0517 27.1319C33.4091 32.5477 31.2904 38.7277 30.9775 45.8457L20.0003 51.3216L9.02307 45.8457C8.70249 38.6214 6.5752 32.6763 1.95215 27.1276Z" fill="white"/>
<path fill-rule="evenodd" clip-rule="evenodd" d="M30.1046 45.2774L20.0005 50.3179L9.89676 45.2774C9.81967 43.7638 9.63608 42.2545 9.40332 40.7581H30.6112C30.3735 42.2507 30.1817 43.7668 30.1046 45.2774ZM11.4415 39.4897C11.6807 39.3602 12.0794 39.2658 12.2787 39.0467C12.2487 38.8374 12.2289 38.6181 12.2787 38.409C12.3584 38.2894 12.5078 38.2297 12.6373 38.17C12.8718 37.9394 13.7474 36.1263 14.2413 35.6493C14.6897 35.1314 14.919 34.5796 15.327 34.0904C15.8329 34.3006 16.3643 34.4971 16.8977 34.5143C17.0905 34.5203 17.8023 34.4222 17.8974 34.2794C17.8974 34.0408 17.296 33.8233 17.1004 33.8111C16.9683 33.7525 16.7648 33.8167 16.6321 33.8609C16.3755 33.9601 16.0615 33.7555 15.7455 33.5719C16.0942 33.2728 16.3731 32.6651 16.911 32.7948C18.0007 33.326 19.328 32.5876 20.4477 32.486C21.2568 33.3056 22.1686 33.8534 23.068 34.5283C22.7573 35.2998 20.1194 37.9194 19.7007 38.7824C19.6011 38.9918 19.4916 39.141 19.4018 39.3104C19.4018 39.6108 20.2876 39.1285 20.3735 39.0465C20.4342 38.8638 20.4033 38.7575 20.4033 38.5681C20.9251 38.2205 21.0101 37.9087 21.4295 37.3925C21.8048 36.6588 23.4114 35.3105 24.0493 34.7125C24.2007 34.1722 22.8935 32.7669 23.2274 32.5854C23.6959 32.8545 24.114 33.2137 24.5724 33.4329C25.9915 34.3309 26.0688 34.7207 26.4315 35.4692C26.6621 36.3253 26.9323 36.9053 27.4414 37.6766C27.797 38.0141 28.8689 39.4695 29.2053 39.4695C29.4707 39.4695 28.991 38.415 28.9664 38.3338C28.6413 38.0785 28.0798 37.9849 28.0798 37.447C27.4223 36.8892 27.1377 36.0885 26.864 35.1557C26.7046 34.7073 27.0136 34.2291 26.8341 33.7909C26.31 33.3445 23.971 30.9526 24.6424 30.0748C24.7088 29.9649 24.8316 29.9634 24.8316 29.8756C24.234 29.2181 23.3571 28.8494 22.4705 28.7098C21.6674 28.6166 18.5835 29.0783 18.1367 28.8494C17.55 28.5335 18.1981 27.4829 18.4952 27.1855C18.9337 26.5679 19.4716 26.02 19.8304 25.2927C20.0703 25.0342 20.6535 25.087 20.9859 25.0037C21.0756 24.944 21.1155 24.8244 21.1755 24.7247C21.1755 24.5459 20.3069 24.5609 20.1392 24.5356C19.8472 24.3797 19.7905 24.1974 19.7905 23.9975C20.4868 23.953 21.2169 24.0715 21.924 24.017C23.5638 23.8903 25.5365 22.9165 26.5552 21.7957C26.5552 21.7856 26.5552 21.7757 26.5153 21.7458L26.4951 21.736C26.1466 21.736 25.8077 21.7759 25.4391 21.7759C24.5885 22.7574 23.2096 23.6502 21.8626 23.609C21.8626 23.5201 21.8428 23.3101 21.7627 23.2702C21.5454 23.2702 21.2004 23.4213 20.9856 23.4894C20.4986 23.6558 18.3387 23.6316 18.0866 23.0709C17.9492 22.6584 18.7437 22.7754 18.7641 22.4035C18.7641 22.3836 18.7641 22.3636 18.7542 22.3439L18.7342 22.334C18.2429 22.334 17.7433 22.2442 17.2997 22.2442C17.1277 22.4162 16.9292 22.4388 16.9709 22.7922C17.0684 23.2794 18.3458 23.7686 19.1429 23.9678C19.2418 24.1164 18.4718 24.1347 18.4156 24.1372C17.8178 24.2966 17.1502 24.1671 16.6123 24.4061C16.5642 24.5699 16.5103 24.7625 16.6323 24.8843C16.9052 25.0206 17.5013 25.0683 17.6385 25.3427C16.8215 26.6577 15.0579 27.2954 14.3905 28.73C14.3905 29.4942 14.52 30.2451 14.52 30.882C14.52 30.902 14.5001 30.9217 14.5001 30.9316C14.4601 30.9417 14.4601 30.9617 14.4404 30.9617C14.1601 30.9479 12.817 30.7809 12.4975 30.8519C11.9723 30.9645 11.9732 31.7914 12.0548 32.0411C12.5491 32.5362 14.0833 33.2182 14.5797 33.5521C13.9905 35.0322 12.4773 37.3322 11.531 38.7025C11.3318 38.9916 11.1426 39.2404 10.9932 39.5294C10.9932 39.6671 11.3668 39.4953 11.4415 39.4897ZM15.327 32.0377C14.7987 31.8455 13.6182 31.6432 13.0753 31.5794C13.0215 31.631 12.9542 31.783 13.0455 31.8285C13.6135 32.2172 14.4449 32.6443 14.943 32.9867C15.1425 32.6705 15.2771 32.2676 15.327 32.0377Z" fill="white"/>
<path fill-rule="evenodd" clip-rule="evenodd" d="M12.3408 45.5499V42.2324H21.2176L22.8218 44.9721H25.8703V43.9958H25.0932V43.1291H23.4097V42.2324H27.8331V42.4018L27.4446 43.3383H27.8331V45.5499H20.9988L20.6099 44.8826H18.3884L17.9997 45.5499H17.0034L18.5077 42.9994H14.5327V45.5499H12.3408ZM18.6772 44.3743L19.5041 42.9895L20.3209 44.3743H18.6772Z" fill="#0847C2"/>
</g>
<defs>
<clipPath id="clip0_117_1733">
<rect width="40" height="66" fill="white"/>
</clipPath>
</defs>
</svg>
