<svg width="182" height="60" viewBox="0 0 182 60" fill="none" xmlns="http://www.w3.org/2000/svg">
<g clip-path="url(#clip0_112_774)">
<path fill-rule="evenodd" clip-rule="evenodd" d="M8.20238 9.40199C7.47202 9.40199 6.70774 9.47482 5.97439 9.61753V17.1093C6.70874 17.2176 7.39919 17.254 8.09263 17.254C10.7976 17.254 12.84 15.7757 12.84 12.9697C12.839 10.2336 10.8694 9.40199 8.20238 9.40199ZM8.20238 21.0756C7.4361 21.0756 6.74067 21.0038 5.97439 20.8936V30.584H1.41064V6.23483C3.63764 5.72796 5.97339 5.54785 8.27422 5.54785C13.1333 5.54785 17.5913 7.78002 17.5913 13.1144C17.5913 18.372 13.2441 21.0756 8.20238 21.0756Z" fill="white"/>
<path fill-rule="evenodd" clip-rule="evenodd" d="M27.8365 15.6715C25.4978 15.6715 24.1468 17.6153 24.04 19.7756H31.5582C31.5242 17.511 30.283 15.6715 27.8365 15.6715ZM35.8325 23.1633H24.04C24.3304 25.9387 26.2271 27.232 28.9311 27.232C30.4247 27.232 32.2516 26.8757 33.5686 26.297L34.9575 29.6462C32.9829 30.472 30.8298 30.9788 28.6756 30.9788C23.0523 30.9788 19.3276 27.1956 19.3276 21.6122C19.3276 16.39 22.2102 12.1008 27.7976 12.1008C33.0538 12.1008 36.09 15.7749 36.09 20.7854C36.09 21.5797 35.9772 22.371 35.8325 23.1633Z" fill="white"/>
<path fill-rule="evenodd" clip-rule="evenodd" d="M43.7328 12.5723V19.4174H50.7789V12.5723H55.1621V30.5842H50.7789V22.8031H43.7328V30.5842H39.3496V12.5723H43.7328Z" fill="white"/>
<path fill-rule="evenodd" clip-rule="evenodd" d="M67.9112 15.6715C65.5734 15.6715 64.2234 17.6153 64.1137 19.7756H71.6358C71.6009 17.511 70.3587 15.6715 67.9112 15.6715ZM75.9112 23.1633H64.1137C64.407 25.9387 66.3068 27.232 69.0057 27.232C70.5033 27.232 72.3312 26.8757 73.6443 26.297L75.0332 29.6462C73.0606 30.472 70.9074 30.9788 68.7533 30.9788C63.1279 30.9788 59.4053 27.1956 59.4053 21.6122C59.4053 16.39 62.2908 12.1008 67.8762 12.1008C73.1354 12.1008 76.1666 15.7749 76.1666 20.7854C76.1656 21.5797 76.0579 22.371 75.9112 23.1633Z" fill="white"/>
<path fill-rule="evenodd" clip-rule="evenodd" d="M88.084 30.9797C82.4577 30.9797 78.1514 27.2713 78.1514 21.5796C78.1514 15.9942 82.0177 12.1755 87.6819 12.1755C89.6864 12.1755 91.8436 12.647 93.7054 13.4383L92.3914 16.9283C91.0035 16.3909 89.433 15.9234 87.9354 15.9234C84.7226 15.9234 82.8229 18.4823 82.8229 21.4704C82.8229 24.673 84.9421 27.2319 88.3365 27.2319C89.7254 27.2319 91.1482 26.8018 92.4253 26.3333L93.7044 29.719C91.9144 30.5103 90.0177 30.9797 88.084 30.9797Z" fill="white"/>
<path fill-rule="evenodd" clip-rule="evenodd" d="M105.098 30.9797C99.4744 30.9797 95.1631 27.2713 95.1631 21.5796C95.1631 15.9942 99.0344 12.1755 104.697 12.1755C106.706 12.1755 108.86 12.647 110.725 13.4383L109.406 16.9283C108.021 16.3909 106.452 15.9234 104.953 15.9234C101.737 15.9234 99.8426 18.4823 99.8426 21.4704C99.8426 24.673 101.959 27.2319 105.355 27.2319C106.739 27.2319 108.167 26.8018 109.448 26.3333L110.726 29.719C108.935 30.5103 107.033 30.9797 105.098 30.9797Z" fill="white"/>
<path fill-rule="evenodd" clip-rule="evenodd" d="M124.757 26.1896V21.7568C123.254 23.1632 118.254 22.5884 118.254 25.1808C118.254 27.0508 120.08 27.3785 121.651 27.3785C122.711 27.3785 123.807 27.1964 124.83 26.8756C124.83 26.8756 124.757 26.4396 124.757 26.1896ZM121.614 30.9797C118.111 30.9797 113.433 29.719 113.433 25.5046C113.433 18.2284 124.757 20.7164 124.757 17.5798C124.757 16.0631 122.784 15.9244 121.688 15.9244C120.046 15.9244 118.148 16.3554 116.61 17.0021L115.115 13.7296C117.273 12.7562 119.936 12.1765 122.311 12.1765C126.217 12.1765 129.139 13.8713 129.139 18.0532V27.3077C129.139 28.0616 129.393 29.5733 129.393 29.5733C126.874 30.3321 124.281 30.9797 121.614 30.9797Z" fill="white"/>
<path fill-rule="evenodd" clip-rule="evenodd" d="M137.672 12.5723V19.4174H144.717V12.5723H149.102V30.5842H144.717V22.8031H137.672V30.5842H133.285V12.5723H137.672Z" fill="white"/>
<path fill-rule="evenodd" clip-rule="evenodd" d="M162.318 30.9797C156.694 30.9797 152.385 27.2713 152.385 21.5796C152.385 15.9942 156.254 12.1755 161.917 12.1755C163.926 12.1755 166.082 12.647 167.944 13.4383L166.631 16.9283C165.239 16.3909 163.67 15.9234 162.173 15.9234C158.96 15.9234 157.062 18.4823 157.062 21.4704C157.062 24.673 159.177 27.2319 162.572 27.2319C163.963 27.2319 165.386 26.8018 166.666 26.3333L167.944 29.719C166.152 30.5103 164.254 30.9797 162.318 30.9797Z" fill="white"/>
<path fill-rule="evenodd" clip-rule="evenodd" d="M175.171 7.56557C176.522 7.56557 177.435 6.95438 177.435 5.58437C177.435 4.21239 176.561 3.74982 175.246 3.74982C174.882 3.74982 174.445 3.81969 174.188 3.85414V7.52916C174.445 7.52916 174.809 7.56557 175.171 7.56557ZM180.798 6.5548C180.798 3.56479 178.351 1.14955 175.356 1.14955C172.326 1.14955 169.915 3.56479 169.915 6.5548C169.915 8.57537 171.009 10.3026 172.653 11.2406V2.77447C173.528 2.5235 174.369 2.4861 175.28 2.4861C177.217 2.4861 179.007 3.45652 179.007 5.58339C179.007 7.7447 177.29 8.86374 175.245 8.86374C174.808 8.86374 174.187 8.75252 174.187 8.75252V11.8173C174.551 11.8882 174.953 11.9236 175.355 11.9236C178.351 11.9236 180.798 9.51233 180.798 6.5548ZM182 6.5548C182 10.1589 179.007 13.1155 175.356 13.1155C171.666 13.1155 168.71 10.1599 168.71 6.5548C168.71 2.92013 171.666 0 175.356 0C179.007 0 182 2.92013 182 6.5548Z" fill="white"/>
<path fill-rule="evenodd" clip-rule="evenodd" d="M6.40261 54.8615C2.89749 54.8615 0 52.5092 0 48.6177C0 44.8974 2.40859 42.3286 6.10927 42.3286C7.39837 42.3286 8.71442 42.615 9.88279 43.0943L9.22726 44.8462C8.5448 44.5824 7.39837 44.1986 6.25295 44.1986C3.62785 44.1986 2.43353 46.3363 2.43353 48.5685C2.43353 51.3085 4.30732 53.0112 6.52334 53.0112C7.59693 53.0112 8.5458 52.7031 9.25221 52.4344L9.88279 54.1174C8.8122 54.5977 7.61688 54.8615 6.40261 54.8615Z" fill="white"/>
<path fill-rule="evenodd" clip-rule="evenodd" d="M21.2131 44.416H17.2929V54.5976H15.1008V44.416H11.1816V42.5894H21.2131V44.416Z" fill="white"/>
<path fill-rule="evenodd" clip-rule="evenodd" d="M26.5941 44.1986C25.766 44.1986 25.0855 44.3679 24.4499 44.607C24.4499 44.6809 24.5268 44.9633 24.5268 45.1612V52.6086C25.0865 52.8694 25.7919 52.9895 26.3996 52.9895C29.1504 52.9895 30.3457 51.212 30.3457 48.5685C30.3447 46.2644 29.2931 44.1986 26.5941 44.1986ZM26.7628 54.8615C26.0084 54.8615 25.2771 54.7188 24.5258 54.453V60H22.3337V44.7045C22.3337 44.1986 22.186 43.1898 22.186 43.1898C23.3564 42.7558 25.2033 42.3286 26.5941 42.3286C30.5133 42.3286 32.7772 44.9879 32.7772 48.5685C32.7772 52.1982 30.2699 54.8615 26.7628 54.8615Z" fill="white"/>
<path fill-rule="evenodd" clip-rule="evenodd" d="M41.9616 52.0988V48.3313C41.4028 48.7624 40.425 48.9326 39.529 49.1206C38.1172 49.4336 36.8261 49.8204 36.8261 51.1618C36.8261 52.4128 37.8468 52.9895 39.4801 52.9895C40.3562 52.9895 41.2332 52.8458 42.0115 52.5811C42.0115 52.5811 41.9616 52.2671 41.9616 52.0988ZM39.4791 54.8615C36.5078 54.8615 34.3926 53.6824 34.3926 51.3331C34.3926 48.6866 36.5827 47.9701 38.5782 47.5606C40.3292 47.2034 41.9336 47.0105 41.9336 45.8343C41.9336 44.4407 40.5996 44.1996 39.55 44.1996C38.3068 44.1996 36.8471 44.7507 36.3362 44.9643L35.5829 43.2862C36.7762 42.7361 38.4046 42.3286 39.6987 42.3286C42.5931 42.3286 44.1516 43.6484 44.1516 46.1641V52.4344C44.1516 52.9432 44.3243 53.9757 44.3243 53.9757C42.8885 54.4264 41.1574 54.8615 39.4791 54.8615Z" fill="white"/>
<path fill-rule="evenodd" clip-rule="evenodd" d="M54.9218 54.5976L51.731 49.9866L48.5202 54.5976H45.915L50.4169 48.3548L46.1575 42.5894H48.8335L51.9026 46.9346L54.823 42.5894H57.4022L53.2416 48.593L57.6477 54.5976H54.9218Z" fill="white"/>
<path fill-rule="evenodd" clip-rule="evenodd" d="M64.1677 44.1986C61.8329 44.1986 60.6875 46.1897 60.6875 48.5921C60.6875 50.9975 61.8329 52.9885 64.1677 52.9885C66.5054 52.9885 67.6239 50.9975 67.6239 48.5921C67.6229 46.1906 66.5044 44.1986 64.1677 44.1986ZM64.1417 54.8615C60.6087 54.8615 58.251 52.2474 58.251 48.5921C58.251 44.9456 60.6097 42.3276 64.1417 42.3276C67.6738 42.3276 70.0594 44.9456 70.0594 48.5921C70.0594 52.2474 67.6728 54.8615 64.1417 54.8615Z" fill="white"/>
<path fill-rule="evenodd" clip-rule="evenodd" d="M76.4813 53.0604C78.0388 53.0604 79.8677 52.7503 79.8677 51.1894C79.8677 49.5044 78.5776 49.1452 76.2139 49.1452H74.7302V52.9659C75.1393 53.0112 75.7978 53.0604 76.4813 53.0604ZM74.7292 47.537H76.2129C77.5778 47.537 79.3289 47.2723 79.3289 45.6611C79.3289 44.2695 77.8921 43.9801 76.5042 43.9801C75.8507 43.9801 75.2161 44.0559 74.7292 44.1031V47.537ZM82.3501 51.1894C82.3501 52.6086 81.471 53.7326 80.0353 54.3113C78.842 54.767 77.1398 54.8624 75.9185 54.8624C74.1645 54.8624 72.5132 54.5268 72.5132 54.5268V42.6623C72.5132 42.6623 74.5546 42.3286 76.2588 42.3286C78.3072 42.3286 80.1829 42.5668 81.2056 43.8118C81.6417 44.2941 81.8362 44.8462 81.8362 45.5184C81.8362 46.6945 80.8854 47.6098 79.8387 48.1856C81.1807 48.6177 82.3501 49.722 82.3501 51.1894Z" fill="white"/>
<path fill-rule="evenodd" clip-rule="evenodd" d="M91.4754 52.0988V48.3313C90.9166 48.7624 89.9428 48.9326 89.0428 49.1206C87.629 49.4336 86.3389 49.8204 86.3389 51.1618C86.3389 52.4128 87.3626 52.9895 88.9919 52.9895C89.87 52.9895 90.746 52.8458 91.5262 52.5811C91.5242 52.5811 91.4754 52.2671 91.4754 52.0988ZM88.9899 54.8615C86.0176 54.8615 83.9014 53.6824 83.9014 51.3331C83.9014 48.6866 86.0934 47.9701 88.09 47.5606C89.843 47.2034 91.4494 47.0105 91.4494 45.8343C91.4494 44.4407 90.1104 44.1996 89.0668 44.1996C87.8236 44.1996 86.3618 44.7507 85.852 44.9643L85.0967 43.2862C86.288 42.7361 87.9223 42.3286 89.2114 42.3286C92.1069 42.3286 93.6674 43.6484 93.6674 46.1641V52.4344C93.6674 52.9432 93.837 53.9757 93.837 53.9757C92.3993 54.4264 90.6722 54.8615 88.9899 54.8615Z" fill="white"/>
<path fill-rule="evenodd" clip-rule="evenodd" d="M106.831 42.5894V54.5976H104.615V49.1697H98.9884V54.5976H96.8013V42.5894H98.9884V47.345H104.615V42.5894H106.831Z" fill="white"/>
<path fill-rule="evenodd" clip-rule="evenodd" d="M112.227 42.5894V47.658C112.227 49.5575 112.202 50.7543 112.103 52.4619H112.176C112.909 51.0181 113.323 50.1825 114.15 48.7879L117.949 42.5903H120.602V54.5986H118.411V49.5054C118.411 47.5616 118.461 46.535 118.559 44.608H118.483C117.704 46.1443 117.196 47.1049 116.486 48.3322C115.562 49.774 114.564 51.5259 113.517 53.206C112.74 54.4795 111.691 54.7443 110.962 54.7443C110.426 54.7443 110.037 54.5986 110.037 54.5986V42.5894H112.227Z" fill="white"/>
<path fill-rule="evenodd" clip-rule="evenodd" d="M128.435 44.176C126.537 44.176 125.49 45.7123 125.438 47.5872H131.358C131.333 45.8078 130.434 44.176 128.435 44.176ZM133.549 49.3391H125.438C125.562 51.4738 126.904 52.9885 129.238 52.9885C130.236 52.9885 131.235 52.7976 132.135 52.4344L132.818 54.0662C131.649 54.5967 130.335 54.8615 129.045 54.8615C125.319 54.8615 123.056 52.148 123.056 48.5685C123.056 45.2783 124.783 42.3286 128.416 42.3286C131.82 42.3286 133.672 44.8246 133.672 48.0193C133.671 48.4248 133.622 48.8795 133.549 49.3391Z" fill="white"/>
</g>
<defs>
<clipPath id="clip0_112_774">
<rect width="182" height="60" fill="white"/>
</clipPath>
</defs>
</svg>
