<svg width="229" height="33" viewBox="0 0 229 33" fill="none" xmlns="http://www.w3.org/2000/svg">
<path d="M8.00567 18.9036C12.5804 18.9036 14.4517 16.4215 15.0757 15.6974L12.7885 14.2493C12.1646 14.9734 10.605 16.421 8.00613 16.421C4.78287 16.421 2.70387 14.1457 2.70387 11.2499C2.70387 8.35416 4.8874 6.07882 8.00613 6.07882C11.1249 6.07882 12.2687 7.94055 12.6849 9.28502L15.3883 8.97458C14.8685 6.80288 12.9971 3.59668 8.0066 3.59668C3.01607 3.59668 0 7.3206 0 11.2504C0 15.1802 2.807 18.9036 8.00567 18.9036Z" fill="white"/>
<path d="M16.5713 18.0755H18.6508L27.1763 8.25052V18.0755H29.8797V3.59668H27.8002L19.2747 13.4216V3.59668H16.5713V18.0755Z" fill="white"/>
<path d="M31.063 18.0759H39.5885C42.9154 18.0759 44.5791 15.6974 44.5791 13.3185C44.5791 10.9395 42.7077 9.14031 39.5885 8.87141H33.7664V6.07882H43.5393V3.59668H31.063V18.0759ZM33.7664 15.5938V11.2499H39.4849C40.6287 11.3531 41.8761 11.8703 41.8761 13.4216C41.8761 14.9729 40.7323 15.5933 39.4849 15.5933H33.7664V15.5938Z" fill="white"/>
<path d="M53.7674 18.9036C58.3421 18.9036 60.2135 16.4215 60.8374 15.6974L58.5498 14.2493C57.9259 14.9734 56.3663 16.421 53.7674 16.421C50.5441 16.421 48.4651 14.1457 48.4651 11.2499C48.4651 8.35416 50.6487 6.07882 53.7674 6.07882C56.8861 6.07882 58.0299 7.94055 58.4462 9.28502L61.1496 8.97458C60.6297 6.80288 58.7584 3.59668 53.7679 3.59668C48.7773 3.59668 45.7622 7.31966 45.7622 11.2499C45.7622 15.1802 48.5692 18.9032 53.7679 18.9032L53.7674 18.9036Z" fill="white"/>
<path d="M66.7197 18.0755H69.4231V6.07882H74.6217V3.59668H61.521V6.07882H66.7197V18.0755Z" fill="white"/>
<path d="M75.8056 18.0755H78.5081V12.9044H84.3307C87.4499 12.6355 89.3212 10.7327 89.3212 8.35369V3.59668H75.8052V18.0755H75.8056ZM78.5081 10.4222V6.07836H86.6178V8.25006C86.6178 9.80134 85.3704 10.3186 84.2262 10.4218H78.5081V10.4222Z" fill="white"/>
<path d="M98.5096 18.9032C103.708 18.9032 106.515 15.1802 106.515 11.2499C106.515 7.31966 103.708 3.59668 98.5096 3.59668C93.3109 3.59668 90.5039 7.31966 90.5039 11.2499C90.5039 15.1802 93.3109 18.9032 98.5096 18.9032ZM98.5096 16.421C95.3908 16.421 93.2073 14.1457 93.2073 11.2499C93.2073 8.35416 95.3908 6.07882 98.5096 6.07882C101.628 6.07882 103.812 8.35416 103.812 11.2499C103.812 14.1457 101.629 16.421 98.5096 16.421Z" fill="white"/>
<path d="M111.025 2.06853H118.303V0H111.025V2.06853ZM107.699 18.0986H109.778L118.303 8.27366V18.0986H121.007V3.61981H118.927L110.402 13.4448V3.61981H107.699V18.0986Z" fill="white"/>
<path d="M122.189 18.2473H124.895L126.144 7.78276L129.891 15.7357H133.221L136.968 7.78276L138.217 18.2473H140.923L139.154 3.59668H136.239L131.556 13.5379L126.872 3.59668H123.959L122.189 18.2473Z" fill="white"/>
<path d="M142.106 18.2473H144.916L146.517 13.9104L153.94 13.8558L155.531 18.2473H158.342L153.346 3.59668H147.102L142.106 18.2473H142.106ZM147.35 11.2943L149.08 6.10823H151.369L153.138 11.3405L147.35 11.2943Z" fill="white"/>
<path d="M162.855 2.09281H170.14V0H162.855V2.09281ZM159.525 18.3129H161.606L170.141 8.37169V18.3129H172.846V3.66276H170.765L162.231 13.6039V3.66276H159.525V18.3129H159.525Z" fill="white"/>
<path d="M174.03 18.2468H176.736V10.2938H184.437V18.2468H187.143V3.59668H184.437V7.78276H176.736V3.59668H174.03V18.2468Z" fill="white"/>
<path d="M188.326 18.2468H190.407L198.941 8.30561V18.2468H201.647V3.59668H199.565L191.031 13.5379V3.59668H188.326V18.2468H188.326Z" fill="white"/>
<path d="M202.83 18.2468H205.536V10.2938H213.238V18.2468H215.943V3.59668H213.238V7.78276H205.536V3.59668H202.83V18.2468Z" fill="white"/>
<path d="M217.126 18.2468H219.832V6.10823H228.813V3.59668H217.126V18.2468Z" fill="white"/>
<path d="M15 31.0452V25.5374H15.9973V27.869H18.5481V25.5374H19.5481V31.0452H18.5481V28.7056H15.9973V31.0452H15Z" fill="white"/>
<path d="M23.231 31.0452H22.1665L24.1046 25.5374H25.3356L27.2765 31.0452H26.212L24.7416 26.6668H24.6986L23.231 31.0452ZM23.266 28.8859H26.1691V29.6875H23.266V28.8859Z" fill="white"/>
<path d="M29.5371 32.374V30.2305H29.9053C30.029 30.132 30.1447 29.9929 30.252 29.8136C30.3594 29.6343 30.4508 29.3887 30.5264 29.0768C30.6016 28.765 30.6538 28.3616 30.6823 27.8667L30.8274 25.5378H34.3461V30.231H34.9588V32.3689H34.0017V31.0457H30.4938V32.3745H29.5366L29.5371 32.374ZM31.0668 30.2305H33.3894V26.374H31.7253L31.6394 27.8667C31.6161 28.2416 31.5783 28.5768 31.5265 28.8723C31.4747 29.1684 31.4089 29.4284 31.3305 29.6534C31.2516 29.8785 31.1639 30.0708 31.0668 30.2305Z" fill="white"/>
<path d="M37.6602 31.0452V25.5374H41.2409V26.3735H38.6574V27.869H41.0552V28.7052H38.6574V30.2086H41.2624V31.0447H37.6602V31.0452Z" fill="white"/>
<path d="M43.8218 31.0452L45.569 28.1515L43.9212 25.5374H45.1443L46.4454 27.8639H48.6686L49.9482 25.5374H51.1657L49.5422 28.1487L51.2679 31.0452H50.0877L48.8109 28.7888H46.2923L44.9912 31.0452H43.8218ZM48.0339 25.5374V31.0452H47.0553V25.5374H48.0339Z" fill="white"/>
<path d="M53.9155 31.0452V25.5374H54.9128V27.869H57.4636V25.5374H58.4637V31.0452H57.4636V28.7056H54.9128V31.0452H53.9155Z" fill="white"/>
<path d="M66.3585 28.2915C66.3585 28.8849 66.2479 29.3929 66.0267 29.815C65.8055 30.237 65.5045 30.5606 65.1237 30.7847C64.7429 31.0088 64.3112 31.1208 63.8291 31.1208C63.3471 31.1208 62.9154 31.0083 62.5346 30.7833C62.1538 30.5582 61.8528 30.2347 61.6316 29.8126C61.4104 29.3906 61.2998 28.8835 61.2998 28.292C61.2998 27.7004 61.4104 27.1906 61.6316 26.7685C61.8528 26.3465 62.1538 26.0234 62.5346 25.7988C62.9154 25.5747 63.3466 25.4626 63.8291 25.4626C64.3117 25.4626 64.7424 25.5747 65.1237 25.7988C65.5045 26.0229 65.8055 26.346 66.0267 26.7685C66.2479 27.1906 66.3585 27.6986 66.3585 28.292V28.2915ZM65.3556 28.2915C65.3556 27.8737 65.2907 27.5211 65.1605 27.2331C65.0308 26.9455 64.8511 26.7274 64.6215 26.5794C64.3919 26.4314 64.1278 26.3577 63.8287 26.3577C63.5295 26.3577 63.2649 26.4314 63.0358 26.5794C62.8062 26.7274 62.6265 26.945 62.4968 27.2331C62.3671 27.5207 62.3017 27.8737 62.3017 28.2915C62.3017 28.7094 62.3666 29.0619 62.4968 29.3499C62.6265 29.6375 62.8062 29.8556 63.0358 30.0036C63.2654 30.1516 63.5295 30.2254 63.8287 30.2254C64.1278 30.2254 64.3924 30.1516 64.6215 30.0036C64.8507 29.8556 65.0303 29.638 65.1605 29.3499C65.2903 29.0623 65.3556 28.7094 65.3556 28.2915Z" fill="white"/>
<path d="M73.9096 27.3955H72.9044C72.8759 27.2307 72.8227 27.0841 72.7457 26.9557C72.6687 26.8273 72.5726 26.7185 72.4582 26.6289C72.3434 26.5392 72.2132 26.4715 72.0672 26.4258C71.9211 26.38 71.7638 26.3571 71.5954 26.3571C71.2962 26.3571 71.0307 26.4318 70.7997 26.5817C70.5687 26.7316 70.3876 26.9501 70.2565 27.2377C70.1258 27.5253 70.0605 27.8764 70.0605 28.2905C70.0605 28.7046 70.1263 29.0665 70.2579 29.3541C70.3895 29.6417 70.5706 29.8588 70.8011 30.0049C71.0312 30.1511 71.2953 30.2239 71.5926 30.2239C71.7573 30.2239 71.9118 30.202 72.0564 30.1581C72.2006 30.1142 72.3308 30.0493 72.4461 29.9629C72.5618 29.877 72.6594 29.771 72.7392 29.6454C72.819 29.5198 72.874 29.3765 72.9044 29.215L73.9096 29.2206C73.8718 29.4825 73.791 29.7281 73.6664 29.9573C73.5418 30.187 73.3794 30.3892 73.1788 30.5638C72.9781 30.7384 72.7434 30.8747 72.4746 30.9728C72.2058 31.0704 71.9076 31.1194 71.5795 31.1194C71.0956 31.1194 70.6639 31.0073 70.284 30.7832C69.9042 30.5591 69.605 30.2356 69.3862 29.8126C69.1673 29.3896 69.0581 28.8821 69.0581 28.2905C69.0581 27.699 69.1682 27.1891 69.3885 26.7671C69.6088 26.345 69.9093 26.0219 70.2892 25.7973C70.669 25.5732 71.0993 25.4612 71.5795 25.4612C71.8861 25.4612 72.1708 25.5041 72.4344 25.59C72.6981 25.6759 72.9328 25.802 73.1386 25.9678C73.3449 26.1335 73.5143 26.3361 73.6482 26.5756C73.7817 26.8152 73.869 27.0878 73.9105 27.3946L73.9096 27.3955Z" fill="white"/>
<path d="M76.4771 26.374V25.5378H80.8693V26.374H79.1678V31.0457H78.1785V26.374H76.4771Z" fill="white"/>
<path d="M84.2798 27.6645H85.6775C86.0984 27.6645 86.4601 27.7331 86.762 27.8704C87.0639 28.0077 87.2954 28.2009 87.4569 28.4498C87.6183 28.6986 87.6986 28.9923 87.6986 29.3294C87.6986 29.6665 87.6179 29.9662 87.4569 30.2235C87.2954 30.4807 87.0639 30.682 86.762 30.8272C86.4601 30.9724 86.0984 31.0452 85.6775 31.0452H83.6157V25.5374H84.6158V30.2277H85.6775C85.8996 30.2277 86.0877 30.1857 86.2421 30.1012C86.3961 30.0171 86.5133 29.9055 86.5931 29.7678C86.6729 29.6296 86.7125 29.4802 86.7125 29.3187C86.7125 29.0857 86.6234 28.8868 86.4451 28.7229C86.2669 28.559 86.0111 28.4769 85.6775 28.4769H84.2798V27.6645Z" fill="white"/>
<path d="M97.6344 31.0452L95.8228 28.6384H95.3337V31.0452H94.3364V25.5374H95.3337V27.8018H95.5838L97.5406 25.5374H98.7688L96.5942 28.0492L98.8631 31.0452H97.6348H97.6344Z" fill="white"/>
<path d="M102.137 31.0452H101.072L103.01 25.5374H104.241L106.182 31.0452H105.118L103.647 26.6668H103.604L102.137 31.0452ZM102.172 28.8859H105.075V29.6875H102.172V28.8859Z" fill="white"/>
<path d="M108.965 25.5374H109.941V27.3339C109.941 27.5669 109.981 27.7518 110.063 27.8881C110.145 28.0245 110.266 28.122 110.427 28.1813C110.588 28.2406 110.789 28.27 111.029 28.27C111.136 28.27 111.252 28.2658 111.377 28.2579C111.502 28.25 111.628 28.2383 111.755 28.2229C111.882 28.2075 112.004 28.1888 112.12 28.1664C112.237 28.144 112.34 28.1192 112.432 28.0926V28.905C112.34 28.9335 112.238 28.9596 112.125 28.983C112.012 29.0063 111.893 29.0259 111.768 29.0423C111.642 29.0586 111.517 29.0708 111.391 29.0801C111.266 29.089 111.145 29.0936 111.028 29.0936C110.607 29.0936 110.242 29.0329 109.933 28.912C109.624 28.7911 109.385 28.6015 109.217 28.3433C109.048 28.0852 108.964 27.749 108.964 27.3349V25.5383L108.965 25.5374ZM112.268 25.5374H113.249V31.0452H112.268V25.5374Z" fill="white"/>
<path d="M116.354 31.0452V25.5374H119.935V26.3735H117.352V27.869H119.749V28.7052H117.352V30.2086H119.957V31.0447H116.354V31.0452Z" fill="white"/>
<path d="M127.558 27.3955H126.553C126.524 27.2307 126.471 27.0841 126.394 26.9557C126.317 26.8273 126.221 26.7185 126.107 26.6289C125.992 26.5392 125.862 26.4715 125.716 26.4258C125.57 26.38 125.412 26.3571 125.244 26.3571C124.945 26.3571 124.679 26.4318 124.448 26.5817C124.217 26.7316 124.036 26.9501 123.905 27.2377C123.774 27.5253 123.709 27.8764 123.709 28.2905C123.709 28.7046 123.775 29.0665 123.906 29.3541C124.038 29.6417 124.219 29.8588 124.45 30.0049C124.68 30.1511 124.944 30.2239 125.241 30.2239C125.406 30.2239 125.56 30.202 125.705 30.1581C125.849 30.1142 125.979 30.0493 126.095 29.9629C126.21 29.877 126.308 29.771 126.388 29.6454C126.467 29.5198 126.522 29.3765 126.553 29.215L127.558 29.2206C127.52 29.4825 127.439 29.7281 127.315 29.9573C127.19 30.187 127.027 30.3892 126.827 30.5638C126.626 30.7384 126.391 30.8747 126.123 30.9728C125.854 31.0704 125.556 31.1194 125.227 31.1194C124.744 31.1194 124.312 31.0073 123.932 30.7832C123.552 30.5591 123.253 30.2356 123.034 29.8126C122.815 29.3896 122.706 28.8821 122.706 28.2905C122.706 27.699 122.816 27.1891 123.037 26.7671C123.257 26.345 123.558 26.0219 123.938 25.7973C124.317 25.5732 124.748 25.4612 125.228 25.4612C125.535 25.4612 125.819 25.5041 126.083 25.59C126.346 25.6759 126.581 25.802 126.787 25.9678C126.993 26.1335 127.163 26.3361 127.297 26.5756C127.43 26.8152 127.517 27.0878 127.559 27.3946L127.558 27.3955Z" fill="white"/>
<path d="M130.125 26.374V25.5378H134.518V26.374H132.816V31.0457H131.827V26.374H130.125Z" fill="white"/>
<path d="M137.254 31.0452V25.5374H139.361C139.759 25.5374 140.09 25.5994 140.354 25.7241C140.619 25.8488 140.817 26.0187 140.949 26.234C141.08 26.4492 141.146 26.6929 141.146 26.9656C141.146 27.1897 141.103 27.3811 141.017 27.5398C140.931 27.6986 140.816 27.827 140.67 27.9259C140.525 28.0245 140.363 28.0954 140.184 28.1384V28.1921C140.379 28.2028 140.567 28.2626 140.747 28.3709C140.927 28.4792 141.075 28.6323 141.189 28.8294C141.304 29.0264 141.362 29.265 141.362 29.5446C141.362 29.8243 141.292 30.0858 141.154 30.3122C141.016 30.5391 140.809 30.7179 140.531 30.8487C140.253 30.9794 139.904 31.0447 139.482 31.0447H137.254V31.0452ZM138.251 27.8797H139.238C139.41 27.8797 139.565 27.848 139.703 27.784C139.841 27.7205 139.95 27.6299 140.03 27.5123C140.109 27.3946 140.149 27.2555 140.149 27.094C140.149 26.8806 140.074 26.705 139.925 26.5668C139.775 26.4286 139.553 26.3595 139.259 26.3595H138.251V27.8793V27.8797ZM138.251 30.2114H139.324C139.686 30.2114 139.947 30.1418 140.107 30.0031C140.268 29.864 140.347 29.6852 140.347 29.4667C140.347 29.3037 140.307 29.1562 140.227 29.0241C140.146 28.8924 140.031 28.7883 139.883 28.7122C139.734 28.6361 139.556 28.5978 139.35 28.5978H138.251V30.2114H138.251Z" fill="white"/>
<path d="M149.042 28.2915C149.042 28.8849 148.931 29.3929 148.71 29.815C148.489 30.237 148.188 30.5606 147.807 30.7847C147.426 31.0088 146.994 31.1208 146.512 31.1208C146.03 31.1208 145.599 31.0083 145.218 30.7833C144.837 30.5582 144.536 30.2347 144.315 29.8126C144.094 29.3906 143.983 28.8835 143.983 28.292C143.983 27.7004 144.094 27.1906 144.315 26.7685C144.536 26.3465 144.837 26.0234 145.218 25.7988C145.599 25.5747 146.03 25.4626 146.512 25.4626C146.994 25.4626 147.426 25.5747 147.807 25.7988C148.188 26.0229 148.489 26.346 148.71 26.7685C148.931 27.1911 149.042 27.6986 149.042 28.292V28.2915ZM148.039 28.2915C148.039 27.8737 147.974 27.5211 147.844 27.2331C147.714 26.9455 147.534 26.7274 147.305 26.5794C147.075 26.4314 146.811 26.3577 146.512 26.3577C146.213 26.3577 145.948 26.4314 145.719 26.5794C145.489 26.7274 145.31 26.945 145.18 27.2331C145.05 27.5207 144.985 27.8737 144.985 28.2915C144.985 28.7094 145.05 29.0619 145.18 29.3499C145.31 29.6375 145.489 29.8556 145.719 30.0036C145.948 30.1516 146.213 30.2254 146.512 30.2254C146.811 30.2254 147.076 30.1516 147.305 30.0036C147.534 29.8556 147.713 29.638 147.844 29.3499C147.973 29.0623 148.039 28.7094 148.039 28.2915Z" fill="white"/>
<path d="M155.651 31.0452V25.5374H157.716C158.139 25.5374 158.494 25.6163 158.782 25.7741C159.069 25.9319 159.287 26.1485 159.435 26.4235C159.583 26.699 159.657 27.0113 159.657 27.361C159.657 27.7107 159.583 28.0282 159.434 28.3023C159.285 28.5768 159.066 28.792 158.775 28.9489C158.485 29.1058 158.128 29.1842 157.703 29.1842H156.335V28.3639H157.568C157.816 28.3639 158.018 28.3209 158.176 28.235C158.334 28.1491 158.451 28.0305 158.527 27.8802C158.603 27.7294 158.641 27.5566 158.641 27.361C158.641 27.1654 158.603 26.9936 158.527 26.8446C158.451 26.6957 158.333 26.5799 158.175 26.4963C158.016 26.4128 157.812 26.3712 157.563 26.3712H156.65V31.0452H155.652H155.651Z" fill="white"/>
<path d="M162.415 31.0452V25.5374H165.996V26.3735H163.412V27.869H165.81V28.7052H163.412V30.2086H166.017V31.0447H162.415V31.0452Z" fill="white"/>
<path d="M170.828 31.1204C170.441 31.1204 170.098 31.0541 169.797 30.9215C169.497 30.7889 169.26 30.604 169.086 30.3673C168.912 30.1306 168.82 29.8574 168.81 29.5469H169.82C169.829 29.6959 169.879 29.8252 169.968 29.9354C170.058 30.0456 170.177 30.1315 170.326 30.1922C170.475 30.2533 170.641 30.2837 170.826 30.2837C171.023 30.2837 171.198 30.2491 171.35 30.18C171.502 30.1109 171.621 30.0148 171.707 29.891C171.793 29.7673 171.835 29.6249 171.834 29.4634C171.835 29.2967 171.792 29.1496 171.705 29.0222C171.617 28.8947 171.49 28.7953 171.324 28.7238C171.159 28.6519 170.959 28.6164 170.726 28.6164H170.239V27.8475H170.726C170.918 27.8475 171.086 27.8143 171.23 27.748C171.374 27.6817 171.488 27.5879 171.57 27.467C171.653 27.346 171.693 27.2055 171.691 27.0458C171.693 26.8899 171.659 26.754 171.588 26.6382C171.517 26.5225 171.417 26.4323 171.289 26.3679C171.161 26.3035 171.011 26.2713 170.839 26.2713C170.667 26.2713 170.515 26.3016 170.372 26.3628C170.228 26.4239 170.112 26.5103 170.025 26.6224C169.937 26.7344 169.89 26.8675 169.885 27.0216H168.926C168.933 26.7134 169.022 26.4422 169.193 26.2082C169.364 25.9743 169.593 25.7913 169.88 25.6597C170.167 25.528 170.489 25.4622 170.845 25.4622C171.202 25.4622 171.532 25.5308 171.804 25.6681C172.075 25.8053 172.285 25.9893 172.434 26.2208C172.583 26.452 172.657 26.7078 172.657 26.9875C172.659 27.2975 172.568 27.5575 172.384 27.7676C172.2 27.9773 171.96 28.1145 171.662 28.179V28.2219C172.049 28.2756 172.346 28.4185 172.554 28.651C172.761 28.883 172.863 29.1716 172.862 29.5157C172.862 29.8238 172.774 30.0997 172.599 30.3425C172.425 30.5853 172.184 30.7758 171.879 30.914C171.573 31.0522 171.223 31.1213 170.829 31.1213L170.828 31.1204Z" fill="white"/>
<path d="M176.223 31.1204V30.2814H176.538C176.679 30.2814 176.796 30.2609 176.888 30.2198C176.979 30.1787 177.053 30.1194 177.109 30.0424C177.166 29.9653 177.213 29.8757 177.25 29.7734L177.322 29.5881L175.355 25.5378H176.398L177.769 28.4853L178.954 25.5378H179.981L178.083 30.0293C177.995 30.2231 177.894 30.4028 177.779 30.5685C177.665 30.7343 177.516 30.8678 177.332 30.9691C177.148 31.0705 176.909 31.1209 176.615 31.1209H176.223L176.223 31.1204Z" fill="white"/>
<path d="M182.229 31.0452V30.217L182.384 30.209C182.596 30.1964 182.764 30.1203 182.888 29.9802C183.013 29.8406 183.105 29.6156 183.165 29.3051C183.225 28.9951 183.265 28.5791 183.285 28.0571L183.376 25.5374H186.983V31.0452H186.008V26.3577H184.306L184.22 28.3667C184.195 28.969 184.129 29.4685 184.023 29.8645C183.916 30.2608 183.742 30.5564 183.502 30.752C183.26 30.9476 182.926 31.0452 182.498 31.0452H182.229H182.229Z" fill="white"/>
<path d="M190.637 27.6645H192.035C192.456 27.6645 192.817 27.7331 193.119 27.8704C193.421 28.0077 193.653 28.2009 193.814 28.4498C193.976 28.6986 194.056 28.9923 194.056 29.3294C194.056 29.6665 193.975 29.9662 193.814 30.2235C193.653 30.4807 193.421 30.682 193.119 30.8272C192.817 30.9724 192.456 31.0452 192.035 31.0452H189.973V25.5374H190.973V30.2277H192.035C192.257 30.2277 192.445 30.1857 192.6 30.1012C192.754 30.0171 192.871 29.9055 192.95 29.7678C193.03 29.6296 193.07 29.4802 193.07 29.3187C193.07 29.0857 192.981 28.8868 192.803 28.7229C192.624 28.559 192.369 28.4769 192.035 28.4769H190.638V27.6645H190.637Z" fill="white"/>
<path d="M196.379 26.374V25.5378H200.771V26.374H199.07V31.0457H198.08V26.374H196.379Z" fill="white"/>
<path d="M203.548 31.0452H202.483L204.421 25.5374H205.653L207.593 31.0452H206.529L205.058 26.6668H205.016L203.548 31.0452ZM203.583 28.8859H206.486V29.6875H203.583V28.8859Z" fill="white"/>
<path d="M209.303 26.374V25.5378H213.695V26.374H211.994V31.0457H211.005V26.374H209.303Z" fill="white"/>
</svg>
