<svg width="221" height="44" viewBox="0 0 221 44" fill="none" xmlns="http://www.w3.org/2000/svg">
<g clip-path="url(#clip0_113_919)">
<path fill-rule="evenodd" clip-rule="evenodd" d="M26.4193 0.912354V12.2527H22.0421C16.4608 12.2527 11.9277 16.7439 11.9277 22.2738C11.9277 27.8036 16.4608 32.2948 22.0421 32.2948H26.4193V43.6352C36.4628 41.6001 44.0132 32.8141 44.0132 22.2738C44.0132 11.7334 36.4628 2.94744 26.4193 0.912354Z" fill="white"/>
<path fill-rule="evenodd" clip-rule="evenodd" d="M21.9994 35.7615C14.4491 35.7615 8.34363 29.7124 8.34363 22.2317C8.34363 14.751 14.4491 8.71587 21.9994 8.71587H22.8777V0.435172C22.5944 0.435172 22.2686 0.393066 21.9994 0.393066C9.83104 0.393066 0 10.1475 0 22.2036C0 34.2597 9.83104 44.0001 21.9994 44.0001C22.2827 44.0001 22.6086 44.0001 22.8777 43.958V35.6773H21.9994V35.7615Z" fill="white"/>
<path fill-rule="evenodd" clip-rule="evenodd" d="M67.8967 12.0981C66.9759 12.856 65.7718 13.3332 64.4402 13.3332C61.4654 13.3332 59.0572 10.9472 59.0572 7.99988C59.0572 5.05251 61.4654 2.66655 64.4402 2.66655C65.8001 2.66655 67.0467 3.18585 67.9675 3.98585L69.8515 2.11918C68.4066 0.799881 66.5226 0.013916 64.3836 0.013916C59.9214 0.013916 56.3091 3.59286 56.3091 8.01392C56.3091 12.435 59.9214 16.0139 64.3836 16.0139C66.4376 16.0139 68.2791 15.256 69.7241 14.0209L67.84 12.1543L67.8825 12.1122L67.8967 12.0981Z" fill="white"/>
<path fill-rule="evenodd" clip-rule="evenodd" d="M153.826 0.603629L147.891 7.71942L141.898 0.603629L141.856 0.673804V0.603629H139.448V15.3545H141.856V4.53345L147.891 11.6212L153.826 4.65977V15.3124H156.234V0.561523H153.826V0.603629Z" fill="white"/>
<path fill-rule="evenodd" clip-rule="evenodd" d="M85.122 8C85.122 5.05263 82.7138 2.66667 79.739 2.66667C76.7642 2.66667 74.356 5.05263 74.356 8C74.356 10.9474 76.7642 13.3333 79.739 13.3333C82.7138 13.3333 85.122 10.9474 85.122 8ZM87.8135 8C87.8135 12.4211 84.2012 16 79.739 16C75.2768 16 71.6646 12.4211 71.6646 8C71.6646 3.57895 75.291 0 79.739 0C84.1871 0 87.8135 3.57895 87.8135 8Z" fill="white"/>
<path fill-rule="evenodd" clip-rule="evenodd" d="M134.32 8C134.32 5.05263 131.912 2.66667 128.937 2.66667C125.962 2.66667 123.554 5.05263 123.554 8C123.554 10.9474 125.962 13.3333 128.937 13.3333C131.912 13.3333 134.32 10.9474 134.32 8ZM137.011 8C137.011 12.4211 133.399 16 128.937 16C124.475 16 120.862 12.4211 120.862 8C120.862 3.57895 124.475 0 128.937 0C133.399 0 137.011 3.57895 137.011 8Z" fill="white"/>
<path fill-rule="evenodd" clip-rule="evenodd" d="M120.777 0.603516H117.576L111.428 6.80702H108.935V0.603516H106.526V15.3544H108.935V9.19299H111.385L117.491 15.3544H120.706L113.439 8.04211L120.777 0.631586V0.603516Z" fill="white"/>
<path fill-rule="evenodd" clip-rule="evenodd" d="M221 0.603516H217.798L211.65 6.80702H209.157V0.603516H206.749V15.3544H209.157V9.19299H211.608L217.713 15.3544H220.929L213.662 8.04211L221 0.631586V0.603516Z" fill="white"/>
<path fill-rule="evenodd" clip-rule="evenodd" d="M177.964 9.78246L180.741 3.57895L183.517 9.78246H177.979H177.964ZM185.996 15.3544H188.645L182.101 0.603516H179.409L172.865 15.3684H175.514L176.959 12.1825H184.622L186.067 15.3684H185.982L185.996 15.3544Z" fill="white"/>
<path fill-rule="evenodd" clip-rule="evenodd" d="M99.2168 12.9684H92.9555V9.19299H99.2593C100.308 9.23509 101.143 10.0632 101.143 11.1018C101.143 12.1404 100.293 13.0105 99.2168 13.0105V12.9684ZM92.9555 2.98948H99.2168C100.265 2.98948 101.143 3.83159 101.143 4.89825C101.143 5.96492 100.293 6.80702 99.2168 6.80702H92.9555V2.98948ZM103.509 11.0597C103.509 9.86667 102.985 8.7579 102.177 7.9579C102.985 7.1579 103.509 6.09123 103.509 4.85615C103.509 2.51229 101.582 0.603516 99.2593 0.603516H90.5474V15.3123H99.2593C101.625 15.2702 103.509 13.4035 103.509 11.0597Z" fill="white"/>
<path fill-rule="evenodd" clip-rule="evenodd" d="M201.409 0.631592V6.80703H192.739V0.631592H190.331V15.3123H192.739V9.193H201.409V15.3123H203.817V0.631592H201.409Z" fill="white"/>
<path fill-rule="evenodd" clip-rule="evenodd" d="M167.68 12.9684H161.419V9.19299H167.723C168.771 9.23509 169.607 10.0632 169.607 11.1018C169.607 12.1404 168.757 13.0105 167.68 13.0105V12.9684ZM171.972 11.0597C171.972 8.7158 170.046 6.80702 167.68 6.80702H161.419V2.98948H170.528V0.603516H158.997V15.3123H167.709C170.074 15.2702 171.958 13.4035 171.958 11.0597H171.972Z" fill="white"/>
<path fill-rule="evenodd" clip-rule="evenodd" d="M59.7088 42.9615C58.6606 42.4001 57.8673 41.6141 57.2582 40.6176C56.649 39.6212 56.3799 38.5124 56.3799 37.2773C56.3799 36.0422 56.6632 34.9334 57.2582 33.9369C57.8673 32.9405 58.6606 32.1405 59.7088 31.5931C60.7571 31.0317 61.9187 30.751 63.2078 30.751C64.2135 30.751 65.1343 30.9054 65.9843 31.2703C66.8342 31.5931 67.5567 32.1124 68.1091 32.744L66.905 33.8948C65.9418 32.8983 64.7377 32.379 63.2503 32.379C62.287 32.379 61.4371 32.5755 60.6438 33.0106C59.8788 33.4457 59.2839 34.0492 58.8306 34.765C58.3914 35.5229 58.1931 36.351 58.1931 37.2773C58.1931 38.2036 58.3914 39.0317 58.8306 39.7896C59.2697 40.5475 59.8788 41.1369 60.6438 41.544C61.4087 41.979 62.287 42.1755 63.2503 42.1755C64.6952 42.1755 65.8993 41.6562 66.905 40.6176L68.1091 41.7685C67.5 42.4422 66.7775 42.9194 65.9418 43.2843C65.0918 43.6492 64.1711 43.8036 63.1653 43.8036C61.8762 43.8036 60.7146 43.5229 59.6663 42.9615H59.7088Z" fill="white"/>
<path fill-rule="evenodd" clip-rule="evenodd" d="M81.2264 32.4632H76.8067V43.6772H75.0076V32.4632H70.5879V30.8772H81.2264V32.4632Z" fill="white"/>
<path fill-rule="evenodd" clip-rule="evenodd" d="M92.9981 37.4738C93.6073 36.9966 93.9189 36.2808 93.9189 35.3264C93.9189 34.372 93.5931 33.6984 92.9981 33.1791C92.389 32.7019 91.4682 32.4212 90.3066 32.4212H87.176V38.1475H90.3066C91.4682 38.1475 92.3607 37.9089 92.9981 37.3896V37.4738ZM94.3297 32.0563C95.293 32.8563 95.7746 33.9229 95.7746 35.3124C95.7746 36.7019 95.293 37.7826 94.3297 38.5685C93.3664 39.3685 92.0349 39.7615 90.3916 39.7615H87.2185V43.6212H85.377V30.8071H90.3916C92.0774 30.8071 93.3664 31.2001 94.3297 32.0001V32.0422V32.0563Z" fill="white"/>
<path fill-rule="evenodd" clip-rule="evenodd" d="M107.291 39.0316L104.515 32.7439L101.738 39.0316H107.277H107.291ZM107.929 40.5053H101.058L99.656 43.6912H97.772L103.637 30.8772H105.45L111.314 43.6912H109.388L107.985 40.5053H107.943H107.929Z" fill="white"/>
<path fill-rule="evenodd" clip-rule="evenodd" d="M115.479 30.8772L118.851 35.5649L122.222 30.8772H124.39L120.013 36.9965L124.758 43.6351H122.591L118.893 38.5544L115.196 43.6351H113.071L117.774 37.0807L113.397 30.8772H115.522H115.479Z" fill="white"/>
<path fill-rule="evenodd" clip-rule="evenodd" d="M136.799 41.5719C137.564 41.1368 138.159 40.5333 138.612 39.8175C139.051 39.0596 139.249 38.2316 139.249 37.3052C139.249 36.3789 139.051 35.5509 138.612 34.793C138.173 34.0351 137.564 33.4456 136.799 33.0386C136.034 32.6035 135.198 32.407 134.235 32.407C133.271 32.407 132.421 32.6035 131.671 33.0386C130.906 33.4737 130.311 34.0772 129.857 34.793C129.418 35.5509 129.22 36.3789 129.22 37.3052C129.22 38.2316 129.418 39.0596 129.857 39.8175C130.297 40.5754 130.906 41.1649 131.671 41.5719C132.436 42.007 133.271 42.2035 134.235 42.2035C135.198 42.2035 136.048 42.007 136.799 41.5719ZM130.736 43.0035C129.687 42.4421 128.894 41.6561 128.285 40.6596C127.676 39.6631 127.407 38.5544 127.407 37.3193C127.407 36.0842 127.69 34.9754 128.285 33.9789C128.894 32.9824 129.687 32.1824 130.736 31.6351C131.784 31.0877 132.946 30.793 134.263 30.793C135.58 30.793 136.714 31.0737 137.762 31.6351C138.81 32.1965 139.603 32.9824 140.213 33.9789C140.822 34.9754 141.091 36.0842 141.091 37.3193C141.091 38.5544 140.808 39.6631 140.213 40.6596C139.603 41.6561 138.81 42.4561 137.762 43.0035C136.714 43.5509 135.552 43.8456 134.263 43.8456C132.974 43.8456 131.77 43.5649 130.736 43.0035Z" fill="white"/>
<path fill-rule="evenodd" clip-rule="evenodd" d="M154.747 40.056C154.747 39.3402 154.506 38.7788 153.982 38.4279C153.5 38.063 152.735 37.9087 151.772 37.9087H147.72V42.2455H151.772C153.741 42.2455 154.747 41.5297 154.747 40.056ZM147.72 36.5192H151.333C152.211 36.5192 152.905 36.3648 153.387 35.9999C153.868 35.635 154.109 35.1297 154.109 34.442C154.109 33.7543 153.868 33.249 153.387 32.8841C152.905 32.5192 152.225 32.3227 151.333 32.3227H147.72V36.5051V36.5192ZM155.908 38.1472C156.347 38.6665 156.588 39.3402 156.588 40.1823C156.588 41.2911 156.192 42.1332 155.342 42.7648C154.534 43.3683 153.33 43.6771 151.772 43.6771H145.865V30.863H151.404C152.806 30.863 153.939 31.1437 154.69 31.7051C155.497 32.2665 155.894 33.0946 155.894 34.1332C155.894 34.8069 155.738 35.4104 155.37 35.9297C155.002 36.4069 154.52 36.7718 153.883 37.0385C154.761 37.235 155.412 37.5999 155.852 38.1472H155.894H155.908Z" fill="white"/>
<path fill-rule="evenodd" clip-rule="evenodd" d="M169.281 39.0316L166.504 32.7439L163.728 39.0316H169.266H169.281ZM169.918 40.5053H163.048L161.645 43.6912H159.761L165.626 30.8772H167.439L173.304 43.6912H171.377L169.975 40.5053H169.932H169.918Z" fill="white"/>
<path fill-rule="evenodd" clip-rule="evenodd" d="M188.476 30.8772V43.6772H186.634V37.993H179.211V43.6772H177.355V30.8772H179.211V36.3649H186.634V30.8772H188.476Z" fill="white"/>
<path fill-rule="evenodd" clip-rule="evenodd" d="M194.34 30.8772H196.153V40.7439L203.774 30.8772H205.46V43.6772H203.661V33.8105L195.983 43.6772H194.297V30.8772H194.34Z" fill="white"/>
<path fill-rule="evenodd" clip-rule="evenodd" d="M220.759 42.0912V43.6772H211.41V30.8772H220.518V32.4632H213.251V36.407H219.725V37.9509H213.251V42.0912H220.759Z" fill="white"/>
<path fill-rule="evenodd" clip-rule="evenodd" d="M221 25.9791H56.3799V23.9861H221V25.9791Z" fill="white"/>
</g>
<defs>
<clipPath id="clip0_113_919">
<rect width="221" height="44" fill="white"/>
</clipPath>
</defs>
</svg>
