<svg width="187" height="71" viewBox="0 0 187 71" fill="none" xmlns="http://www.w3.org/2000/svg">
<g clip-path="url(#clip0_85_374)">
<mask id="mask0_85_374" style="mask-type:luminance" maskUnits="userSpaceOnUse" x="36" y="39" width="24" height="16">
<path d="M47.2936 40.7296C46.9972 41.0254 37.0555 50.8425 36.3579 51.547C37.7114 52.521 43.5217 56.1413 51.2908 53.4718C51.8818 53.2575 52.9247 52.992 53.5349 52.6983L54.1545 52.0323C56.0335 49.8448 58.498 46.896 59.8845 40.7296C55.7135 38.9596 50.2089 38.3234 47.2936 40.7296Z" fill="white"/>
</mask>
<g mask="url(#mask0_85_374)">
<path d="M68.6738 48.5695L46.3555 67.7937L27.5684 45.8944L49.8872 26.6702L68.6738 48.5695Z" fill="white"/>
</g>
<mask id="mask1_85_374" style="mask-type:luminance" maskUnits="userSpaceOnUse" x="20" y="10" width="40" height="21">
<path d="M47.2933 28.193C50.0729 30.9815 56.5258 31.2168 59.5352 28.8789C58.8101 25.7444 55.9217 20.2368 52.82 17.5794L51.9596 16.7873C49.6232 14.8245 47.665 13.552 44.6595 12.3351L43.0679 11.7749C43.0679 11.7749 40.5402 11.1216 40.5374 11.1216C38.8871 10.7806 37.0146 10.6318 35.3192 10.6318C33.6304 10.6318 31.9338 10.8076 30.2813 11.1574C30.2813 11.1574 27.637 11.8713 27.6348 11.8724L26.1318 12.4139C23.9058 13.3146 21.9196 14.6345 20.0537 16.1268C29.1554 13.4121 35.6199 18.7274 35.7227 18.8134C35.7216 18.8161 46.9789 27.8785 47.2933 28.193Z" fill="white"/>
</mask>
<g mask="url(#mask1_85_374)">
<path d="M41.8079 -9.04419L69.7517 21.9764L37.7793 50.896L9.83545 19.8748L41.8079 -9.04419Z" fill="white"/>
</g>
<mask id="mask2_85_374" style="mask-type:luminance" maskUnits="userSpaceOnUse" x="16" y="36" width="36" height="25">
<path d="M18.1652 53.3467C20.4824 55.6081 23.1619 57.3758 26.1404 58.5817L27.6473 59.121L30.2921 59.841C31.9452 60.1874 33.6434 60.3648 35.3378 60.3648C37.0293 60.3648 38.7248 60.2508 40.3757 59.9043C40.3757 59.9043 43.0772 59.2251 43.0794 59.2223L44.8666 58.5817C47.092 57.6793 49.3201 56.3644 51.186 54.8644C42.0821 57.5813 35.0447 52.2714 34.9683 52.2114L34.9529 52.1987C34.9529 52.1987 20.0981 37.3153 19.3142 36.532C18.5962 37.5368 16.4346 40.9786 16.4346 45.8764C16.4346 47.5053 16.6765 49.2967 17.2938 51.2011C17.5198 51.877 17.8013 52.5623 18.1284 53.2592L18.1652 53.3467Z" fill="white"/>
</mask>
<g mask="url(#mask2_85_374)">
<path d="M36.135 77.6192L4.64746 50.0431L31.4836 19.2754L62.9711 46.8525L36.135 77.6192Z" fill="white"/>
</g>
<mask id="mask3_85_374" style="mask-type:luminance" maskUnits="userSpaceOnUse" x="10" y="16" width="25" height="35">
<path d="M17.5182 18.2977C15.256 20.6235 13.4963 23.3134 12.2956 26.2947L11.7513 27.8003L11.0356 30.4543C10.6887 32.1036 10.5166 33.8025 10.5166 35.5014C10.5166 37.2003 10.6887 38.9036 11.0356 40.5562L11.7513 43.2075L12.2956 44.7142C13.1966 46.9518 14.51 48.9443 16.007 50.8068C15.4567 48.9597 15.2027 47.2058 15.2027 45.6071C15.2027 39.3173 18.5996 35.1962 18.6458 35.1406L18.6634 35.1191C18.6634 35.1191 33.5193 20.2357 34.3032 19.4524C32.9459 18.4801 27.1361 14.8554 19.3571 17.5276C18.7761 17.7408 18.173 17.9904 17.5688 18.2807L17.5182 18.2977Z" fill="white"/>
</mask>
<g mask="url(#mask3_85_374)">
<path d="M-7.42188 32.644L22.5335 2.93774L52.2421 33.0175L22.2867 62.7231L-7.42188 32.644Z" fill="white"/>
</g>
<path d="M55.8822 17.6229C60.0542 22.4127 62.5924 28.6673 62.5924 35.4992C62.5924 42.3355 60.0542 48.5878 55.8822 53.3722C55.0284 54.372 54.1136 55.2809 53.123 56.1375C52.681 56.4978 52.2357 56.8586 51.7942 57.2178C51.4908 57.4403 51.1873 57.6623 50.8536 57.8849C49.228 59.0208 47.4622 59.987 45.5821 60.7626C42.4336 62.0357 38.9828 62.7298 35.3957 62.7298C31.7503 62.7298 28.2418 62.0076 25.0406 60.6778C23.2468 59.9033 21.5068 58.964 19.9032 57.8298C19.6041 57.6072 19.2985 57.3858 18.9961 57.1649L18.9653 57.1368C18.4975 56.7765 18.056 56.4207 17.6135 56.0268C16.6173 55.1724 15.6811 54.231 14.8262 53.2333C10.7372 48.4793 8.25616 42.2517 8.25616 35.4992C8.25616 28.7169 10.7372 22.5256 14.8262 17.7347C15.6816 16.7382 16.6179 15.8001 17.6135 14.944C18.056 14.5534 18.4975 14.1937 18.9653 13.8346C18.9653 13.8346 18.9961 13.8346 18.9961 13.8076C19.299 13.5817 19.6041 13.3652 19.9032 13.146C21.5068 12.0613 23.2468 11.094 25.0406 10.3497C28.2418 9.02215 31.7503 8.27242 35.3957 8.27242C38.9828 8.27242 42.4347 8.9913 45.5821 10.2622C47.4622 11.0152 49.228 11.9825 50.8536 13.114C51.1868 13.3101 51.4908 13.5597 51.7942 13.7855C52.2357 14.1149 52.681 14.4675 53.123 14.8333L55.8822 17.6229ZM64.4457 33.5326C64.4457 33.483 64.4457 33.4229 64.4457 33.3679C65.7398 30.576 68.1702 30.521 70.8481 33.0632C70.8481 28.8061 69.9366 25.4287 67.891 23.52C64.9987 20.9463 61.9723 22.6226 59.4995 19.1229C59.2076 16.0705 61.306 14.776 64.9107 15.6326C62.759 11.9831 60.2725 9.51573 57.5683 8.88333C56.9603 8.74672 56.41 8.71311 55.8822 8.77426C54.8624 8.82384 53.9784 9.13012 53.123 9.38242C52.681 9.51573 52.2357 9.65565 51.7942 9.74379C51.4908 9.79447 51.1873 9.84735 50.8536 9.84735C50.0455 9.90409 49.1538 9.76307 48.1043 9.27169C46.3682 6.79168 47.4748 4.69892 50.8536 3.62032C50.9388 3.60104 51.0004 3.57405 51.0504 3.53769C50.9993 3.514 50.9388 3.48315 50.8536 3.46332C49.0081 2.4051 47.2126 1.65867 45.5821 1.30005C44.0059 0.967879 42.5705 0.941988 41.3061 1.32815C38.3792 2.32467 37.7443 4.75952 35.3957 5.8899C34.8965 6.14496 34.2671 6.33446 33.5183 6.41874C33.4617 6.41874 33.4067 6.41874 33.3528 6.41874C30.5651 5.11648 30.5095 2.68384 33.0455 0C29.7916 0 27.028 0.556379 25.0412 1.71596C24.4628 2.07513 23.9384 2.48993 23.4931 2.96148C21.1764 5.62163 22.36 8.38094 19.9043 10.7337C19.6855 10.9574 19.4167 11.159 19.1319 11.3727C19.0901 11.3727 19.0384 11.3727 18.9972 11.3727H18.9664C18.4711 11.4019 18.0302 11.3727 17.6146 11.2912C15.6525 10.8185 14.9378 8.88333 15.6525 5.95105C15.3831 6.11466 15.105 6.28157 14.8273 6.44738C11.625 8.46798 9.44142 10.7618 8.86254 13.2512C8.08904 17.0753 11.0984 18.8723 9.22372 22.8259C6.70916 24.6239 4.55579 23.4621 3.50246 19.8985C1.37987 23.6037 0.491477 27.0031 1.29631 29.6611C2.5349 33.2863 5.90762 33.3679 6.4024 37.4895C6.4024 37.5512 6.4024 37.5974 6.4024 37.6597C5.13467 40.4509 2.67729 40.5314 0 37.9902C0 42.2225 0.936226 45.6269 2.9791 47.5368C5.87299 50.0779 8.90047 48.4072 11.3771 51.9079C11.6657 54.9559 9.56897 56.2493 5.9604 55.3916C8.11927 59.0726 10.6019 61.5614 13.3067 62.174C13.8576 62.2869 14.3562 62.3117 14.8262 62.3117C15.8488 62.2555 16.7295 61.98 17.6135 61.7035C18.056 61.5608 18.4975 61.4253 18.9653 61.3102H18.9961C19.299 61.2606 19.6041 61.2 19.9032 61.1785C20.7822 61.1251 21.7119 61.2584 22.8009 61.7707C24.5288 64.27 23.3892 66.3903 19.9032 67.4601C19.9032 67.4601 19.8784 67.4838 19.8493 67.4838C19.8784 67.5168 19.9032 67.5168 19.9032 67.535C21.7273 68.563 23.4419 69.278 25.0406 69.6707C26.7223 70.058 28.2418 70.0883 29.5953 69.6707C32.4925 68.7029 33.1351 66.2956 35.3957 65.1597C35.9444 64.882 36.5799 64.6903 37.3831 64.5829C37.4402 64.5829 37.4908 64.5829 37.5469 64.5829C40.3391 65.8797 40.3968 68.3184 37.8542 70.9995C40.9702 70.9995 43.6255 70.5026 45.5832 69.4256C46.2753 69.0339 46.8839 68.5894 47.4083 68.0369C49.6953 65.4087 48.5677 62.7022 50.8547 60.3759C51.1351 60.0994 51.4391 59.8487 51.7953 59.5981C51.7701 59.6262 51.7431 59.6262 51.7431 59.6262C51.7431 59.5981 51.7701 59.5981 51.7953 59.5744C51.7953 59.5744 51.8239 59.5474 51.8492 59.5474C51.8322 59.5617 51.8168 59.5799 51.7953 59.5981C52.2648 59.5744 52.7145 59.5981 53.1241 59.6543C55.1895 60.0448 55.9658 62.0092 55.2467 65.0275C55.4666 64.9123 55.6887 64.7735 55.8822 64.6325C59.1983 62.5871 61.4347 60.2371 62.0174 57.6926C62.7887 53.8442 59.7739 52.0776 61.6276 48.1152C61.6276 48.1472 61.5968 48.1763 61.5968 48.1989C64.1109 46.4301 66.2604 47.593 67.3143 51.1329C69.4396 47.452 70.3263 44.0492 69.5199 41.3935C68.3066 37.7688 64.9118 37.6586 64.4457 33.5326Z" fill="white"/>
<path d="M96.846 30.1072C96.3517 28.2893 95.3622 24.7781 90.2083 24.7781C87.1984 24.7781 82.6629 26.9265 82.6629 35.3956C82.6629 40.7666 84.9307 45.7652 90.2083 45.7652C93.6717 45.7652 96.1044 43.6586 96.846 39.981H103.071C101.834 46.5088 97.5876 51.0535 90.084 51.0535C82.1269 51.0535 76.437 45.6418 76.437 35.3129C76.437 24.8194 82.4562 19.4897 90.1665 19.4897C99.1131 19.4897 102.741 25.687 103.071 30.1072H96.846Z" fill="white"/>
<path d="M110.041 20.2747L118.122 37.0482L124.347 20.2747H131.398L120.389 45.6412C118.369 50.2679 116.266 51.0529 113.339 51.0529C112.102 51.0529 110.164 50.8464 109.505 50.6811V45.3514C110.041 45.5993 111.153 45.8472 111.937 45.8472C113.627 45.8472 114.123 45.3927 115.153 43.4922L102.99 20.2742L110.041 20.2747Z" fill="white"/>
<path d="M151.394 31.8838C150.322 26.3888 146.9 24.7781 144.344 24.7781C139.19 24.7781 138.16 28.2899 137.665 30.1072H131.439C131.769 25.687 135.397 19.4897 144.344 19.4897C152.054 19.4897 158.156 24.8189 158.156 35.3129C158.156 45.6418 152.384 51.0535 144.427 51.0535C136.923 51.0535 132.676 46.5088 131.439 39.981H137.665C138.407 43.6586 140.881 45.7652 144.303 45.7652C149.044 45.7652 151.188 41.7163 151.642 37.0482H142.984V31.8838H151.394Z" fill="white"/>
<path d="M167.062 32.4621L178.483 20.2747H186.564L174.36 32.5447L187.265 50.2684H179.225L169.99 37.0894L167.062 40.1054V50.2684H160.837V20.2747H167.062V32.4621Z" fill="white"/>
</g>
<defs>
<clipPath id="clip0_85_374">
<rect width="187" height="71" fill="white"/>
</clipPath>
</defs>
</svg>
